sahlnaskh-regular.sfdir
StartChar: exclam
Encoding: 33 33 753
Width: 682
GlyphClass: 2
Flags: W
LayerCount: 2
Fore
SplineSet
221 1462 m 1,0,-1
 459 1462 l 1,1,-1
 387 412 l 1,2,-1
 293 412 l 1,3,-1
 221 1462 l 1,0,-1
211 125 m 0,4,5
 211 165 211 165 221 191.5 c 128,-1,6
 231 218 231 218 248.5 234 c 128,-1,7
 266 250 266 250 289.5 257 c 128,-1,8
 313 264 313 264 340 264 c 0,9,10
 366 264 366 264 389.5 257 c 128,-1,11
 413 250 413 250 430.5 234 c 128,-1,12
 448 218 448 218 458.5 191.5 c 128,-1,13
 469 165 469 165 469 125 c 0,14,15
 469 86 469 86 458.5 59 c 128,-1,16
 448 32 448 32 430.5 16 c 128,-1,17
 413 0 413 0 389.5 -7 c 128,-1,18
 366 -14 366 -14 340 -14 c 0,19,20
 313 -14 313 -14 289.5 -7 c 128,-1,21
 266 0 266 0 248.5 16 c 128,-1,22
 231 32 231 32 221 59 c 128,-1,23
 211 86 211 86 211 125 c 0,4,5
EndSplineSet
EndChar
StartChar: quotedbl
Encoding: 34 34 754
Width: 836
GlyphClass: 2
Flags: W
LayerCount: 2
Fore
SplineSet
502 1462 m 1,0,-1
 719 1462 l 1,1,-1
 657 981 l 1,2,-1
 563 981 l 1,3,-1
 502 1462 l 1,0,-1
117 1462 m 1,4,-1
 334 1462 l 1,5,-1
 272 981 l 1,6,-1
 178 981 l 1,7,-1
 117 1462 l 1,4,-1
EndSplineSet
EndChar
StartChar: numbersign
Encoding: 35 35 755
Width: 1145
GlyphClass: 2
Flags: W
LayerCount: 2
Fore
SplineSet
397 537 m 1,0,-1
 682 537 l 1,1,-1
 758 938 l 1,2,-1
 473 938 l 1,3,-1
 397 537 l 1,0,-1
1038 537 m 1,4,-1
 1038 416 l 1,5,-1
 780 416 l 1,6,-1
 702 0 l 1,7,-1
 580 0 l 1,8,-1
 657 416 l 1,9,-1
 373 416 l 1,10,-1
 295 0 l 1,11,-1
 172 0 l 1,12,-1
 250 416 l 1,13,-1
 82 416 l 1,14,-1
 82 537 l 1,15,-1
 272 537 l 1,16,-1
 350 938 l 1,17,-1
 106 938 l 1,18,-1
 106 1059 l 1,19,-1
 373 1059 l 1,20,-1
 446 1462 l 1,21,-1
 571 1462 l 1,22,-1
 496 1059 l 1,23,-1
 780 1059 l 1,24,-1
 856 1462 l 1,25,-1
 979 1462 l 1,26,-1
 903 1059 l 1,27,-1
 1063 1059 l 1,28,-1
 1063 938 l 1,29,-1
 881 938 l 1,30,-1
 805 537 l 1,31,-1
 1038 537 l 1,4,-1
EndSplineSet
EndChar
StartChar: dollar
Encoding: 36 36 756
Width: 1145
GlyphClass: 2
Flags: W
LayerCount: 2
Fore
SplineSet
621 1401 m 1,0,1
 713 1399 713 1399 777.5 1380.5 c 128,-1,2
 842 1362 842 1362 883 1331.5 c 128,-1,3
 924 1301 924 1301 942.5 1260 c 128,-1,4
 961 1219 961 1219 961 1171 c 0,5,6
 961 1105 961 1105 917 1071.5 c 128,-1,7
 873 1038 873 1038 799 1038 c 1,8,9
 799 1083 799 1083 791.5 1128.5 c 128,-1,10
 784 1174 784 1174 764.5 1211.5 c 128,-1,11
 745 1249 745 1249 710 1275 c 128,-1,12
 675 1301 675 1301 621 1307 c 1,13,-1
 621 829 l 1,14,15
 713 789 713 789 784 749 c 128,-1,16
 855 709 855 709 903 662.5 c 128,-1,17
 951 616 951 616 976 559.5 c 128,-1,18
 1001 503 1001 503 1001 430 c 0,19,20
 1001 276 1001 276 902 190.5 c 128,-1,21
 803 105 803 105 621 86 c 1,22,-1
 621 -162 l 1,23,-1
 518 -162 l 1,24,-1
 518 82 l 1,25,26
 467 82 467 82 415 86.5 c 128,-1,27
 363 91 363 91 313.5 101.5 c 128,-1,28
 264 112 264 112 218.5 128 c 128,-1,29
 173 144 173 144 135 166 c 1,30,-1
 135 481 l 1,31,-1
 221 481 l 1,32,33
 221 424 221 424 242.5 370.5 c 128,-1,34
 264 317 264 317 303.5 274.5 c 128,-1,35
 343 232 343 232 397.5 204.5 c 128,-1,36
 452 177 452 177 518 172 c 1,37,-1
 518 678 l 1,38,39
 422 721 422 721 355.5 763 c 128,-1,40
 289 805 289 805 248 851.5 c 128,-1,41
 207 898 207 898 188.5 952 c 128,-1,42
 170 1006 170 1006 170 1073 c 0,43,44
 170 1142 170 1142 194.5 1198 c 128,-1,45
 219 1254 219 1254 264 1295.5 c 128,-1,46
 309 1337 309 1337 373.5 1362.5 c 128,-1,47
 438 1388 438 1388 518 1397 c 1,48,-1
 518 1556 l 1,49,-1
 621 1556 l 1,50,-1
 621 1401 l 1,0,1
813 399 m 0,51,52
 813 440 813 440 803 472.5 c 128,-1,53
 793 505 793 505 770 533 c 128,-1,54
 747 561 747 561 710.5 585 c 128,-1,55
 674 609 674 609 621 633 c 1,56,-1
 621 178 l 1,57,58
 713 194 713 194 763 252.5 c 128,-1,59
 813 311 813 311 813 399 c 0,51,52
354 1090 m 0,60,61
 354 1047 354 1047 364.5 1014.5 c 128,-1,62
 375 982 375 982 396 957 c 128,-1,63
 417 932 417 932 447.5 912 c 128,-1,64
 478 892 478 892 518 874 c 1,65,-1
 518 1303 l 1,66,67
 478 1294 478 1294 447 1274.5 c 128,-1,68
 416 1255 416 1255 395.5 1227.5 c 128,-1,69
 375 1200 375 1200 364.5 1165 c 128,-1,70
 354 1130 354 1130 354 1090 c 0,60,61
EndSplineSet
EndChar
StartChar: percent
Encoding: 37 37 757
Width: 1835
GlyphClass: 2
Flags: W
LayerCount: 2
Fore
SplineSet
764 1030 m 256,0,1
 764 927 764 927 743 843 c 128,-1,2
 722 759 722 759 680 699 c 128,-1,3
 638 639 638 639 575 606 c 128,-1,4
 512 573 512 573 428 573 c 0,5,6
 340 573 340 573 276.5 606 c 128,-1,7
 213 639 213 639 172 699 c 128,-1,8
 131 759 131 759 111.5 843 c 128,-1,9
 92 927 92 927 92 1030 c 256,10,11
 92 1133 92 1133 111.5 1216.5 c 128,-1,12
 131 1300 131 1300 172 1359.5 c 128,-1,13
 213 1419 213 1419 277 1451 c 128,-1,14
 341 1483 341 1483 430 1483 c 0,15,16
 514 1483 514 1483 576.5 1451 c 128,-1,17
 639 1419 639 1419 680.5 1359.5 c 128,-1,18
 722 1300 722 1300 743 1216.5 c 128,-1,19
 764 1133 764 1133 764 1030 c 256,0,1
276 1030 m 0,20,21
 276 942 276 942 284 872.5 c 128,-1,22
 292 803 292 803 310 755 c 128,-1,23
 328 707 328 707 357 682 c 128,-1,24
 386 657 386 657 428 657 c 256,25,26
 470 657 470 657 499 682 c 128,-1,27
 528 707 528 707 545.5 755 c 128,-1,28
 563 803 563 803 570.5 872.5 c 128,-1,29
 578 942 578 942 578 1030 c 0,30,31
 578 1117 578 1117 570.5 1185 c 128,-1,32
 563 1253 563 1253 545.5 1300.5 c 128,-1,33
 528 1348 528 1348 500 1372.5 c 128,-1,34
 472 1397 472 1397 430 1397 c 256,35,36
 388 1397 388 1397 358.5 1372.5 c 128,-1,37
 329 1348 329 1348 310.5 1300.5 c 128,-1,38
 292 1253 292 1253 284 1185 c 128,-1,39
 276 1117 276 1117 276 1030 c 0,20,21
1743 436 m 256,40,41
 1743 333 1743 333 1722 249 c 128,-1,42
 1701 165 1701 165 1659 105 c 128,-1,43
 1617 45 1617 45 1554 12.5 c 128,-1,44
 1491 -20 1491 -20 1407 -20 c 0,45,46
 1319 -20 1319 -20 1255 12.5 c 128,-1,47
 1191 45 1191 45 1150.5 105 c 128,-1,48
 1110 165 1110 165 1090.5 249 c 128,-1,49
 1071 333 1071 333 1071 436 c 256,50,51
 1071 539 1071 539 1090.5 622.5 c 128,-1,52
 1110 706 1110 706 1151 765.5 c 128,-1,53
 1192 825 1192 825 1256 857 c 128,-1,54
 1320 889 1320 889 1409 889 c 0,55,56
 1493 889 1493 889 1555.5 857 c 128,-1,57
 1618 825 1618 825 1659.5 765.5 c 128,-1,58
 1701 706 1701 706 1722 622.5 c 128,-1,59
 1743 539 1743 539 1743 436 c 256,40,41
1255 436 m 0,60,61
 1255 348 1255 348 1263 278.5 c 128,-1,62
 1271 209 1271 209 1289 161 c 128,-1,63
 1307 113 1307 113 1336 88 c 128,-1,64
 1365 63 1365 63 1407 63 c 256,65,66
 1449 63 1449 63 1478 88 c 128,-1,67
 1507 113 1507 113 1524 161 c 128,-1,68
 1541 209 1541 209 1548.5 278.5 c 128,-1,69
 1556 348 1556 348 1556 436 c 0,70,71
 1556 523 1556 523 1548.5 591 c 128,-1,72
 1541 659 1541 659 1524 706.5 c 128,-1,73
 1507 754 1507 754 1479 778.5 c 128,-1,74
 1451 803 1451 803 1409 803 c 256,75,76
 1367 803 1367 803 1337.5 778.5 c 128,-1,77
 1308 754 1308 754 1289.5 706.5 c 128,-1,78
 1271 659 1271 659 1263 591 c 128,-1,79
 1255 523 1255 523 1255 436 c 0,60,61
616 0 m 1,80,-1
 481 0 l 1,81,-1
 1212 1462 l 1,82,-1
 1346 1462 l 1,83,-1
 616 0 l 1,80,-1
EndSplineSet
EndChar
StartChar: ampersand
Encoding: 38 38 758
Width: 1520
GlyphClass: 2
Flags: W
LayerCount: 2
Fore
SplineSet
1174 0 m 1,0,-1
 1004 180 l 1,1,2
 967 138 967 138 922.5 101.5 c 128,-1,3
 878 65 878 65 824 38 c 128,-1,4
 770 11 770 11 704.5 -4.5 c 128,-1,5
 639 -20 639 -20 561 -20 c 0,6,7
 438 -20 438 -20 346.5 11 c 128,-1,8
 255 42 255 42 194.5 98.5 c 128,-1,9
 134 155 134 155 104 234 c 128,-1,10
 74 313 74 313 74 410 c 0,11,12
 74 497 74 497 97.5 561.5 c 128,-1,13
 121 626 121 626 163.5 675 c 128,-1,14
 206 724 206 724 266.5 761 c 128,-1,15
 327 798 327 798 401 829 c 1,16,17
 362 875 362 875 332.5 917.5 c 128,-1,18
 303 960 303 960 283.5 1002 c 128,-1,19
 264 1044 264 1044 254 1088 c 128,-1,20
 244 1132 244 1132 244 1182 c 0,21,22
 244 1250 244 1250 266 1305 c 128,-1,23
 288 1360 288 1360 335 1400 c 128,-1,24
 382 1440 382 1440 455.5 1461.5 c 128,-1,25
 529 1483 529 1483 631 1483 c 0,26,27
 729 1483 729 1483 798 1460 c 128,-1,28
 867 1437 867 1437 910.5 1397 c 128,-1,29
 954 1357 954 1357 973.5 1304 c 128,-1,30
 993 1251 993 1251 993 1192 c 0,31,32
 993 1126 993 1126 974 1075 c 128,-1,33
 955 1024 955 1024 913.5 981 c 128,-1,34
 872 938 872 938 806.5 899.5 c 128,-1,35
 741 861 741 861 647 821 c 1,36,-1
 1020 426 l 1,37,38
 1034 472 1034 472 1043 519.5 c 128,-1,39
 1052 567 1052 567 1057.5 612.5 c 128,-1,40
 1063 658 1063 658 1065 701.5 c 128,-1,41
 1067 745 1067 745 1067 782 c 2,42,-1
 1067 862 l 1,43,-1
 1436 862 l 1,44,-1
 1436 776 l 1,45,-1
 1417 776 l 2,46,47
 1383 776 1383 776 1350 772 c 128,-1,48
 1317 768 1317 768 1288.5 753.5 c 128,-1,49
 1260 739 1260 739 1237.5 711.5 c 128,-1,50
 1215 684 1215 684 1202 637 c 0,51,52
 1184 571 1184 571 1160.5 494 c 128,-1,53
 1137 417 1137 417 1102 340 c 1,54,-1
 1292 137 l 2,55,56
 1307 122 1307 122 1323 112 c 128,-1,57
 1339 102 1339 102 1360.5 96 c 128,-1,58
 1382 90 1382 90 1411.5 88 c 128,-1,59
 1441 86 1441 86 1483 86 c 2,60,-1
 1501 86 l 1,61,-1
 1501 0 l 1,62,-1
 1174 0 l 1,0,-1
580 94 m 0,63,64
 640 94 640 94 691.5 106.5 c 128,-1,65
 743 119 743 119 786 141 c 128,-1,66
 829 163 829 163 865 193.5 c 128,-1,67
 901 224 901 224 930 260 c 1,68,-1
 477 745 l 1,69,70
 430 719 430 719 392.5 687.5 c 128,-1,71
 355 656 355 656 328.5 614.5 c 128,-1,72
 302 573 302 573 288 521 c 128,-1,73
 274 469 274 469 274 403 c 0,74,75
 274 328 274 328 296 270.5 c 128,-1,76
 318 213 318 213 358.5 173.5 c 128,-1,77
 399 134 399 134 455 114 c 128,-1,78
 511 94 511 94 580 94 c 0,63,64
813 1190 m 0,79,80
 813 1231 813 1231 803 1266 c 128,-1,81
 793 1301 793 1301 770.5 1326.5 c 128,-1,82
 748 1352 748 1352 711.5 1367 c 128,-1,83
 675 1382 675 1382 623 1382 c 0,84,85
 532 1382 532 1382 483 1329 c 128,-1,86
 434 1276 434 1276 434 1188 c 0,87,88
 434 1149 434 1149 442 1115 c 128,-1,89
 450 1081 450 1081 467.5 1047.5 c 128,-1,90
 485 1014 485 1014 512 978 c 128,-1,91
 539 942 539 942 578 899 c 1,92,93
 638 925 638 925 682.5 954 c 128,-1,94
 727 983 727 983 756 1017.5 c 128,-1,95
 785 1052 785 1052 799 1094 c 128,-1,96
 813 1136 813 1136 813 1190 c 0,79,80
EndSplineSet
EndChar
StartChar: quotesingle
Encoding: 39 39 759
Width: 451
GlyphClass: 2
Flags: W
LayerCount: 2
Fore
SplineSet
117 1462 m 1,0,-1
 334 1462 l 1,1,-1
 272 981 l 1,2,-1
 178 981 l 1,3,-1
 117 1462 l 1,0,-1
EndSplineSet
EndChar
StartChar: parenleft
Encoding: 40 40 760
Width: 709
GlyphClass: 2
Flags: W
LayerCount: 2
Fore
SplineSet
330 649 m 256,0,1
 330 527 330 527 339.5 408 c 128,-1,2
 349 289 349 289 381 182.5 c 128,-1,3
 413 76 413 76 475.5 -14 c 128,-1,4
 538 -104 538 -104 643 -168 c 1,5,-1
 643 -262 l 1,6,7
 502 -206 502 -206 402 -126 c 128,-1,8
 302 -46 302 -46 238.5 64.5 c 128,-1,9
 175 175 175 175 146 319.5 c 128,-1,10
 117 464 117 464 117 649 c 256,11,12
 117 834 117 834 146 977.5 c 128,-1,13
 175 1121 175 1121 238.5 1231 c 128,-1,14
 302 1341 302 1341 402 1420.5 c 128,-1,15
 502 1500 502 1500 643 1556 c 1,16,-1
 643 1464 l 1,17,18
 538 1400 538 1400 475.5 1310.5 c 128,-1,19
 413 1221 413 1221 381 1115 c 128,-1,20
 349 1009 349 1009 339.5 890 c 128,-1,21
 330 771 330 771 330 649 c 256,0,1
EndSplineSet
EndChar
StartChar: parenright
Encoding: 41 41 761
Width: 709
GlyphClass: 2
Flags: W
LayerCount: 2
Fore
SplineSet
379 649 m 256,0,1
 379 771 379 771 369.5 890 c 128,-1,2
 360 1009 360 1009 327.5 1115 c 128,-1,3
 295 1221 295 1221 233 1310.5 c 128,-1,4
 171 1400 171 1400 66 1464 c 1,5,-1
 66 1556 l 1,6,7
 207 1500 207 1500 307 1420.5 c 128,-1,8
 407 1341 407 1341 470 1231 c 128,-1,9
 533 1121 533 1121 562.5 977.5 c 128,-1,10
 592 834 592 834 592 649 c 256,11,12
 592 464 592 464 562.5 319.5 c 128,-1,13
 533 175 533 175 470 64.5 c 128,-1,14
 407 -46 407 -46 307 -126 c 128,-1,15
 207 -206 207 -206 66 -262 c 1,16,-1
 66 -168 l 1,17,18
 171 -104 171 -104 233 -14 c 128,-1,19
 295 76 295 76 327.5 182.5 c 128,-1,20
 360 289 360 289 369.5 408 c 128,-1,21
 379 527 379 527 379 649 c 256,0,1
EndSplineSet
EndChar
StartChar: asterisk
Encoding: 42 42 762
Width: 1024
GlyphClass: 2
Flags: W
LayerCount: 2
Fore
SplineSet
84 1268 m 1,0,-1
 156 1430 l 1,1,-1
 471 1231 l 1,2,-1
 418 1556 l 1,3,-1
 596 1556 l 1,4,-1
 539 1233 l 1,5,-1
 856 1425 l 1,6,-1
 928 1266 l 1,7,-1
 582 1165 l 1,8,-1
 928 1065 l 1,9,-1
 856 907 l 1,10,-1
 539 1098 l 1,11,-1
 596 774 l 1,12,-1
 418 774 l 1,13,-1
 469 1098 l 1,14,-1
 156 903 l 1,15,-1
 84 1063 l 1,16,-1
 428 1165 l 1,17,-1
 84 1268 l 1,0,-1
EndSplineSet
EndChar
StartChar: plus
Encoding: 43 43 763
Width: 1145
GlyphClass: 2
Flags: W
LayerCount: 2
Fore
SplineSet
633 672 m 1,0,-1
 633 293 l 1,1,-1
 510 293 l 1,2,-1
 510 672 l 1,3,-1
 133 672 l 1,4,-1
 133 793 l 1,5,-1
 510 793 l 1,6,-1
 510 1171 l 1,7,-1
 633 1171 l 1,8,-1
 633 793 l 1,9,-1
 1012 793 l 1,10,-1
 1012 672 l 1,11,-1
 633 672 l 1,0,-1
EndSplineSet
EndChar
StartChar: hyphen
Encoding: 45 45 765
Width: 635
GlyphClass: 2
Flags: W
LayerCount: 2
Fore
SplineSet
51 481 m 1,0,-1
 51 635 l 1,1,-1
 584 635 l 1,2,-1
 584 481 l 1,3,-1
 51 481 l 1,0,-1
EndSplineSet
EndChar
StartChar: period
Encoding: 46 46 766
Width: 586
GlyphClass: 2
Flags: W
LayerCount: 2
Fore
SplineSet
164 125 m 0,0,1
 164 165 164 165 174 191.5 c 128,-1,2
 184 218 184 218 201.5 234 c 128,-1,3
 219 250 219 250 242.5 257 c 128,-1,4
 266 264 266 264 293 264 c 0,5,6
 319 264 319 264 342.5 257 c 128,-1,7
 366 250 366 250 383.5 234 c 128,-1,8
 401 218 401 218 411.5 191.5 c 128,-1,9
 422 165 422 165 422 125 c 0,10,11
 422 86 422 86 411.5 59 c 128,-1,12
 401 32 401 32 383.5 16 c 128,-1,13
 366 0 366 0 342.5 -7 c 128,-1,14
 319 -14 319 -14 293 -14 c 0,15,16
 266 -14 266 -14 242.5 -7 c 128,-1,17
 219 0 219 0 201.5 16 c 128,-1,18
 184 32 184 32 174 59 c 128,-1,19
 164 86 164 86 164 125 c 0,0,1
EndSplineSet
EndChar
StartChar: slash
Encoding: 47 47 767
Width: 590
GlyphClass: 2
Flags: W
LayerCount: 2
Fore
SplineSet
121 -248 m 1,0,-1
 0 -248 l 1,1,-1
 471 1556 l 1,2,-1
 590 1556 l 1,3,-1
 121 -248 l 1,0,-1
EndSplineSet
EndChar
StartChar: zero
Encoding: 48 48 768
Width: 1145
GlyphClass: 2
Flags: W
LayerCount: 2
Fore
SplineSet
1053 733 m 0,0,1
 1053 564 1053 564 1023.5 425 c 128,-1,2
 994 286 994 286 934 187 c 128,-1,3
 874 88 874 88 784 34 c 128,-1,4
 694 -20 694 -20 573 -20 c 0,5,6
 447 -20 447 -20 356 34 c 128,-1,7
 265 88 265 88 206.5 187 c 128,-1,8
 148 286 148 286 120 425.5 c 128,-1,9
 92 565 92 565 92 735 c 256,10,11
 92 905 92 905 120 1043 c 128,-1,12
 148 1181 148 1181 206.5 1279 c 128,-1,13
 265 1377 265 1377 356.5 1430 c 128,-1,14
 448 1483 448 1483 575 1483 c 0,15,16
 695 1483 695 1483 784.5 1430 c 128,-1,17
 874 1377 874 1377 934 1279 c 128,-1,18
 994 1181 994 1181 1023.5 1042.5 c 128,-1,19
 1053 904 1053 904 1053 733 c 0,0,1
305 733 m 256,20,21
 305 581 305 581 319 461.5 c 128,-1,22
 333 342 333 342 364.5 259.5 c 128,-1,23
 396 177 396 177 447.5 133.5 c 128,-1,24
 499 90 499 90 573 90 c 0,25,26
 648 90 648 90 699 133.5 c 128,-1,27
 750 177 750 177 781.5 259.5 c 128,-1,28
 813 342 813 342 826.5 461.5 c 128,-1,29
 840 581 840 581 840 733 c 256,30,31
 840 885 840 885 826.5 1004 c 128,-1,32
 813 1123 813 1123 781.5 1205 c 128,-1,33
 750 1287 750 1287 699.5 1329.5 c 128,-1,34
 649 1372 649 1372 575 1372 c 0,35,36
 500 1372 500 1372 448.5 1329.5 c 128,-1,37
 397 1287 397 1287 365 1205 c 128,-1,38
 333 1123 333 1123 319 1004 c 128,-1,39
 305 885 305 885 305 733 c 256,20,21
EndSplineSet
EndChar
StartChar: one
Encoding: 49 49 769
Width: 1145
GlyphClass: 2
Flags: W
LayerCount: 2
Fore
SplineSet
197 0 m 1,0,-1
 197 86 l 1,1,-1
 334 86 l 2,2,3
 369 86 369 86 399.5 91 c 128,-1,4
 430 96 430 96 452.5 111.5 c 128,-1,5
 475 127 475 127 488.5 156 c 128,-1,6
 502 185 502 185 502 233 c 2,7,-1
 502 1309 l 1,8,9
 463 1261 463 1261 428 1222 c 128,-1,10
 393 1183 393 1183 361 1155 c 128,-1,11
 329 1127 329 1127 298.5 1111.5 c 128,-1,12
 268 1096 268 1096 238 1096 c 0,13,14
 193 1096 193 1096 164 1126.5 c 128,-1,15
 135 1157 135 1157 135 1206 c 1,16,17
 166 1214 166 1214 197.5 1225.5 c 128,-1,18
 229 1237 229 1237 264.5 1255.5 c 128,-1,19
 300 1274 300 1274 341.5 1300.5 c 128,-1,20
 383 1327 383 1327 434 1364 c 2,21,-1
 578 1470 l 1,22,-1
 709 1470 l 1,23,-1
 709 233 l 2,24,25
 709 185 709 185 722 156 c 128,-1,26
 735 127 735 127 758 111.5 c 128,-1,27
 781 96 781 96 811.5 91 c 128,-1,28
 842 86 842 86 877 86 c 2,29,-1
 977 86 l 1,30,-1
 977 0 l 1,31,-1
 197 0 l 1,0,-1
EndSplineSet
EndChar
StartChar: two
Encoding: 50 50 770
Width: 1145
GlyphClass: 2
Flags: W
LayerCount: 2
Fore
SplineSet
944 1141 m 0,0,1
 944 1069 944 1069 921 1001 c 128,-1,2
 898 933 898 933 854 861.5 c 128,-1,3
 810 790 810 790 746.5 713 c 128,-1,4
 683 636 683 636 602 547 c 2,5,-1
 256 164 l 1,6,-1
 729 164 l 2,7,8
 775 164 775 164 805 177 c 128,-1,9
 835 190 835 190 854 211 c 128,-1,10
 873 232 873 232 883.5 259.5 c 128,-1,11
 894 287 894 287 901 317 c 2,12,-1
 909 354 l 1,13,-1
 995 354 l 1,14,-1
 985 0 l 1,15,-1
 104 0 l 1,16,-1
 104 150 l 1,17,-1
 446 545 l 2,18,19
 528 640 528 640 583.5 715 c 128,-1,20
 639 790 639 790 673 856.5 c 128,-1,21
 707 923 707 923 722 986.5 c 128,-1,22
 737 1050 737 1050 737 1120 c 0,23,24
 737 1179 737 1179 724.5 1226.5 c 128,-1,25
 712 1274 712 1274 686.5 1308.5 c 128,-1,26
 661 1343 661 1343 621.5 1361.5 c 128,-1,27
 582 1380 582 1380 528 1380 c 0,28,29
 458 1380 458 1380 414.5 1355 c 128,-1,30
 371 1330 371 1330 346 1288 c 128,-1,31
 321 1246 321 1246 312 1191 c 128,-1,32
 303 1136 303 1136 303 1075 c 1,33,34
 266 1075 266 1075 234 1081 c 128,-1,35
 202 1087 202 1087 178 1102.5 c 128,-1,36
 154 1118 154 1118 140.5 1143.5 c 128,-1,37
 127 1169 127 1169 127 1208 c 0,38,39
 127 1267 127 1267 152.5 1317.5 c 128,-1,40
 178 1368 178 1368 228.5 1405 c 128,-1,41
 279 1442 279 1442 354 1462.5 c 128,-1,42
 429 1483 429 1483 528 1483 c 0,43,44
 625 1483 625 1483 702 1458.5 c 128,-1,45
 779 1434 779 1434 833 1389.5 c 128,-1,46
 887 1345 887 1345 915.5 1282 c 128,-1,47
 944 1219 944 1219 944 1141 c 0,0,1
EndSplineSet
EndChar
StartChar: three
Encoding: 51 51 771
Width: 1145
GlyphClass: 2
Flags: W
LayerCount: 2
Fore
SplineSet
508 90 m 0,0,1
 569 90 569 90 624 107 c 128,-1,2
 679 124 679 124 721 163 c 128,-1,3
 763 202 763 202 788 265 c 128,-1,4
 813 328 813 328 813 420 c 0,5,6
 813 485 813 485 787.5 537.5 c 128,-1,7
 762 590 762 590 714 627 c 128,-1,8
 666 664 666 664 597 684.5 c 128,-1,9
 528 705 528 705 442 705 c 2,10,-1
 377 705 l 1,11,-1
 377 809 l 1,12,-1
 442 809 l 2,13,14
 510 809 510 809 568.5 831.5 c 128,-1,15
 627 854 627 854 670.5 895 c 128,-1,16
 714 936 714 936 739 994.5 c 128,-1,17
 764 1053 764 1053 764 1126 c 0,18,19
 764 1186 764 1186 752 1233 c 128,-1,20
 740 1280 740 1280 713.5 1313 c 128,-1,21
 687 1346 687 1346 645.5 1363 c 128,-1,22
 604 1380 604 1380 545 1380 c 0,23,24
 475 1380 475 1380 431 1355 c 128,-1,25
 387 1330 387 1330 362 1288 c 128,-1,26
 337 1246 337 1246 328 1191 c 128,-1,27
 319 1136 319 1136 319 1075 c 1,28,29
 282 1075 282 1075 250 1081 c 128,-1,30
 218 1087 218 1087 194 1102.5 c 128,-1,31
 170 1118 170 1118 156.5 1143.5 c 128,-1,32
 143 1169 143 1169 143 1208 c 0,33,34
 143 1267 143 1267 168.5 1317.5 c 128,-1,35
 194 1368 194 1368 245 1405 c 128,-1,36
 296 1442 296 1442 371 1462.5 c 128,-1,37
 446 1483 446 1483 545 1483 c 0,38,39
 642 1483 642 1483 721 1461 c 128,-1,40
 800 1439 800 1439 856.5 1397.5 c 128,-1,41
 913 1356 913 1356 944 1295.5 c 128,-1,42
 975 1235 975 1235 975 1157 c 0,43,44
 975 1088 975 1088 950.5 1027 c 128,-1,45
 926 966 926 966 882 916.5 c 128,-1,46
 838 867 838 867 778 832 c 128,-1,47
 718 797 718 797 647 780 c 1,48,49
 685 776 685 776 728 766.5 c 128,-1,50
 771 757 771 757 813 739 c 128,-1,51
 855 721 855 721 893.5 694 c 128,-1,52
 932 667 932 667 961.5 628 c 128,-1,53
 991 589 991 589 1008.5 537.5 c 128,-1,54
 1026 486 1026 486 1026 418 c 0,55,56
 1026 336 1026 336 1004 271 c 128,-1,57
 982 206 982 206 943.5 157.5 c 128,-1,58
 905 109 905 109 854 75 c 128,-1,59
 803 41 803 41 745 20 c 128,-1,60
 687 -1 687 -1 626 -10.5 c 128,-1,61
 565 -20 565 -20 506 -20 c 0,62,63
 405 -20 405 -20 332 -1.5 c 128,-1,64
 259 17 259 17 211.5 48 c 128,-1,65
 164 79 164 79 141.5 120.5 c 128,-1,66
 119 162 119 162 119 207 c 0,67,68
 119 269 119 269 154 303.5 c 128,-1,69
 189 338 189 338 248 338 c 1,70,71
 248 284 248 284 265.5 238.5 c 128,-1,72
 283 193 283 193 316 160 c 128,-1,73
 349 127 349 127 397.5 108.5 c 128,-1,74
 446 90 446 90 508 90 c 0,0,1
EndSplineSet
EndChar
StartChar: four
Encoding: 52 52 772
Width: 1145
GlyphClass: 2
Flags: W
LayerCount: 2
Fore
SplineSet
862 401 m 1,0,-1
 862 233 l 2,1,2
 862 185 862 185 875.5 156 c 128,-1,3
 889 127 889 127 911.5 111.5 c 128,-1,4
 934 96 934 96 965 91 c 128,-1,5
 996 86 996 86 1030 86 c 2,6,-1
 1057 86 l 1,7,-1
 1057 0 l 1,8,-1
 440 0 l 1,9,-1
 440 86 l 1,10,-1
 498 86 l 2,11,12
 533 86 533 86 563.5 91 c 128,-1,13
 594 96 594 96 616.5 111.5 c 128,-1,14
 639 127 639 127 652.5 156 c 128,-1,15
 666 185 666 185 666 233 c 2,16,-1
 666 401 l 1,17,-1
 35 401 l 1,18,-1
 35 485 l 1,19,-1
 668 1462 l 1,20,-1
 862 1462 l 1,21,-1
 862 516 l 1,22,-1
 1116 516 l 1,23,-1
 1116 401 l 1,24,-1
 862 401 l 1,0,-1
666 895 m 2,25,26
 666 940 666 940 667 994 c 128,-1,27
 668 1048 668 1048 669.5 1104 c 128,-1,28
 671 1160 671 1160 673.5 1215.5 c 128,-1,29
 676 1271 676 1271 680 1319 c 1,30,31
 673 1305 673 1305 660 1281.5 c 128,-1,32
 647 1258 647 1258 630.5 1229 c 128,-1,33
 614 1200 614 1200 595.5 1168 c 128,-1,34
 577 1136 577 1136 558.5 1105.5 c 128,-1,35
 540 1075 540 1075 524 1048.5 c 128,-1,36
 508 1022 508 1022 496 1004 c 2,37,-1
 182 516 l 1,38,-1
 666 516 l 1,39,-1
 666 895 l 2,25,26
EndSplineSet
EndChar
StartChar: five
Encoding: 53 53 773
Width: 1145
GlyphClass: 2
Flags: W
LayerCount: 2
Fore
SplineSet
489 100 m 0,0,1
 552 100 552 100 605.5 117.5 c 128,-1,2
 659 135 659 135 698.5 175.5 c 128,-1,3
 738 216 738 216 760 282.5 c 128,-1,4
 782 349 782 349 782 446 c 0,5,6
 782 527 782 527 760 587 c 128,-1,7
 738 647 738 647 697 687 c 128,-1,8
 656 727 656 727 599 746.5 c 128,-1,9
 542 766 542 766 471 766 c 0,10,11
 418 766 418 766 379.5 762 c 128,-1,12
 341 758 341 758 311.5 751.5 c 128,-1,13
 282 745 282 745 260 737 c 128,-1,14
 238 729 238 729 219 721 c 1,15,-1
 170 735 l 1,16,-1
 236 1460 l 1,17,-1
 920 1460 l 1,18,-1
 930 1151 l 1,19,-1
 844 1151 l 1,20,-1
 836 1212 l 2,21,22
 833 1234 833 1234 827.5 1249.5 c 128,-1,23
 822 1265 822 1265 810 1275.5 c 128,-1,24
 798 1286 798 1286 777.5 1291 c 128,-1,25
 757 1296 757 1296 725 1296 c 2,26,-1
 328 1296 l 1,27,-1
 289 846 l 1,28,29
 320 857 320 857 378.5 868 c 128,-1,30
 437 879 437 879 528 879 c 0,31,32
 627 879 627 879 712.5 852 c 128,-1,33
 798 825 798 825 861 771 c 128,-1,34
 924 717 924 717 959.5 635.5 c 128,-1,35
 995 554 995 554 995 446 c 0,36,37
 995 342 995 342 961.5 256 c 128,-1,38
 928 170 928 170 864.5 108.5 c 128,-1,39
 801 47 801 47 709 13.5 c 128,-1,40
 617 -20 617 -20 500 -20 c 0,41,42
 386 -20 386 -20 311.5 -0.5 c 128,-1,43
 237 19 237 19 193 49 c 128,-1,44
 149 79 149 79 131 115.5 c 128,-1,45
 113 152 113 152 113 186 c 0,46,47
 113 243 113 243 144.5 275 c 128,-1,48
 176 307 176 307 242 307 c 1,49,50
 242 263 242 263 257.5 225 c 128,-1,51
 273 187 273 187 303.5 159.5 c 128,-1,52
 334 132 334 132 380.5 116 c 128,-1,53
 427 100 427 100 489 100 c 0,0,1
EndSplineSet
EndChar
StartChar: six
Encoding: 54 54 774
Width: 1145
GlyphClass: 2
Flags: W
LayerCount: 2
Fore
SplineSet
659 1384 m 0,0,1
 505 1384 505 1384 426 1232.5 c 128,-1,2
 347 1081 347 1081 336 782 c 1,3,4
 361 803 361 803 391.5 822.5 c 128,-1,5
 422 842 422 842 458 856.5 c 128,-1,6
 494 871 494 871 536.5 880 c 128,-1,7
 579 889 579 889 629 889 c 0,8,9
 723 889 723 889 799 860 c 128,-1,10
 875 831 875 831 928.5 777 c 128,-1,11
 982 723 982 723 1011 645 c 128,-1,12
 1040 567 1040 567 1040 469 c 0,13,14
 1040 361 1040 361 1010.5 271 c 128,-1,15
 981 181 981 181 924.5 116.5 c 128,-1,16
 868 52 868 52 786.5 16 c 128,-1,17
 705 -20 705 -20 600 -20 c 0,18,19
 498 -20 498 -20 411 22.5 c 128,-1,20
 324 65 324 65 260.5 156.5 c 128,-1,21
 197 248 197 248 161 391.5 c 128,-1,22
 125 535 125 535 125 737 c 0,23,24
 125 834 125 834 139.5 927 c 128,-1,25
 154 1020 154 1020 183 1103 c 128,-1,26
 212 1186 212 1186 256 1256 c 128,-1,27
 300 1326 300 1326 359.5 1376.5 c 128,-1,28
 419 1427 419 1427 494 1455 c 128,-1,29
 569 1483 569 1483 659 1483 c 0,30,31
 745 1483 745 1483 808.5 1465 c 128,-1,32
 872 1447 872 1447 914 1417 c 128,-1,33
 956 1387 956 1387 976.5 1348 c 128,-1,34
 997 1309 997 1309 997 1268 c 0,35,36
 997 1209 997 1209 957 1177 c 128,-1,37
 917 1145 917 1145 840 1145 c 1,38,39
 840 1195 840 1195 830.5 1238.5 c 128,-1,40
 821 1282 821 1282 799 1314.5 c 128,-1,41
 777 1347 777 1347 743 1365.5 c 128,-1,42
 709 1384 709 1384 659 1384 c 0,0,1
588 784 m 0,43,44
 548 784 548 784 511 773.5 c 128,-1,45
 474 763 474 763 441.5 746.5 c 128,-1,46
 409 730 409 730 382 708.5 c 128,-1,47
 355 687 355 687 334 666 c 1,48,49
 336 512 336 512 355.5 403 c 128,-1,50
 375 294 375 294 410 225 c 128,-1,51
 445 156 445 156 495 124 c 128,-1,52
 545 92 545 92 606 92 c 0,53,54
 716 92 716 92 773.5 177.5 c 128,-1,55
 831 263 831 263 831 449 c 0,56,57
 831 624 831 624 768.5 704 c 128,-1,58
 706 784 706 784 588 784 c 0,43,44
EndSplineSet
EndChar
StartChar: seven
Encoding: 55 55 775
Width: 1145
GlyphClass: 2
Flags: W
LayerCount: 2
Fore
SplineSet
389 0 m 1,0,-1
 872 1296 l 1,1,-1
 334 1296 l 2,2,3
 224 1296 224 1296 215 1192 c 2,4,-1
 207 1090 l 1,5,-1
 121 1090 l 1,6,-1
 131 1460 l 1,7,-1
 1047 1460 l 1,8,-1
 1047 1401 l 1,9,-1
 543 0 l 1,10,-1
 389 0 l 1,0,-1
EndSplineSet
EndChar
StartChar: eight
Encoding: 56 56 776
Width: 1145
GlyphClass: 2
Flags: W
LayerCount: 2
Fore
SplineSet
94 367 m 0,0,1
 94 441 94 441 117.5 496.5 c 128,-1,2
 141 552 141 552 183 595.5 c 128,-1,3
 225 639 225 639 282 674 c 128,-1,4
 339 709 339 709 406 741 c 1,5,6
 348 774 348 774 299 812.5 c 128,-1,7
 250 851 250 851 215 897 c 128,-1,8
 180 943 180 943 160.5 997.5 c 128,-1,9
 141 1052 141 1052 141 1116 c 0,10,11
 141 1187 141 1187 166 1253 c 128,-1,12
 191 1319 191 1319 244 1370 c 128,-1,13
 297 1421 297 1421 381.5 1452 c 128,-1,14
 466 1483 466 1483 584 1483 c 0,15,16
 680 1483 680 1483 755 1456.5 c 128,-1,17
 830 1430 830 1430 881.5 1383 c 128,-1,18
 933 1336 933 1336 960 1271.5 c 128,-1,19
 987 1207 987 1207 987 1130 c 0,20,21
 987 1063 987 1063 967 1012 c 128,-1,22
 947 961 947 961 911 920.5 c 128,-1,23
 875 880 875 880 824 847.5 c 128,-1,24
 773 815 773 815 711 784 c 1,25,26
 787 748 787 748 849.5 707 c 128,-1,27
 912 666 912 666 957 618 c 128,-1,28
 1002 570 1002 570 1026.5 514 c 128,-1,29
 1051 458 1051 458 1051 391 c 0,30,31
 1051 294 1051 294 1016 217.5 c 128,-1,32
 981 141 981 141 917 88 c 128,-1,33
 853 35 853 35 762 7.5 c 128,-1,34
 671 -20 671 -20 559 -20 c 0,35,36
 444 -20 444 -20 357 10 c 128,-1,37
 270 40 270 40 211.5 92.5 c 128,-1,38
 153 145 153 145 123.5 215.5 c 128,-1,39
 94 286 94 286 94 367 c 0,0,1
569 74 m 0,40,41
 636 74 636 74 690.5 94.5 c 128,-1,42
 745 115 745 115 783.5 151 c 128,-1,43
 822 187 822 187 843 237 c 128,-1,44
 864 287 864 287 864 346 c 0,45,46
 864 398 864 398 845 442.5 c 128,-1,47
 826 487 826 487 783 528.5 c 128,-1,48
 740 570 740 570 671.5 609.5 c 128,-1,49
 603 649 603 649 504 692 c 1,50,51
 407 640 407 640 350 557 c 128,-1,52
 293 474 293 474 293 358 c 0,53,54
 293 294 293 294 310.5 242 c 128,-1,55
 328 190 328 190 362.5 152.5 c 128,-1,56
 397 115 397 115 449 94.5 c 128,-1,57
 501 74 501 74 569 74 c 0,40,41
805 1135 m 0,58,59
 805 1182 805 1182 792.5 1227 c 128,-1,60
 780 1272 780 1272 752.5 1307.5 c 128,-1,61
 725 1343 725 1343 680.5 1364.5 c 128,-1,62
 636 1386 636 1386 571 1386 c 0,63,64
 514 1386 514 1386 469.5 1367.5 c 128,-1,65
 425 1349 425 1349 395 1316.5 c 128,-1,66
 365 1284 365 1284 349.5 1239 c 128,-1,67
 334 1194 334 1194 334 1141 c 0,68,69
 334 1086 334 1086 351.5 1042 c 128,-1,70
 369 998 369 998 403.5 962 c 128,-1,71
 438 926 438 926 490 894.5 c 128,-1,72
 542 863 542 863 610 831 c 1,73,74
 668 860 668 860 705.5 890.5 c 128,-1,75
 743 921 743 921 765 957.5 c 128,-1,76
 787 994 787 994 796 1037.5 c 128,-1,77
 805 1081 805 1081 805 1135 c 0,58,59
EndSplineSet
EndChar
StartChar: nine
Encoding: 57 57 777
Width: 1145
GlyphClass: 2
Flags: W
LayerCount: 2
Fore
SplineSet
467 90 m 0,0,1
 637 90 637 90 718 242 c 128,-1,2
 799 394 799 394 809 702 c 1,3,4
 787 675 787 675 757.5 650 c 128,-1,5
 728 625 728 625 690.5 605.5 c 128,-1,6
 653 586 653 586 607.5 574.5 c 128,-1,7
 562 563 562 563 508 563 c 0,8,9
 419 563 419 563 344.5 589 c 128,-1,10
 270 615 270 615 216.5 667 c 128,-1,11
 163 719 163 719 133.5 797 c 128,-1,12
 104 875 104 875 104 979 c 0,13,14
 104 1090 104 1090 134 1182.5 c 128,-1,15
 164 1275 164 1275 220.5 1341.5 c 128,-1,16
 277 1408 277 1408 358.5 1445.5 c 128,-1,17
 440 1483 440 1483 543 1483 c 0,18,19
 647 1483 647 1483 734 1443 c 128,-1,20
 821 1403 821 1403 885 1319 c 128,-1,21
 949 1235 949 1235 984.5 1105 c 128,-1,22
 1020 975 1020 975 1020 795 c 0,23,24
 1020 688 1020 688 1006.5 585.5 c 128,-1,25
 993 483 993 483 964.5 392 c 128,-1,26
 936 301 936 301 891.5 225 c 128,-1,27
 847 149 847 149 785.5 93.5 c 128,-1,28
 724 38 724 38 644 7.5 c 128,-1,29
 564 -23 564 -23 465 -23 c 0,30,31
 378 -23 378 -23 320.5 -7.5 c 128,-1,32
 263 8 263 8 229.5 33 c 128,-1,33
 196 58 196 58 182 90 c 128,-1,34
 168 122 168 122 168 154 c 0,35,36
 168 192 168 192 187 218 c 128,-1,37
 206 244 206 244 229 252 c 1,38,39
 243 220 243 220 263.5 190.5 c 128,-1,40
 284 161 284 161 313.5 138.5 c 128,-1,41
 343 116 343 116 381 103 c 128,-1,42
 419 90 419 90 467 90 c 0,0,1
553 684 m 1,43,44
 603 685 603 685 644.5 698.5 c 128,-1,45
 686 712 686 712 718 734.5 c 128,-1,46
 750 757 750 757 773.5 787 c 128,-1,47
 797 817 797 817 811 850 c 1,48,-1
 811 854 l 1,49,50
 809 989 809 989 789 1086.5 c 128,-1,51
 769 1184 769 1184 734 1247 c 128,-1,52
 699 1310 699 1310 650.5 1340 c 128,-1,53
 602 1370 602 1370 543 1370 c 0,54,55
 434 1370 434 1370 374.5 1275 c 128,-1,56
 315 1180 315 1180 315 999 c 0,57,58
 315 915 315 915 330 855 c 128,-1,59
 345 795 345 795 375 757 c 128,-1,60
 405 719 405 719 449.5 701.5 c 128,-1,61
 494 684 494 684 553 684 c 1,43,44
EndSplineSet
EndChar
StartChar: colon
Encoding: 58 58 778
Width: 588
GlyphClass: 2
Flags: W
LayerCount: 2
Fore
SplineSet
166 125 m 0,0,1
 166 165 166 165 176 191.5 c 128,-1,2
 186 218 186 218 203.5 234 c 128,-1,3
 221 250 221 250 244.5 257 c 128,-1,4
 268 264 268 264 295 264 c 0,5,6
 321 264 321 264 344.5 257 c 128,-1,7
 368 250 368 250 385.5 234 c 128,-1,8
 403 218 403 218 413.5 191.5 c 128,-1,9
 424 165 424 165 424 125 c 0,10,11
 424 86 424 86 413.5 59 c 128,-1,12
 403 32 403 32 385.5 16 c 128,-1,13
 368 0 368 0 344.5 -7 c 128,-1,14
 321 -14 321 -14 295 -14 c 0,15,16
 268 -14 268 -14 244.5 -7 c 128,-1,17
 221 0 221 0 203.5 16 c 128,-1,18
 186 32 186 32 176 59 c 128,-1,19
 166 86 166 86 166 125 c 0,0,1
166 969 m 0,20,21
 166 1009 166 1009 176 1035.5 c 128,-1,22
 186 1062 186 1062 203.5 1078 c 128,-1,23
 221 1094 221 1094 244.5 1101 c 128,-1,24
 268 1108 268 1108 295 1108 c 0,25,26
 321 1108 321 1108 344.5 1101 c 128,-1,27
 368 1094 368 1094 385.5 1078 c 128,-1,28
 403 1062 403 1062 413.5 1035.5 c 128,-1,29
 424 1009 424 1009 424 969 c 0,30,31
 424 930 424 930 413.5 903 c 128,-1,32
 403 876 403 876 385.5 859.5 c 128,-1,33
 368 843 368 843 344.5 836 c 128,-1,34
 321 829 321 829 295 829 c 0,35,36
 268 829 268 829 244.5 836 c 128,-1,37
 221 843 221 843 203.5 859.5 c 128,-1,38
 186 876 186 876 176 903 c 128,-1,39
 166 930 166 930 166 969 c 0,20,21
EndSplineSet
EndChar
StartChar: semicolon
Encoding: 59 59 779
Width: 512
GlyphClass: 2
Flags: W
LayerCount: 2
Fore
SplineSet
397 86 m 0,0,1
 397 21 397 21 379 -40 c 128,-1,2
 361 -101 361 -101 320.5 -153 c 128,-1,3
 280 -205 280 -205 216.5 -246.5 c 128,-1,4
 153 -288 153 -288 61 -315 c 1,5,-1
 61 -229 l 1,6,7
 162 -197 162 -197 209 -151 c 128,-1,8
 256 -105 256 -105 256 -45 c 0,9,10
 256 -25 256 -25 245 -11.5 c 128,-1,11
 234 2 234 2 217 12.5 c 128,-1,12
 200 23 200 23 181 33 c 128,-1,13
 162 43 162 43 145 57 c 128,-1,14
 128 71 128 71 117 91.5 c 128,-1,15
 106 112 106 112 106 143 c 0,16,17
 106 202 106 202 144.5 233 c 128,-1,18
 183 264 183 264 240 264 c 0,19,20
 272 264 272 264 300 252.5 c 128,-1,21
 328 241 328 241 350 218.5 c 128,-1,22
 372 196 372 196 384.5 162.5 c 128,-1,23
 397 129 397 129 397 86 c 0,0,1
129 969 m 0,24,25
 129 1009 129 1009 139 1035.5 c 128,-1,26
 149 1062 149 1062 166.5 1078 c 128,-1,27
 184 1094 184 1094 207.5 1101 c 128,-1,28
 231 1108 231 1108 258 1108 c 0,29,30
 284 1108 284 1108 307.5 1101 c 128,-1,31
 331 1094 331 1094 348.5 1078 c 128,-1,32
 366 1062 366 1062 376.5 1035.5 c 128,-1,33
 387 1009 387 1009 387 969 c 0,34,35
 387 930 387 930 376.5 903 c 128,-1,36
 366 876 366 876 348.5 859.5 c 128,-1,37
 331 843 331 843 307.5 836 c 128,-1,38
 284 829 284 829 258 829 c 0,39,40
 231 829 231 829 207.5 836 c 128,-1,41
 184 843 184 843 166.5 859.5 c 128,-1,42
 149 876 149 876 139 903 c 128,-1,43
 129 930 129 930 129 969 c 0,24,25
EndSplineSet
EndChar
StartChar: less
Encoding: 60 60 780
Width: 1145
GlyphClass: 2
Flags: W
LayerCount: 2
Fore
SplineSet
133 696 m 1,0,-1
 133 768 l 1,1,-1
 1012 1241 l 1,2,-1
 1012 1104 l 1,3,-1
 324 731 l 1,4,-1
 1012 362 l 1,5,-1
 1012 225 l 1,6,-1
 133 696 l 1,0,-1
EndSplineSet
EndChar
StartChar: equal
Encoding: 61 61 781
Width: 1145
GlyphClass: 2
Flags: W
LayerCount: 2
Fore
SplineSet
1012 590 m 1,0,-1
 1012 469 l 1,1,-1
 133 469 l 1,2,-1
 133 590 l 1,3,-1
 1012 590 l 1,0,-1
1012 993 m 1,4,-1
 1012 872 l 1,5,-1
 133 872 l 1,6,-1
 133 993 l 1,7,-1
 1012 993 l 1,4,-1
EndSplineSet
EndChar
StartChar: greater
Encoding: 62 62 782
Width: 1145
GlyphClass: 2
Flags: W
LayerCount: 2
Fore
SplineSet
133 225 m 1,0,-1
 133 362 l 1,1,-1
 821 731 l 1,2,-1
 133 1104 l 1,3,-1
 133 1241 l 1,4,-1
 1012 768 l 1,5,-1
 1012 696 l 1,6,-1
 133 225 l 1,0,-1
EndSplineSet
EndChar
StartChar: question
Encoding: 63 63 783
Width: 1024
GlyphClass: 2
Flags: W
LayerCount: 2
Fore
SplineSet
522 412 m 1,0,-1
 397 412 l 1,1,-1
 397 723 l 1,2,3
 486 759 486 759 546.5 806.5 c 128,-1,4
 607 854 607 854 643.5 909.5 c 128,-1,5
 680 965 680 965 695.5 1025.5 c 128,-1,6
 711 1086 711 1086 711 1147 c 0,7,8
 711 1200 711 1200 698 1243.5 c 128,-1,9
 685 1287 685 1287 658 1317.5 c 128,-1,10
 631 1348 631 1348 588.5 1365 c 128,-1,11
 546 1382 546 1382 487 1382 c 0,12,13
 423 1382 423 1382 379.5 1361 c 128,-1,14
 336 1340 336 1340 309 1304 c 128,-1,15
 282 1268 282 1268 270 1220.5 c 128,-1,16
 258 1173 258 1173 258 1120 c 1,17,18
 221 1120 221 1120 190 1128.5 c 128,-1,19
 159 1137 159 1137 136.5 1153.5 c 128,-1,20
 114 1170 114 1170 101 1195 c 128,-1,21
 88 1220 88 1220 88 1253 c 0,22,23
 88 1302 88 1302 110.5 1344 c 128,-1,24
 133 1386 133 1386 180.5 1417 c 128,-1,25
 228 1448 228 1448 300 1465.5 c 128,-1,26
 372 1483 372 1483 471 1483 c 0,27,28
 568 1483 568 1483 650 1458 c 128,-1,29
 732 1433 732 1433 792 1385.5 c 128,-1,30
 852 1338 852 1338 886 1269 c 128,-1,31
 920 1200 920 1200 920 1112 c 0,32,33
 920 1028 920 1028 893.5 959 c 128,-1,34
 867 890 867 890 816 833 c 128,-1,35
 765 776 765 776 691 729 c 128,-1,36
 617 682 617 682 522 643 c 1,37,-1
 522 412 l 1,0,-1
328 125 m 0,38,39
 328 165 328 165 338 191.5 c 128,-1,40
 348 218 348 218 365.5 234 c 128,-1,41
 383 250 383 250 406.5 257 c 128,-1,42
 430 264 430 264 457 264 c 0,43,44
 483 264 483 264 506.5 257 c 128,-1,45
 530 250 530 250 547.5 234 c 128,-1,46
 565 218 565 218 575.5 191.5 c 128,-1,47
 586 165 586 165 586 125 c 0,48,49
 586 86 586 86 575.5 59 c 128,-1,50
 565 32 565 32 547.5 16 c 128,-1,51
 530 0 530 0 506.5 -7 c 128,-1,52
 483 -14 483 -14 457 -14 c 0,53,54
 430 -14 430 -14 406.5 -7 c 128,-1,55
 383 0 383 0 365.5 16 c 128,-1,56
 348 32 348 32 338 59 c 128,-1,57
 328 86 328 86 328 125 c 0,38,39
EndSplineSet
EndChar
StartChar: at
Encoding: 64 64 784
Width: 1886
GlyphClass: 2
Flags: W
LayerCount: 2
Fore
SplineSet
1778 803 m 0,0,1
 1778 655 1778 655 1742 535.5 c 128,-1,2
 1706 416 1706 416 1648 332 c 128,-1,3
 1590 248 1590 248 1518.5 203 c 128,-1,4
 1447 158 1447 158 1376 158 c 0,5,6
 1285 158 1285 158 1224.5 207 c 128,-1,7
 1164 256 1164 256 1135 344 c 1,8,-1
 1124 344 l 1,9,10
 1103 304 1103 304 1076.5 270 c 128,-1,11
 1050 236 1050 236 1016.5 211 c 128,-1,12
 983 186 983 186 941.5 172 c 128,-1,13
 900 158 900 158 848 158 c 0,14,15
 786 158 786 158 729.5 179 c 128,-1,16
 673 200 673 200 630.5 243 c 128,-1,17
 588 286 588 286 562.5 352 c 128,-1,18
 537 418 537 418 537 508 c 0,19,20
 537 563 537 563 549.5 627 c 128,-1,21
 562 691 562 691 588.5 754.5 c 128,-1,22
 615 818 615 818 656.5 877.5 c 128,-1,23
 698 937 698 937 756 982.5 c 128,-1,24
 814 1028 814 1028 889.5 1055.5 c 128,-1,25
 965 1083 965 1083 1059 1083 c 0,26,27
 1125 1083 1125 1083 1172.5 1065 c 128,-1,28
 1220 1047 1220 1047 1251 1022 c 1,29,-1
 1333 1065 l 1,30,-1
 1382 1065 l 1,31,-1
 1278 543 l 1,32,33
 1275 519 1275 519 1271 495 c 0,34,35
 1268 475 1268 475 1266 451 c 128,-1,36
 1264 427 1264 427 1264 406 c 0,37,38
 1264 370 1264 370 1274.5 343.5 c 128,-1,39
 1285 317 1285 317 1302 299.5 c 128,-1,40
 1319 282 1319 282 1341.5 274 c 128,-1,41
 1364 266 1364 266 1389 266 c 0,42,43
 1434 266 1434 266 1481 302 c 128,-1,44
 1528 338 1528 338 1566 407.5 c 128,-1,45
 1604 477 1604 477 1628.5 578 c 128,-1,46
 1653 679 1653 679 1653 809 c 0,47,48
 1653 943 1653 943 1610 1045.5 c 128,-1,49
 1567 1148 1567 1148 1490.5 1217.5 c 128,-1,50
 1414 1287 1414 1287 1307.5 1322.5 c 128,-1,51
 1201 1358 1201 1358 1073 1358 c 0,52,53
 973 1358 973 1358 876.5 1330 c 128,-1,54
 780 1302 780 1302 694 1247.5 c 128,-1,55
 608 1193 608 1193 534.5 1114.5 c 128,-1,56
 461 1036 461 1036 408 935.5 c 128,-1,57
 355 835 355 835 325 713 c 128,-1,58
 295 591 295 591 295 451 c 0,59,60
 295 280 295 280 344 159.5 c 128,-1,61
 393 39 393 39 476.5 -37.5 c 128,-1,62
 560 -114 560 -114 670.5 -149 c 128,-1,63
 781 -184 781 -184 905 -184 c 0,64,65
 989 -184 989 -184 1064 -169.5 c 128,-1,66
 1139 -155 1139 -155 1204.5 -131 c 128,-1,67
 1270 -107 1270 -107 1325.5 -76.5 c 128,-1,68
 1381 -46 1381 -46 1425 -14 c 1,69,-1
 1473 -88 l 1,70,71
 1422 -126 1422 -126 1359 -162.5 c 128,-1,72
 1296 -199 1296 -199 1222.5 -227.5 c 128,-1,73
 1149 -256 1149 -256 1064.5 -273.5 c 128,-1,74
 980 -291 980 -291 885 -291 c 0,75,76
 720 -291 720 -291 582 -245.5 c 128,-1,77
 444 -200 444 -200 344.5 -108 c 128,-1,78
 245 -16 245 -16 189 122 c 128,-1,79
 133 260 133 260 133 446 c 0,80,81
 133 591 133 591 164.5 722.5 c 128,-1,82
 196 854 196 854 255.5 967 c 128,-1,83
 315 1080 315 1080 399.5 1171.5 c 128,-1,84
 484 1263 484 1263 590 1327.5 c 128,-1,85
 696 1392 696 1392 820.5 1427 c 128,-1,86
 945 1462 945 1462 1085 1462 c 0,87,88
 1257 1462 1257 1462 1387 1411 c 128,-1,89
 1517 1360 1517 1360 1604 1271.5 c 128,-1,90
 1691 1183 1691 1183 1734.5 1062.5 c 128,-1,91
 1778 942 1778 942 1778 803 c 0,0,1
727 479 m 0,92,93
 727 371 727 371 770.5 318.5 c 128,-1,94
 814 266 814 266 883 266 c 0,95,96
 935 266 935 266 973 288.5 c 128,-1,97
 1011 311 1011 311 1037 347 c 128,-1,98
 1063 383 1063 383 1079 429 c 128,-1,99
 1095 475 1095 475 1104 522 c 2,100,-1
 1182 938 l 1,101,102
 1169 967 1169 967 1136.5 983 c 128,-1,103
 1104 999 1104 999 1067 999 c 0,104,105
 1006 999 1006 999 956.5 972.5 c 128,-1,106
 907 946 907 946 869.5 903 c 128,-1,107
 832 860 832 860 805 804.5 c 128,-1,108
 778 749 778 749 760.5 691 c 128,-1,109
 743 633 743 633 735 578 c 128,-1,110
 727 523 727 523 727 479 c 0,92,93
EndSplineSet
EndChar
StartChar: A
Encoding: 65 65 785
Width: 1444
GlyphClass: 2
Flags: W
LayerCount: 2
Fore
SplineSet
414 489 m 1,0,-1
 336 274 l 2,1,2
 327 250 327 250 322 226.5 c 128,-1,3
 317 203 317 203 317 186 c 0,4,5
 317 134 317 134 350.5 110 c 128,-1,6
 384 86 384 86 453 86 c 2,7,-1
 500 86 l 1,8,-1
 500 0 l 1,9,-1
 0 0 l 1,10,-1
 0 86 l 1,11,-1
 39 86 l 2,12,13
 69 86 69 86 90 92.5 c 128,-1,14
 111 99 111 99 128 117 c 128,-1,15
 145 135 145 135 160.5 166 c 128,-1,16
 176 197 176 197 195 246 c 2,17,-1
 649 1462 l 1,18,-1
 809 1462 l 1,19,-1
 1272 195 l 2,20,21
 1284 163 1284 163 1296.5 142 c 128,-1,22
 1309 121 1309 121 1326 108.5 c 128,-1,23
 1343 96 1343 96 1365 91 c 128,-1,24
 1387 86 1387 86 1417 86 c 2,25,-1
 1444 86 l 1,26,-1
 1444 0 l 1,27,-1
 881 0 l 1,28,-1
 881 86 l 1,29,-1
 928 86 l 2,30,31
 1051 86 1051 86 1051 184 c 0,32,33
 1051 201 1051 201 1046.5 219 c 128,-1,34
 1042 237 1042 237 1034 260 c 2,35,-1
 952 489 l 1,36,-1
 414 489 l 1,0,-1
788 950 m 2,37,38
 756 1041 756 1041 729.5 1120.5 c 128,-1,39
 703 1200 703 1200 686 1274 c 1,40,41
 679 1237 679 1237 669.5 1202.5 c 128,-1,42
 660 1168 660 1168 649 1132 c 128,-1,43
 638 1096 638 1096 624 1056.5 c 128,-1,44
 610 1017 610 1017 592 969 c 2,45,-1
 453 592 l 1,46,-1
 915 592 l 1,47,-1
 788 950 l 2,37,38
EndSplineSet
EndChar
StartChar: B
Encoding: 66 66 786
Width: 1339
GlyphClass: 2
Flags: W
LayerCount: 2
Fore
SplineSet
1153 1096 m 0,0,1
 1153 1027 1153 1027 1133.5 975 c 128,-1,2
 1114 923 1114 923 1080 884 c 128,-1,3
 1046 845 1046 845 999.5 818.5 c 128,-1,4
 953 792 953 792 899 774 c 1,5,-1
 899 766 l 1,6,7
 969 754 969 754 1027 725 c 128,-1,8
 1085 696 1085 696 1126.5 649.5 c 128,-1,9
 1168 603 1168 603 1191 539.5 c 128,-1,10
 1214 476 1214 476 1214 395 c 0,11,12
 1214 197 1214 197 1084 98.5 c 128,-1,13
 954 0 954 0 688 0 c 2,14,-1
 78 0 l 1,15,-1
 78 86 l 1,16,-1
 104 86 l 2,17,18
 139 86 139 86 169.5 91 c 128,-1,19
 200 96 200 96 223 111.5 c 128,-1,20
 246 127 246 127 259 156 c 128,-1,21
 272 185 272 185 272 233 c 2,22,-1
 272 1237 l 2,23,24
 272 1282 272 1282 258.5 1309.5 c 128,-1,25
 245 1337 245 1337 222 1352 c 128,-1,26
 199 1367 199 1367 168.5 1371.5 c 128,-1,27
 138 1376 138 1376 104 1376 c 2,28,-1
 78 1376 l 1,29,-1
 78 1462 l 1,30,-1
 627 1462 l 2,31,32
 893 1462 893 1462 1023 1373.5 c 128,-1,33
 1153 1285 1153 1285 1153 1096 c 0,0,1
479 102 m 1,34,-1
 678 102 l 2,35,36
 765 102 765 102 825 118 c 128,-1,37
 885 134 885 134 923 169.5 c 128,-1,38
 961 205 961 205 978 262 c 128,-1,39
 995 319 995 319 995 401 c 0,40,41
 995 481 995 481 980 540 c 128,-1,42
 965 599 965 599 928.5 638 c 128,-1,43
 892 677 892 677 832 696 c 128,-1,44
 772 715 772 715 682 715 c 2,45,-1
 479 715 l 1,46,-1
 479 102 l 1,34,-1
479 817 m 1,47,-1
 621 817 l 2,48,49
 711 817 711 817 771 833 c 128,-1,50
 831 849 831 849 867 882.5 c 128,-1,51
 903 916 903 916 918.5 969 c 128,-1,52
 934 1022 934 1022 934 1096 c 0,53,54
 934 1171 934 1171 917 1221.5 c 128,-1,55
 900 1272 900 1272 862 1303 c 128,-1,56
 824 1334 824 1334 763.5 1347 c 128,-1,57
 703 1360 703 1360 616 1360 c 2,58,-1
 479 1360 l 1,59,-1
 479 817 l 1,47,-1
EndSplineSet
EndChar
StartChar: C
Encoding: 67 67 787
Width: 1257
GlyphClass: 2
Flags: W
LayerCount: 2
Fore
SplineSet
774 1483 m 0,0,1
 879 1483 879 1483 956.5 1465.5 c 128,-1,2
 1034 1448 1034 1448 1085.5 1417 c 128,-1,3
 1137 1386 1137 1386 1162.5 1344 c 128,-1,4
 1188 1302 1188 1302 1188 1253 c 0,5,6
 1188 1220 1188 1220 1174.5 1193.5 c 128,-1,7
 1161 1167 1161 1167 1137 1148.5 c 128,-1,8
 1113 1130 1113 1130 1080.5 1120 c 128,-1,9
 1048 1110 1048 1110 1010 1110 c 1,10,11
 1010 1158 1010 1158 997.5 1205 c 128,-1,12
 985 1252 985 1252 956.5 1289.5 c 128,-1,13
 928 1327 928 1327 882.5 1350.5 c 128,-1,14
 837 1374 837 1374 770 1374 c 0,15,16
 654 1374 654 1374 573 1331.5 c 128,-1,17
 492 1289 492 1289 441 1207.5 c 128,-1,18
 390 1126 390 1126 367 1006.5 c 128,-1,19
 344 887 344 887 344 733 c 0,20,21
 344 596 344 596 368 482 c 128,-1,22
 392 368 392 368 444 286.5 c 128,-1,23
 496 205 496 205 576.5 160 c 128,-1,24
 657 115 657 115 770 115 c 0,25,26
 845 115 845 115 902.5 129.5 c 128,-1,27
 960 144 960 144 1004 168 c 128,-1,28
 1048 192 1048 192 1081.5 223.5 c 128,-1,29
 1115 255 1115 255 1141 289 c 1,30,31
 1158 278 1158 278 1169 259 c 128,-1,32
 1180 240 1180 240 1180 209 c 0,33,34
 1180 170 1180 170 1153.5 129.5 c 128,-1,35
 1127 89 1127 89 1073 56 c 128,-1,36
 1019 23 1019 23 936 1.5 c 128,-1,37
 853 -20 853 -20 739 -20 c 0,38,39
 586 -20 586 -20 470 34 c 128,-1,40
 354 88 354 88 275.5 187 c 128,-1,41
 197 286 197 286 157 425 c 128,-1,42
 117 564 117 564 117 733 c 0,43,44
 117 899 117 899 159 1037 c 128,-1,45
 201 1175 201 1175 283.5 1274 c 128,-1,46
 366 1373 366 1373 489 1428 c 128,-1,47
 612 1483 612 1483 774 1483 c 0,0,1
EndSplineSet
EndChar
StartChar: D
Encoding: 68 68 788
Width: 1489
GlyphClass: 2
Flags: W
LayerCount: 2
Fore
SplineSet
1372 733 m 0,0,1
 1372 565 1372 565 1330 429.5 c 128,-1,2
 1288 294 1288 294 1205 198.5 c 128,-1,3
 1122 103 1122 103 997 51.5 c 128,-1,4
 872 0 872 0 705 0 c 2,5,-1
 78 0 l 1,6,-1
 78 86 l 1,7,-1
 104 86 l 2,8,9
 139 86 139 86 169.5 91 c 128,-1,10
 200 96 200 96 223 111.5 c 128,-1,11
 246 127 246 127 259 156 c 128,-1,12
 272 185 272 185 272 233 c 2,13,-1
 272 1237 l 2,14,15
 272 1282 272 1282 258.5 1309.5 c 128,-1,16
 245 1337 245 1337 222 1352 c 128,-1,17
 199 1367 199 1367 168.5 1371.5 c 128,-1,18
 138 1376 138 1376 104 1376 c 2,19,-1
 78 1376 l 1,20,-1
 78 1462 l 1,21,-1
 705 1462 l 2,22,23
 863 1462 863 1462 987 1413.5 c 128,-1,24
 1111 1365 1111 1365 1196.5 1272 c 128,-1,25
 1282 1179 1282 1179 1327 1043 c 128,-1,26
 1372 907 1372 907 1372 733 c 0,0,1
657 104 m 2,27,28
 779 104 779 104 870.5 145.5 c 128,-1,29
 962 187 962 187 1023 267 c 128,-1,30
 1084 347 1084 347 1114.5 464 c 128,-1,31
 1145 581 1145 581 1145 733 c 0,32,33
 1145 1038 1145 1038 1023.5 1199 c 128,-1,34
 902 1360 902 1360 659 1360 c 2,35,-1
 479 1360 l 1,36,-1
 479 104 l 1,37,-1
 657 104 l 2,27,28
EndSplineSet
EndChar
StartChar: E
Encoding: 69 69 789
Width: 1276
GlyphClass: 2
Flags: W
LayerCount: 2
Fore
SplineSet
479 102 m 1,0,-1
 874 102 l 2,1,2
 923 102 923 102 957.5 115.5 c 128,-1,3
 992 129 992 129 1015 152 c 128,-1,4
 1038 175 1038 175 1051 205.5 c 128,-1,5
 1064 236 1064 236 1069 270 c 2,6,-1
 1083 358 l 1,7,-1
 1190 358 l 1,8,-1
 1176 0 l 1,9,-1
 78 0 l 1,10,-1
 78 86 l 1,11,-1
 104 86 l 2,12,13
 138 86 138 86 168.5 90.5 c 128,-1,14
 199 95 199 95 222 109 c 128,-1,15
 245 123 245 123 258.5 150.5 c 128,-1,16
 272 178 272 178 272 223 c 2,17,-1
 272 1229 l 2,18,19
 272 1277 272 1277 259 1306 c 128,-1,20
 246 1335 246 1335 223 1350.5 c 128,-1,21
 200 1366 200 1366 169.5 1371 c 128,-1,22
 139 1376 139 1376 104 1376 c 2,23,-1
 78 1376 l 1,24,-1
 78 1462 l 1,25,-1
 1110 1462 l 1,26,-1
 1120 1104 l 1,27,-1
 1014 1104 l 1,28,-1
 1004 1192 l 2,29,30
 1000 1226 1000 1226 988.5 1256.5 c 128,-1,31
 977 1287 977 1287 955.5 1310 c 128,-1,32
 934 1333 934 1333 901.5 1346.5 c 128,-1,33
 869 1360 869 1360 823 1360 c 2,34,-1
 479 1360 l 1,35,-1
 479 815 l 1,36,-1
 973 815 l 1,37,-1
 973 715 l 1,38,-1
 479 715 l 1,39,-1
 479 102 l 1,0,-1
EndSplineSet
EndChar
StartChar: F
Encoding: 70 70 790
Width: 1208
GlyphClass: 2
Flags: W
LayerCount: 2
Fore
SplineSet
479 1360 m 1,0,-1
 479 768 l 1,1,-1
 973 768 l 1,2,-1
 973 668 l 1,3,-1
 479 668 l 1,4,-1
 479 233 l 2,5,6
 479 185 479 185 492.5 156 c 128,-1,7
 506 127 506 127 528.5 111.5 c 128,-1,8
 551 96 551 96 582 91 c 128,-1,9
 613 86 613 86 647 86 c 2,10,-1
 715 86 l 1,11,-1
 715 0 l 1,12,-1
 78 0 l 1,13,-1
 78 86 l 1,14,-1
 104 86 l 2,15,16
 138 86 138 86 168.5 90.5 c 128,-1,17
 199 95 199 95 222 109 c 128,-1,18
 245 123 245 123 258.5 150.5 c 128,-1,19
 272 178 272 178 272 223 c 2,20,-1
 272 1237 l 2,21,22
 272 1282 272 1282 258.5 1309.5 c 128,-1,23
 245 1337 245 1337 222 1352 c 128,-1,24
 199 1367 199 1367 168.5 1371.5 c 128,-1,25
 138 1376 138 1376 104 1376 c 2,26,-1
 78 1376 l 1,27,-1
 78 1462 l 1,28,-1
 1110 1462 l 1,29,-1
 1120 1104 l 1,30,-1
 1014 1104 l 1,31,-1
 1004 1192 l 2,32,33
 1000 1227 1000 1227 988 1257.5 c 128,-1,34
 976 1288 976 1288 953.5 1310.5 c 128,-1,35
 931 1333 931 1333 897 1346.5 c 128,-1,36
 863 1360 863 1360 815 1360 c 2,37,-1
 479 1360 l 1,0,-1
EndSplineSet
EndChar
StartChar: G
Encoding: 71 71 791
Width: 1462
GlyphClass: 2
Flags: W
LayerCount: 2
Fore
SplineSet
821 -20 m 0,0,1
 643 -20 643 -20 510.5 34 c 128,-1,2
 378 88 378 88 290.5 187 c 128,-1,3
 203 286 203 286 160 425 c 128,-1,4
 117 564 117 564 117 733 c 0,5,6
 117 899 117 899 162.5 1037 c 128,-1,7
 208 1175 208 1175 298.5 1274 c 128,-1,8
 389 1373 389 1373 523 1428 c 128,-1,9
 657 1483 657 1483 834 1483 c 0,10,11
 948 1483 948 1483 1032.5 1465.5 c 128,-1,12
 1117 1448 1117 1448 1173.5 1417 c 128,-1,13
 1230 1386 1230 1386 1258 1344 c 128,-1,14
 1286 1302 1286 1302 1286 1253 c 0,15,16
 1286 1220 1286 1220 1271 1193.5 c 128,-1,17
 1256 1167 1256 1167 1230.5 1148.5 c 128,-1,18
 1205 1130 1205 1130 1170.5 1120 c 128,-1,19
 1136 1110 1136 1110 1096 1110 c 1,20,21
 1096 1158 1096 1158 1082 1205 c 128,-1,22
 1068 1252 1068 1252 1036 1289.5 c 128,-1,23
 1004 1327 1004 1327 952 1350.5 c 128,-1,24
 900 1374 900 1374 825 1374 c 0,25,26
 695 1374 695 1374 603.5 1331.5 c 128,-1,27
 512 1289 512 1289 454 1207.5 c 128,-1,28
 396 1126 396 1126 370 1006.5 c 128,-1,29
 344 887 344 887 344 733 c 0,30,31
 344 580 344 580 371 461 c 128,-1,32
 398 342 398 342 459 261 c 128,-1,33
 520 180 520 180 617 138 c 128,-1,34
 714 96 714 96 854 96 c 0,35,36
 913 96 913 96 968.5 102 c 128,-1,37
 1024 108 1024 108 1067 121 c 1,38,-1
 1067 451 l 2,39,40
 1067 496 1067 496 1053.5 523.5 c 128,-1,41
 1040 551 1040 551 1017 565.5 c 128,-1,42
 994 580 994 580 963.5 585 c 128,-1,43
 933 590 933 590 899 590 c 2,44,-1
 891 590 l 1,45,-1
 891 676 l 1,46,-1
 1423 676 l 1,47,-1
 1423 590 l 1,48,-1
 1415 590 l 2,49,50
 1386 590 1386 590 1360 585 c 128,-1,51
 1334 580 1334 580 1315 564.5 c 128,-1,52
 1296 549 1296 549 1285 519.5 c 128,-1,53
 1274 490 1274 490 1274 442 c 2,54,-1
 1274 74 l 1,55,56
 1171 26 1171 26 1062 3 c 128,-1,57
 953 -20 953 -20 821 -20 c 0,0,1
EndSplineSet
EndChar
StartChar: H
Encoding: 72 72 792
Width: 1624
GlyphClass: 2
Flags: W
LayerCount: 2
Fore
SplineSet
950 0 m 1,0,-1
 950 86 l 1,1,-1
 977 86 l 2,2,3
 1012 86 1012 86 1042.5 91 c 128,-1,4
 1073 96 1073 96 1095.5 111.5 c 128,-1,5
 1118 127 1118 127 1131.5 156 c 128,-1,6
 1145 185 1145 185 1145 233 c 2,7,-1
 1145 713 l 1,8,-1
 479 713 l 1,9,-1
 479 233 l 2,10,11
 479 185 479 185 492.5 156 c 128,-1,12
 506 127 506 127 528.5 111.5 c 128,-1,13
 551 96 551 96 582 91 c 128,-1,14
 613 86 613 86 647 86 c 2,15,-1
 674 86 l 1,16,-1
 674 0 l 1,17,-1
 78 0 l 1,18,-1
 78 86 l 1,19,-1
 104 86 l 2,20,21
 139 86 139 86 169.5 91 c 128,-1,22
 200 96 200 96 223 111.5 c 128,-1,23
 246 127 246 127 259 156 c 128,-1,24
 272 185 272 185 272 233 c 2,25,-1
 272 1237 l 2,26,27
 272 1282 272 1282 258.5 1309.5 c 128,-1,28
 245 1337 245 1337 222 1352 c 128,-1,29
 199 1367 199 1367 168.5 1371.5 c 128,-1,30
 138 1376 138 1376 104 1376 c 2,31,-1
 78 1376 l 1,32,-1
 78 1462 l 1,33,-1
 674 1462 l 1,34,-1
 674 1376 l 1,35,-1
 647 1376 l 2,36,37
 613 1376 613 1376 582 1371 c 128,-1,38
 551 1366 551 1366 528.5 1350.5 c 128,-1,39
 506 1335 506 1335 492.5 1306 c 128,-1,40
 479 1277 479 1277 479 1229 c 2,41,-1
 479 815 l 1,42,-1
 1145 815 l 1,43,-1
 1145 1229 l 2,44,45
 1145 1277 1145 1277 1131.5 1306 c 128,-1,46
 1118 1335 1118 1335 1095.5 1350.5 c 128,-1,47
 1073 1366 1073 1366 1042.5 1371 c 128,-1,48
 1012 1376 1012 1376 977 1376 c 2,49,-1
 950 1376 l 1,50,-1
 950 1462 l 1,51,-1
 1546 1462 l 1,52,-1
 1546 1376 l 1,53,-1
 1520 1376 l 2,54,55
 1485 1376 1485 1376 1454.5 1371 c 128,-1,56
 1424 1366 1424 1366 1401 1350.5 c 128,-1,57
 1378 1335 1378 1335 1365 1306 c 128,-1,58
 1352 1277 1352 1277 1352 1229 c 2,59,-1
 1352 223 l 2,60,61
 1352 178 1352 178 1365.5 150.5 c 128,-1,62
 1379 123 1379 123 1402 109 c 128,-1,63
 1425 95 1425 95 1455.5 90.5 c 128,-1,64
 1486 86 1486 86 1520 86 c 2,65,-1
 1546 86 l 1,66,-1
 1546 0 l 1,67,-1
 950 0 l 1,0,-1
EndSplineSet
EndChar
StartChar: I
Encoding: 73 73 793
Width: 752
GlyphClass: 2
Flags: W
LayerCount: 2
Fore
SplineSet
78 0 m 1,0,-1
 78 86 l 1,1,-1
 104 86 l 2,2,3
 139 86 139 86 169.5 91 c 128,-1,4
 200 96 200 96 223 111.5 c 128,-1,5
 246 127 246 127 259 156 c 128,-1,6
 272 185 272 185 272 233 c 2,7,-1
 272 1229 l 2,8,9
 272 1277 272 1277 259 1306 c 128,-1,10
 246 1335 246 1335 223 1350.5 c 128,-1,11
 200 1366 200 1366 169.5 1371 c 128,-1,12
 139 1376 139 1376 104 1376 c 2,13,-1
 78 1376 l 1,14,-1
 78 1462 l 1,15,-1
 674 1462 l 1,16,-1
 674 1376 l 1,17,-1
 647 1376 l 2,18,19
 613 1376 613 1376 582 1371 c 128,-1,20
 551 1366 551 1366 528.5 1350.5 c 128,-1,21
 506 1335 506 1335 492.5 1306 c 128,-1,22
 479 1277 479 1277 479 1229 c 2,23,-1
 479 233 l 2,24,25
 479 185 479 185 492.5 156 c 128,-1,26
 506 127 506 127 528.5 111.5 c 128,-1,27
 551 96 551 96 582 91 c 128,-1,28
 613 86 613 86 647 86 c 2,29,-1
 674 86 l 1,30,-1
 674 0 l 1,31,-1
 78 0 l 1,0,-1
EndSplineSet
EndChar
StartChar: J
Encoding: 74 74 794
Width: 731
GlyphClass: 2
Flags: W
LayerCount: 2
Fore
SplineSet
-23 -395 m 1,0,-1
 -4 -395 l 2,1,2
 62 -395 62 -395 113.5 -376.5 c 128,-1,3
 165 -358 165 -358 200 -314.5 c 128,-1,4
 235 -271 235 -271 253.5 -198.5 c 128,-1,5
 272 -126 272 -126 272 -18 c 2,6,-1
 272 1237 l 2,7,8
 272 1282 272 1282 258.5 1309.5 c 128,-1,9
 245 1337 245 1337 222 1352 c 128,-1,10
 199 1367 199 1367 168.5 1371.5 c 128,-1,11
 138 1376 138 1376 104 1376 c 2,12,-1
 78 1376 l 1,13,-1
 78 1462 l 1,14,-1
 674 1462 l 1,15,-1
 674 1376 l 1,16,-1
 647 1376 l 2,17,18
 613 1376 613 1376 582 1371 c 128,-1,19
 551 1366 551 1366 528.5 1350.5 c 128,-1,20
 506 1335 506 1335 492.5 1306 c 128,-1,21
 479 1277 479 1277 479 1229 c 2,22,-1
 479 -16 l 2,23,24
 479 -154 479 -154 443 -245.5 c 128,-1,25
 407 -337 407 -337 344 -391.5 c 128,-1,26
 281 -446 281 -446 195.5 -469 c 128,-1,27
 110 -492 110 -492 12 -492 c 2,28,-1
 -23 -492 l 1,29,-1
 -23 -395 l 1,0,-1
EndSplineSet
EndChar
StartChar: K
Encoding: 75 75 795
Width: 1434
GlyphClass: 2
Flags: W
LayerCount: 2
Fore
SplineSet
903 1137 m 2,0,1
 936 1175 936 1175 958 1204.5 c 128,-1,2
 980 1234 980 1234 992.5 1258 c 128,-1,3
 1005 1282 1005 1282 1010.5 1300 c 128,-1,4
 1016 1318 1016 1318 1016 1333 c 0,5,6
 1016 1359 1016 1359 991 1368.5 c 128,-1,7
 966 1378 966 1378 915 1378 c 1,8,-1
 915 1462 l 1,9,-1
 1368 1462 l 1,10,-1
 1368 1378 l 1,11,12
 1333 1378 1333 1378 1300.5 1364.5 c 128,-1,13
 1268 1351 1268 1351 1235.5 1326.5 c 128,-1,14
 1203 1302 1203 1302 1168.5 1266.5 c 128,-1,15
 1134 1231 1134 1231 1094 1186 c 2,16,-1
 797 852 l 1,17,-1
 1229 250 l 2,18,19
 1288 169 1288 169 1342.5 127.5 c 128,-1,20
 1397 86 1397 86 1454 86 c 2,21,-1
 1458 86 l 1,22,-1
 1458 0 l 1,23,-1
 1436 0 l 2,24,25
 1333 0 1333 0 1267 8 c 128,-1,26
 1201 16 1201 16 1156 37 c 128,-1,27
 1111 58 1111 58 1077.5 93.5 c 128,-1,28
 1044 129 1044 129 1006 184 c 2,29,-1
 653 690 l 1,30,-1
 479 549 l 1,31,-1
 479 233 l 2,32,33
 479 185 479 185 492.5 156 c 128,-1,34
 506 127 506 127 528.5 111.5 c 128,-1,35
 551 96 551 96 582 91 c 128,-1,36
 613 86 613 86 647 86 c 2,37,-1
 674 86 l 1,38,-1
 674 0 l 1,39,-1
 78 0 l 1,40,-1
 78 86 l 1,41,-1
 104 86 l 2,42,43
 138 86 138 86 168.5 90.5 c 128,-1,44
 199 95 199 95 222 109 c 128,-1,45
 245 123 245 123 258.5 150.5 c 128,-1,46
 272 178 272 178 272 223 c 2,47,-1
 272 1237 l 2,48,49
 272 1282 272 1282 258.5 1309.5 c 128,-1,50
 245 1337 245 1337 222 1352 c 128,-1,51
 199 1367 199 1367 168.5 1371.5 c 128,-1,52
 138 1376 138 1376 104 1376 c 2,53,-1
 78 1376 l 1,54,-1
 78 1462 l 1,55,-1
 674 1462 l 1,56,-1
 674 1376 l 1,57,-1
 647 1376 l 2,58,59
 613 1376 613 1376 582 1371 c 128,-1,60
 551 1366 551 1366 528.5 1350.5 c 128,-1,61
 506 1335 506 1335 492.5 1306 c 128,-1,62
 479 1277 479 1277 479 1229 c 2,63,-1
 479 651 l 1,64,-1
 903 1137 l 2,0,1
EndSplineSet
EndChar
StartChar: L
Encoding: 76 76 796
Width: 1276
GlyphClass: 2
Flags: W
LayerCount: 2
Fore
SplineSet
78 0 m 1,0,-1
 78 86 l 1,1,-1
 104 86 l 2,2,3
 139 86 139 86 169.5 91 c 128,-1,4
 200 96 200 96 223 111.5 c 128,-1,5
 246 127 246 127 259 156 c 128,-1,6
 272 185 272 185 272 233 c 2,7,-1
 272 1229 l 2,8,9
 272 1277 272 1277 259 1306 c 128,-1,10
 246 1335 246 1335 223 1350.5 c 128,-1,11
 200 1366 200 1366 169.5 1371 c 128,-1,12
 139 1376 139 1376 104 1376 c 2,13,-1
 78 1376 l 1,14,-1
 78 1462 l 1,15,-1
 674 1462 l 1,16,-1
 674 1376 l 1,17,-1
 647 1376 l 2,18,19
 613 1376 613 1376 582.5 1371.5 c 128,-1,20
 552 1367 552 1367 529 1352 c 128,-1,21
 506 1337 506 1337 492.5 1309.5 c 128,-1,22
 479 1282 479 1282 479 1237 c 2,23,-1
 479 102 l 1,24,-1
 883 102 l 2,25,26
 929 102 929 102 961.5 118.5 c 128,-1,27
 994 135 994 135 1015 161.5 c 128,-1,28
 1036 188 1036 188 1047.5 221 c 128,-1,29
 1059 254 1059 254 1063 287 c 2,30,-1
 1083 440 l 1,31,-1
 1190 440 l 1,32,-1
 1176 0 l 1,33,-1
 78 0 l 1,0,-1
EndSplineSet
EndChar
StartChar: M
Encoding: 77 77 797
Width: 1921
GlyphClass: 2
Flags: W
LayerCount: 2
Fore
SplineSet
1298 0 m 1,0,-1
 1298 86 l 1,1,-1
 1305 86 l 2,2,3
 1338 86 1338 86 1364.5 90.5 c 128,-1,4
 1391 95 1391 95 1409.5 108.5 c 128,-1,5
 1428 122 1428 122 1439 147.5 c 128,-1,6
 1450 173 1450 173 1452 215 c 1,7,-1
 1452 1309 l 1,8,-1
 983 0 l 1,9,-1
 872 0 l 1,10,-1
 397 1305 l 1,11,-1
 397 233 l 2,12,13
 397 185 397 185 407 156 c 128,-1,14
 417 127 417 127 436.5 111.5 c 128,-1,15
 456 96 456 96 483.5 91 c 128,-1,16
 511 86 511 86 545 86 c 2,17,-1
 551 86 l 1,18,-1
 551 0 l 1,19,-1
 78 0 l 1,20,-1
 78 86 l 1,21,-1
 104 86 l 2,22,23
 138 86 138 86 168.5 90.5 c 128,-1,24
 199 95 199 95 222 109 c 128,-1,25
 245 123 245 123 258.5 150.5 c 128,-1,26
 272 178 272 178 272 223 c 2,27,-1
 272 1237 l 2,28,29
 272 1282 272 1282 258.5 1309.5 c 128,-1,30
 245 1337 245 1337 222 1352 c 128,-1,31
 199 1367 199 1367 168.5 1371.5 c 128,-1,32
 138 1376 138 1376 104 1376 c 2,33,-1
 78 1376 l 1,34,-1
 78 1462 l 1,35,-1
 545 1462 l 1,36,-1
 969 291 l 1,37,-1
 1389 1462 l 1,38,-1
 1843 1462 l 1,39,-1
 1843 1376 l 1,40,-1
 1817 1376 l 2,41,42
 1782 1376 1782 1376 1751.5 1371 c 128,-1,43
 1721 1366 1721 1366 1698 1350.5 c 128,-1,44
 1675 1335 1675 1335 1662 1306 c 128,-1,45
 1649 1277 1649 1277 1649 1229 c 2,46,-1
 1649 233 l 2,47,48
 1649 185 1649 185 1662 156 c 128,-1,49
 1675 127 1675 127 1698 111.5 c 128,-1,50
 1721 96 1721 96 1751.5 91 c 128,-1,51
 1782 86 1782 86 1817 86 c 2,52,-1
 1843 86 l 1,53,-1
 1843 0 l 1,54,-1
 1298 0 l 1,0,-1
EndSplineSet
EndChar
StartChar: N
Encoding: 78 78 798
Width: 1563
GlyphClass: 2
Flags: W
LayerCount: 2
Fore
SplineSet
1165 0 m 1,0,-1
 397 1180 l 1,1,-1
 397 233 l 2,2,3
 397 185 397 185 410.5 156 c 128,-1,4
 424 127 424 127 446.5 111.5 c 128,-1,5
 469 96 469 96 500 91 c 128,-1,6
 531 86 531 86 565 86 c 2,7,-1
 592 86 l 1,8,-1
 592 0 l 1,9,-1
 78 0 l 1,10,-1
 78 86 l 1,11,-1
 104 86 l 2,12,13
 139 86 139 86 169.5 91 c 128,-1,14
 200 96 200 96 223 111.5 c 128,-1,15
 246 127 246 127 259 156 c 128,-1,16
 272 185 272 185 272 233 c 2,17,-1
 272 1237 l 2,18,19
 272 1282 272 1282 258.5 1309.5 c 128,-1,20
 245 1337 245 1337 222 1352 c 128,-1,21
 199 1367 199 1367 168.5 1371.5 c 128,-1,22
 138 1376 138 1376 104 1376 c 2,23,-1
 78 1376 l 1,24,-1
 78 1462 l 1,25,-1
 453 1462 l 1,26,-1
 1186 330 l 1,27,-1
 1186 1237 l 2,28,29
 1186 1282 1186 1282 1172.5 1309.5 c 128,-1,30
 1159 1337 1159 1337 1136 1352 c 128,-1,31
 1113 1367 1113 1367 1082.5 1371.5 c 128,-1,32
 1052 1376 1052 1376 1018 1376 c 2,33,-1
 991 1376 l 1,34,-1
 991 1462 l 1,35,-1
 1505 1462 l 1,36,-1
 1505 1376 l 1,37,-1
 1479 1376 l 2,38,39
 1444 1376 1444 1376 1413.5 1371 c 128,-1,40
 1383 1366 1383 1366 1360 1350.5 c 128,-1,41
 1337 1335 1337 1335 1324 1306 c 128,-1,42
 1311 1277 1311 1277 1311 1229 c 2,43,-1
 1311 0 l 1,44,-1
 1165 0 l 1,0,-1
EndSplineSet
EndChar
StartChar: O
Encoding: 79 79 799
Width: 1520
GlyphClass: 2
Flags: W
LayerCount: 2
Fore
SplineSet
1403 733 m 0,0,1
 1403 564 1403 564 1361 425 c 128,-1,2
 1319 286 1319 286 1237 187 c 128,-1,3
 1155 88 1155 88 1035 34 c 128,-1,4
 915 -20 915 -20 760 -20 c 0,5,6
 597 -20 597 -20 476 34 c 128,-1,7
 355 88 355 88 275 187 c 128,-1,8
 195 286 195 286 155 425.5 c 128,-1,9
 115 565 115 565 115 735 c 256,10,11
 115 905 115 905 155 1043.5 c 128,-1,12
 195 1182 195 1182 275 1280 c 128,-1,13
 355 1378 355 1378 477 1431.5 c 128,-1,14
 599 1485 599 1485 762 1485 c 0,15,16
 917 1485 917 1485 1036 1431.5 c 128,-1,17
 1155 1378 1155 1378 1237 1279.5 c 128,-1,18
 1319 1181 1319 1181 1361 1042.5 c 128,-1,19
 1403 904 1403 904 1403 733 c 0,0,1
342 733 m 256,20,21
 342 581 342 581 364.5 461.5 c 128,-1,22
 387 342 387 342 437 259.5 c 128,-1,23
 487 177 487 177 566.5 133.5 c 128,-1,24
 646 90 646 90 760 90 c 256,25,26
 874 90 874 90 953.5 133.5 c 128,-1,27
 1033 177 1033 177 1082.5 259.5 c 128,-1,28
 1132 342 1132 342 1154 461.5 c 128,-1,29
 1176 581 1176 581 1176 733 c 256,30,31
 1176 885 1176 885 1154 1004.5 c 128,-1,32
 1132 1124 1132 1124 1082.5 1206 c 128,-1,33
 1033 1288 1033 1288 954.5 1331 c 128,-1,34
 876 1374 876 1374 762 1374 c 256,35,36
 648 1374 648 1374 568 1331 c 128,-1,37
 488 1288 488 1288 437.5 1206 c 128,-1,38
 387 1124 387 1124 364.5 1004.5 c 128,-1,39
 342 885 342 885 342 733 c 256,20,21
EndSplineSet
EndChar
StartChar: P
Encoding: 80 80 800
Width: 1237
GlyphClass: 2
Flags: W
LayerCount: 2
Fore
SplineSet
78 0 m 1,0,-1
 78 86 l 1,1,-1
 104 86 l 2,2,3
 139 86 139 86 169.5 91 c 128,-1,4
 200 96 200 96 223 111.5 c 128,-1,5
 246 127 246 127 259 156 c 128,-1,6
 272 185 272 185 272 233 c 2,7,-1
 272 1237 l 2,8,9
 272 1282 272 1282 258.5 1309.5 c 128,-1,10
 245 1337 245 1337 222 1352 c 128,-1,11
 199 1367 199 1367 168.5 1371.5 c 128,-1,12
 138 1376 138 1376 104 1376 c 2,13,-1
 78 1376 l 1,14,-1
 78 1462 l 1,15,-1
 653 1462 l 2,16,17
 782 1462 782 1462 877 1432.5 c 128,-1,18
 972 1403 972 1403 1034 1347.5 c 128,-1,19
 1096 1292 1096 1292 1126.5 1213 c 128,-1,20
 1157 1134 1157 1134 1157 1034 c 0,21,22
 1157 943 1157 943 1128.5 859 c 128,-1,23
 1100 775 1100 775 1035 710.5 c 128,-1,24
 970 646 970 646 865 607.5 c 128,-1,25
 760 569 760 569 608 569 c 2,26,-1
 479 569 l 1,27,-1
 479 223 l 2,28,29
 479 178 479 178 492.5 150.5 c 128,-1,30
 506 123 506 123 529 109 c 128,-1,31
 552 95 552 95 582.5 90.5 c 128,-1,32
 613 86 613 86 647 86 c 2,33,-1
 715 86 l 1,34,-1
 715 0 l 1,35,-1
 78 0 l 1,0,-1
479 666 m 1,36,-1
 588 666 l 2,37,38
 681 666 681 666 747 685.5 c 128,-1,39
 813 705 813 705 855 748.5 c 128,-1,40
 897 792 897 792 916.5 860.5 c 128,-1,41
 936 929 936 929 936 1026 c 0,42,43
 936 1112 936 1112 919 1175.5 c 128,-1,44
 902 1239 902 1239 864 1281 c 128,-1,45
 826 1323 826 1323 765.5 1343.5 c 128,-1,46
 705 1364 705 1364 618 1364 c 2,47,-1
 479 1364 l 1,48,-1
 479 666 l 1,36,-1
EndSplineSet
EndChar
StartChar: Q
Encoding: 81 81 801
Width: 1520
GlyphClass: 2
Flags: W
LayerCount: 2
Fore
SplineSet
1403 733 m 0,0,1
 1403 583 1403 583 1370 457 c 128,-1,2
 1337 331 1337 331 1272.5 235 c 128,-1,3
 1208 139 1208 139 1113.5 76.5 c 128,-1,4
 1019 14 1019 14 897 -8 c 1,5,6
 906 -113 906 -113 931 -183.5 c 128,-1,7
 956 -254 956 -254 995 -296.5 c 128,-1,8
 1034 -339 1034 -339 1086 -357 c 128,-1,9
 1138 -375 1138 -375 1200 -375 c 2,10,-1
 1233 -375 l 1,11,-1
 1233 -471 l 1,12,-1
 1145 -471 l 2,13,14
 1064 -471 1064 -471 983.5 -449.5 c 128,-1,15
 903 -428 903 -428 837 -375.5 c 128,-1,16
 771 -323 771 -323 726.5 -235.5 c 128,-1,17
 682 -148 682 -148 672 -16 c 1,18,19
 531 -1 531 -1 426.5 58.5 c 128,-1,20
 322 118 322 118 253 215.5 c 128,-1,21
 184 313 184 313 149.5 444.5 c 128,-1,22
 115 576 115 576 115 735 c 0,23,24
 115 905 115 905 155 1043.5 c 128,-1,25
 195 1182 195 1182 275 1280 c 128,-1,26
 355 1378 355 1378 477 1431.5 c 128,-1,27
 599 1485 599 1485 762 1485 c 0,28,29
 917 1485 917 1485 1036 1431.5 c 128,-1,30
 1155 1378 1155 1378 1237 1279.5 c 128,-1,31
 1319 1181 1319 1181 1361 1042.5 c 128,-1,32
 1403 904 1403 904 1403 733 c 0,0,1
342 733 m 256,33,34
 342 581 342 581 364.5 461.5 c 128,-1,35
 387 342 387 342 437 259.5 c 128,-1,36
 487 177 487 177 566.5 133.5 c 128,-1,37
 646 90 646 90 760 90 c 256,38,39
 874 90 874 90 953.5 133.5 c 128,-1,40
 1033 177 1033 177 1082.5 259.5 c 128,-1,41
 1132 342 1132 342 1154 461.5 c 128,-1,42
 1176 581 1176 581 1176 733 c 256,43,44
 1176 885 1176 885 1154 1004.5 c 128,-1,45
 1132 1124 1132 1124 1082.5 1206 c 128,-1,46
 1033 1288 1033 1288 954.5 1331 c 128,-1,47
 876 1374 876 1374 762 1374 c 256,48,49
 648 1374 648 1374 568 1331 c 128,-1,50
 488 1288 488 1288 437.5 1206 c 128,-1,51
 387 1124 387 1124 364.5 1004.5 c 128,-1,52
 342 885 342 885 342 733 c 256,33,34
EndSplineSet
EndChar
StartChar: R
Encoding: 82 82 802
Width: 1343
GlyphClass: 2
Flags: W
LayerCount: 2
Fore
SplineSet
1135 250 m 2,0,1
 1187 168 1187 168 1236 127 c 128,-1,2
 1285 86 1285 86 1350 86 c 2,3,-1
 1356 86 l 1,4,-1
 1356 0 l 1,5,-1
 1327 0 l 2,6,7
 1231 0 1231 0 1169.5 7 c 128,-1,8
 1108 14 1108 14 1065 34 c 128,-1,9
 1022 54 1022 54 991.5 90 c 128,-1,10
 961 126 961 126 926 184 c 2,11,-1
 649 645 l 1,12,-1
 479 645 l 1,13,-1
 479 223 l 2,14,15
 479 178 479 178 492.5 150.5 c 128,-1,16
 506 123 506 123 529 109 c 128,-1,17
 552 95 552 95 582.5 90.5 c 128,-1,18
 613 86 613 86 647 86 c 2,19,-1
 674 86 l 1,20,-1
 674 0 l 1,21,-1
 78 0 l 1,22,-1
 78 86 l 1,23,-1
 104 86 l 2,24,25
 138 86 138 86 168.5 90.5 c 128,-1,26
 199 95 199 95 222 109 c 128,-1,27
 245 123 245 123 258.5 150.5 c 128,-1,28
 272 178 272 178 272 223 c 2,29,-1
 272 1237 l 2,30,31
 272 1282 272 1282 258.5 1309.5 c 128,-1,32
 245 1337 245 1337 222 1352 c 128,-1,33
 199 1367 199 1367 168.5 1371.5 c 128,-1,34
 138 1376 138 1376 104 1376 c 2,35,-1
 78 1376 l 1,36,-1
 78 1462 l 1,37,-1
 629 1462 l 2,38,39
 895 1462 895 1462 1025 1363.5 c 128,-1,40
 1155 1265 1155 1265 1155 1067 c 0,41,42
 1155 985 1155 985 1128.5 923.5 c 128,-1,43
 1102 862 1102 862 1059 817 c 128,-1,44
 1016 772 1016 772 962 742 c 128,-1,45
 908 712 908 712 854 694 c 1,46,-1
 1135 250 l 2,0,1
479 741 m 1,47,-1
 623 741 l 2,48,49
 713 741 713 741 773 761 c 128,-1,50
 833 781 833 781 869 821 c 128,-1,51
 905 861 905 861 920.5 921 c 128,-1,52
 936 981 936 981 936 1061 c 0,53,54
 936 1143 936 1143 919 1200.5 c 128,-1,55
 902 1258 902 1258 864 1294.5 c 128,-1,56
 826 1331 826 1331 765.5 1347.5 c 128,-1,57
 705 1364 705 1364 618 1364 c 2,58,-1
 479 1364 l 1,59,-1
 479 741 l 1,47,-1
EndSplineSet
EndChar
StartChar: S
Encoding: 83 83 803
Width: 1114
GlyphClass: 2
Flags: W
LayerCount: 2
Fore
SplineSet
506 -20 m 0,0,1
 406 -20 406 -20 329.5 1 c 128,-1,2
 253 22 253 22 201.5 59.5 c 128,-1,3
 150 97 150 97 124 150.5 c 128,-1,4
 98 204 98 204 98 268 c 0,5,6
 98 330 98 330 136.5 368 c 128,-1,7
 175 406 175 406 246 406 c 1,8,9
 249 342 249 342 265.5 283 c 128,-1,10
 282 224 282 224 315 179 c 128,-1,11
 348 134 348 134 399 107 c 128,-1,12
 450 80 450 80 522 80 c 0,13,14
 660 80 660 80 737.5 146.5 c 128,-1,15
 815 213 815 213 815 338 c 0,16,17
 815 394 815 394 799 437 c 128,-1,18
 783 480 783 480 746 516.5 c 128,-1,19
 709 553 709 553 648.5 586.5 c 128,-1,20
 588 620 588 620 498 657 c 0,21,22
 403 696 403 696 332 740.5 c 128,-1,23
 261 785 261 785 214 839.5 c 128,-1,24
 167 894 167 894 144 961 c 128,-1,25
 121 1028 121 1028 121 1112 c 0,26,27
 121 1200 121 1200 154.5 1269 c 128,-1,28
 188 1338 188 1338 248 1385.5 c 128,-1,29
 308 1433 308 1433 390 1458 c 128,-1,30
 472 1483 472 1483 569 1483 c 0,31,32
 661 1483 661 1483 732 1464 c 128,-1,33
 803 1445 803 1445 852 1413 c 128,-1,34
 901 1381 901 1381 926.5 1339.5 c 128,-1,35
 952 1298 952 1298 952 1253 c 0,36,37
 952 1187 952 1187 908.5 1153.5 c 128,-1,38
 865 1120 865 1120 791 1120 c 1,39,40
 791 1168 791 1168 779.5 1214.5 c 128,-1,41
 768 1261 768 1261 741 1297.5 c 128,-1,42
 714 1334 714 1334 670 1357 c 128,-1,43
 626 1380 626 1380 561 1380 c 0,44,45
 502 1380 502 1380 455.5 1363.5 c 128,-1,46
 409 1347 409 1347 377 1316.5 c 128,-1,47
 345 1286 345 1286 328 1243 c 128,-1,48
 311 1200 311 1200 311 1147 c 0,49,50
 311 1086 311 1086 327 1039.5 c 128,-1,51
 343 993 343 993 380.5 955.5 c 128,-1,52
 418 918 418 918 479 884.5 c 128,-1,53
 540 851 540 851 629 815 c 0,54,55
 719 778 719 778 789.5 737 c 128,-1,56
 860 696 860 696 909 645.5 c 128,-1,57
 958 595 958 595 984 532.5 c 128,-1,58
 1010 470 1010 470 1010 391 c 0,59,60
 1010 294 1010 294 974.5 217.5 c 128,-1,61
 939 141 939 141 873 88 c 128,-1,62
 807 35 807 35 714 7.5 c 128,-1,63
 621 -20 621 -20 506 -20 c 0,0,1
EndSplineSet
EndChar
StartChar: T
Encoding: 84 84 804
Width: 1255
GlyphClass: 2
Flags: W
LayerCount: 2
Fore
SplineSet
729 233 m 2,0,1
 729 185 729 185 742.5 156 c 128,-1,2
 756 127 756 127 778.5 111.5 c 128,-1,3
 801 96 801 96 832 91 c 128,-1,4
 863 86 863 86 897 86 c 2,5,-1
 944 86 l 1,6,-1
 944 0 l 1,7,-1
 307 0 l 1,8,-1
 307 86 l 1,9,-1
 354 86 l 2,10,11
 388 86 388 86 418.5 90.5 c 128,-1,12
 449 95 449 95 472 109 c 128,-1,13
 495 123 495 123 508.5 150.5 c 128,-1,14
 522 178 522 178 522 223 c 2,15,-1
 522 1360 l 1,16,-1
 326 1360 l 2,17,18
 281 1360 281 1360 250.5 1346.5 c 128,-1,19
 220 1333 220 1333 200.5 1310 c 128,-1,20
 181 1287 181 1287 171.5 1256.5 c 128,-1,21
 162 1226 162 1226 158 1192 c 2,22,-1
 147 1104 l 1,23,-1
 41 1104 l 1,24,-1
 51 1462 l 1,25,-1
 1204 1462 l 1,26,-1
 1214 1104 l 1,27,-1
 1108 1104 l 1,28,-1
 1098 1192 l 2,29,30
 1094 1226 1094 1226 1084 1256.5 c 128,-1,31
 1074 1287 1074 1287 1055 1310 c 128,-1,32
 1036 1333 1036 1333 1005 1346.5 c 128,-1,33
 974 1360 974 1360 928 1360 c 2,34,-1
 729 1360 l 1,35,-1
 729 233 l 2,0,1
EndSplineSet
EndChar
StartChar: U
Encoding: 85 85 805
Width: 1468
GlyphClass: 2
Flags: W
LayerCount: 2
Fore
SplineSet
741 -20 m 0,0,1
 620 -20 620 -20 524 5.5 c 128,-1,2
 428 31 428 31 361.5 86.5 c 128,-1,3
 295 142 295 142 260 229.5 c 128,-1,4
 225 317 225 317 225 442 c 2,5,-1
 225 1237 l 2,6,7
 225 1282 225 1282 211.5 1309.5 c 128,-1,8
 198 1337 198 1337 175 1352 c 128,-1,9
 152 1367 152 1367 121.5 1371.5 c 128,-1,10
 91 1376 91 1376 57 1376 c 2,11,-1
 31 1376 l 1,12,-1
 31 1462 l 1,13,-1
 627 1462 l 1,14,-1
 627 1376 l 1,15,-1
 600 1376 l 2,16,17
 566 1376 566 1376 535 1371 c 128,-1,18
 504 1366 504 1366 481.5 1350.5 c 128,-1,19
 459 1335 459 1335 445.5 1306 c 128,-1,20
 432 1277 432 1277 432 1229 c 2,21,-1
 432 430 l 2,22,23
 432 341 432 341 457.5 278.5 c 128,-1,24
 483 216 483 216 528.5 177 c 128,-1,25
 574 138 574 138 636.5 120 c 128,-1,26
 699 102 699 102 774 102 c 0,27,28
 863 102 863 102 927.5 126 c 128,-1,29
 992 150 992 150 1034.5 192.5 c 128,-1,30
 1077 235 1077 235 1097.5 293.5 c 128,-1,31
 1118 352 1118 352 1118 422 c 2,32,-1
 1118 1237 l 2,33,34
 1118 1282 1118 1282 1104.5 1309.5 c 128,-1,35
 1091 1337 1091 1337 1068 1352 c 128,-1,36
 1045 1367 1045 1367 1014.5 1371.5 c 128,-1,37
 984 1376 984 1376 950 1376 c 2,38,-1
 924 1376 l 1,39,-1
 924 1462 l 1,40,-1
 1438 1462 l 1,41,-1
 1438 1376 l 1,42,-1
 1411 1376 l 2,43,44
 1377 1376 1377 1376 1346 1371 c 128,-1,45
 1315 1366 1315 1366 1292.5 1350.5 c 128,-1,46
 1270 1335 1270 1335 1256.5 1306 c 128,-1,47
 1243 1277 1243 1277 1243 1229 c 2,48,-1
 1243 418 l 2,49,50
 1243 316 1243 316 1210.5 234.5 c 128,-1,51
 1178 153 1178 153 1114.5 96.5 c 128,-1,52
 1051 40 1051 40 957 10 c 128,-1,53
 863 -20 863 -20 741 -20 c 0,0,1
EndSplineSet
EndChar
StartChar: V
Encoding: 86 86 806
Width: 1382
GlyphClass: 2
Flags: W
LayerCount: 2
Fore
SplineSet
614 0 m 1,0,-1
 172 1268 l 2,1,2
 161 1300 161 1300 148 1321 c 128,-1,3
 135 1342 135 1342 118 1354 c 128,-1,4
 101 1366 101 1366 79 1371 c 128,-1,5
 57 1376 57 1376 27 1376 c 2,6,-1
 0 1376 l 1,7,-1
 0 1462 l 1,8,-1
 563 1462 l 1,9,-1
 563 1376 l 1,10,-1
 516 1376 l 2,11,12
 454 1376 454 1376 423.5 1352.5 c 128,-1,13
 393 1329 393 1329 393 1278 c 0,14,15
 393 1261 393 1261 397.5 1243 c 128,-1,16
 402 1225 402 1225 410 1202 c 2,17,-1
 635 537 l 2,18,19
 666 446 666 446 688 360.5 c 128,-1,20
 710 275 710 275 727 201 c 1,21,22
 743 275 743 275 765 358 c 128,-1,23
 787 441 787 441 821 537 c 2,24,-1
 1047 1188 l 2,25,26
 1055 1213 1055 1213 1060 1236 c 128,-1,27
 1065 1259 1065 1259 1065 1276 c 0,28,29
 1065 1329 1065 1329 1031.5 1352.5 c 128,-1,30
 998 1376 998 1376 930 1376 c 2,31,-1
 883 1376 l 1,32,-1
 883 1462 l 1,33,-1
 1382 1462 l 1,34,-1
 1382 1376 l 1,35,-1
 1343 1376 l 2,36,37
 1313 1376 1313 1376 1291.5 1370 c 128,-1,38
 1270 1364 1270 1364 1252.5 1346.5 c 128,-1,39
 1235 1329 1235 1329 1220 1298 c 128,-1,40
 1205 1267 1205 1267 1188 1217 c 2,41,-1
 764 0 l 1,42,-1
 614 0 l 1,0,-1
EndSplineSet
EndChar
StartChar: W
Encoding: 87 87 807
Width: 2144
GlyphClass: 2
Flags: W
LayerCount: 2
Fore
SplineSet
1180 1448 m 1,0,-1
 1436 561 l 2,1,2
 1465 459 1465 459 1487.5 365.5 c 128,-1,3
 1510 272 1510 272 1524 201 c 1,4,5
 1539 275 1539 275 1558.5 356.5 c 128,-1,6
 1578 438 1578 438 1606 537 c 2,7,-1
 1786 1169 l 2,8,9
 1789 1181 1789 1181 1793 1196 c 128,-1,10
 1797 1211 1797 1211 1800 1226 c 128,-1,11
 1803 1241 1803 1241 1805.5 1254 c 128,-1,12
 1808 1267 1808 1267 1808 1276 c 0,13,14
 1808 1329 1808 1329 1774.5 1352.5 c 128,-1,15
 1741 1376 1741 1376 1673 1376 c 2,16,-1
 1626 1376 l 1,17,-1
 1626 1462 l 1,18,-1
 2126 1462 l 1,19,-1
 2126 1376 l 1,20,-1
 2087 1376 l 2,21,22
 2057 1376 2057 1376 2034.5 1370 c 128,-1,23
 2012 1364 2012 1364 1994 1347 c 128,-1,24
 1976 1330 1976 1330 1961 1299 c 128,-1,25
 1946 1268 1946 1268 1931 1217 c 2,26,-1
 1585 0 l 1,27,-1
 1401 0 l 1,28,-1
 1067 1147 l 1,29,-1
 754 0 l 1,30,-1
 565 0 l 1,31,-1
 190 1268 l 2,32,33
 180 1300 180 1300 167.5 1321 c 128,-1,34
 155 1342 155 1342 138 1354 c 128,-1,35
 121 1366 121 1366 98 1371 c 128,-1,36
 75 1376 75 1376 45 1376 c 2,37,-1
 18 1376 l 1,38,-1
 18 1462 l 1,39,-1
 582 1462 l 1,40,-1
 582 1376 l 1,41,-1
 535 1376 l 2,42,43
 473 1376 473 1376 442.5 1352.5 c 128,-1,44
 412 1329 412 1329 412 1278 c 0,45,46
 412 1261 412 1261 417 1243 c 128,-1,47
 422 1225 422 1225 428 1202 c 2,48,-1
 616 547 l 2,49,50
 642 454 642 454 665 364.5 c 128,-1,51
 688 275 688 275 705 201 c 1,52,53
 720 281 720 281 740.5 375.5 c 128,-1,54
 761 470 761 470 788 569 c 2,55,-1
 1032 1448 l 1,56,-1
 1180 1448 l 1,0,-1
EndSplineSet
EndChar
StartChar: X
Encoding: 88 88 808
Width: 1352
GlyphClass: 2
Flags: W
LayerCount: 2
Fore
SplineSet
954 1317 m 0,0,1
 954 1335 954 1335 945.5 1346.5 c 128,-1,2
 937 1358 937 1358 922.5 1364.5 c 128,-1,3
 908 1371 908 1371 888 1373.5 c 128,-1,4
 868 1376 868 1376 844 1376 c 2,5,-1
 838 1376 l 1,6,-1
 838 1462 l 1,7,-1
 1286 1462 l 1,8,-1
 1286 1376 l 1,9,-1
 1268 1376 l 2,10,11
 1238 1376 1238 1376 1213.5 1369 c 128,-1,12
 1189 1362 1189 1362 1166 1344.5 c 128,-1,13
 1143 1327 1143 1327 1118.5 1299 c 128,-1,14
 1094 1271 1094 1271 1065 1229 c 2,15,-1
 768 801 l 1,16,-1
 1145 195 l 1,17,18
 1190 135 1190 135 1230 110.5 c 128,-1,19
 1270 86 1270 86 1309 86 c 2,20,-1
 1335 86 l 1,21,-1
 1335 0 l 1,22,-1
 782 0 l 1,23,-1
 782 86 l 1,24,-1
 793 86 l 2,25,26
 915 86 915 86 915 154 c 0,27,28
 915 165 915 165 912.5 176 c 128,-1,29
 910 187 910 187 903 202 c 128,-1,30
 896 217 896 217 882.5 239 c 128,-1,31
 869 261 869 261 848 295 c 2,32,-1
 645 621 l 1,33,-1
 418 285 l 2,34,35
 409 272 409 272 400 255.5 c 128,-1,36
 391 239 391 239 383 221 c 128,-1,37
 375 203 375 203 370 184.5 c 128,-1,38
 365 166 365 166 365 150 c 0,39,40
 365 115 365 115 397.5 100.5 c 128,-1,41
 430 86 430 86 498 86 c 2,42,-1
 504 86 l 1,43,-1
 504 0 l 1,44,-1
 16 0 l 1,45,-1
 16 86 l 1,46,-1
 29 86 l 2,47,48
 66 86 66 86 93.5 93.5 c 128,-1,49
 121 101 121 101 144.5 118 c 128,-1,50
 168 135 168 135 191 162 c 128,-1,51
 214 189 214 189 242 229 c 2,52,-1
 584 719 l 1,53,-1
 246 1268 l 2,54,55
 209 1327 209 1327 162.5 1351.5 c 128,-1,56
 116 1376 116 1376 70 1376 c 2,57,-1
 43 1376 l 1,58,-1
 43 1462 l 1,59,-1
 598 1462 l 1,60,-1
 598 1376 l 1,61,-1
 592 1376 l 2,62,63
 557 1376 557 1376 534 1371.5 c 128,-1,64
 511 1367 511 1367 498 1359 c 128,-1,65
 485 1351 485 1351 480 1340 c 128,-1,66
 475 1329 475 1329 475 1317 c 0,67,68
 475 1306 475 1306 476.5 1296 c 128,-1,69
 478 1286 478 1286 483 1272.5 c 128,-1,70
 488 1259 488 1259 497.5 1241 c 128,-1,71
 507 1223 507 1223 524 1196 c 2,72,-1
 709 897 l 1,73,-1
 903 1192 l 2,74,75
 926 1227 926 1227 940 1258 c 128,-1,76
 954 1289 954 1289 954 1317 c 0,0,1
EndSplineSet
EndChar
StartChar: Y
Encoding: 89 89 809
Width: 1280
GlyphClass: 2
Flags: W
LayerCount: 2
Fore
SplineSet
326 0 m 1,0,-1
 326 86 l 1,1,-1
 373 86 l 2,2,3
 407 86 407 86 437.5 90.5 c 128,-1,4
 468 95 468 95 491 109 c 128,-1,5
 514 123 514 123 527.5 150.5 c 128,-1,6
 541 178 541 178 541 223 c 2,7,-1
 541 610 l 1,8,-1
 162 1268 l 2,9,10
 145 1297 145 1297 130 1317.5 c 128,-1,11
 115 1338 115 1338 98.5 1351 c 128,-1,12
 82 1364 82 1364 62 1370 c 128,-1,13
 42 1376 42 1376 16 1376 c 2,14,-1
 -10 1376 l 1,15,-1
 -10 1462 l 1,16,-1
 553 1462 l 1,17,-1
 553 1376 l 1,18,-1
 477 1376 l 2,19,20
 449 1376 449 1376 431.5 1371 c 128,-1,21
 414 1366 414 1366 404 1357 c 128,-1,22
 394 1348 394 1348 390.5 1336 c 128,-1,23
 387 1324 387 1324 387 1311 c 0,24,25
 387 1282 387 1282 399.5 1253 c 128,-1,26
 412 1224 412 1224 424 1202 c 2,27,-1
 575 928 l 1,28,29
 611 865 611 865 636 803.5 c 128,-1,30
 661 742 661 742 678 694 c 1,31,32
 687 716 687 716 700.5 743 c 128,-1,33
 714 770 714 770 730.5 800.5 c 128,-1,34
 747 831 747 831 765 863.5 c 128,-1,35
 783 896 783 896 801 928 c 2,36,-1
 932 1163 l 2,37,38
 952 1198 952 1198 960.5 1229.5 c 128,-1,39
 969 1261 969 1261 969 1286 c 0,40,41
 969 1331 969 1331 937 1353.5 c 128,-1,42
 905 1376 905 1376 846 1376 c 2,43,-1
 786 1376 l 1,44,-1
 786 1462 l 1,45,-1
 1286 1462 l 1,46,-1
 1286 1376 l 1,47,-1
 1262 1376 l 2,48,49
 1240 1376 1240 1376 1220.5 1368.5 c 128,-1,50
 1201 1361 1201 1361 1181 1342.5 c 128,-1,51
 1161 1324 1161 1324 1139.5 1293.5 c 128,-1,52
 1118 1263 1118 1263 1092 1217 c 2,53,-1
 748 610 l 1,54,-1
 748 233 l 2,55,56
 748 185 748 185 761 156 c 128,-1,57
 774 127 774 127 797 111.5 c 128,-1,58
 820 96 820 96 850.5 91 c 128,-1,59
 881 86 881 86 915 86 c 2,60,-1
 963 86 l 1,61,-1
 963 0 l 1,62,-1
 326 0 l 1,0,-1
EndSplineSet
EndChar
StartChar: Z
Encoding: 90 90 810
Width: 1212
GlyphClass: 2
Flags: W
LayerCount: 2
Fore
SplineSet
1094 1378 m 1,0,-1
 324 102 l 1,1,-1
 840 102 l 2,2,3
 886 102 886 102 917 115.5 c 128,-1,4
 948 129 948 129 967 152 c 128,-1,5
 986 175 986 175 996 205.5 c 128,-1,6
 1006 236 1006 236 1010 270 c 2,7,-1
 1020 358 l 1,8,-1
 1126 358 l 1,9,-1
 1116 0 l 1,10,-1
 74 0 l 1,11,-1
 74 82 l 1,12,-1
 842 1360 l 1,13,-1
 397 1360 l 2,14,15
 352 1360 352 1360 321.5 1346.5 c 128,-1,16
 291 1333 291 1333 272 1310 c 128,-1,17
 253 1287 253 1287 243 1256.5 c 128,-1,18
 233 1226 233 1226 229 1192 c 2,19,-1
 219 1104 l 1,20,-1
 113 1104 l 1,21,-1
 123 1462 l 1,22,-1
 1094 1462 l 1,23,-1
 1094 1378 l 1,0,-1
EndSplineSet
EndChar
StartChar: bracketleft
Encoding: 91 91 811
Width: 735
GlyphClass: 2
Flags: W
LayerCount: 2
Fore
SplineSet
205 -262 m 1,0,-1
 205 1556 l 1,1,-1
 662 1556 l 1,2,-1
 662 1470 l 1,3,-1
 573 1470 l 2,4,5
 539 1470 539 1470 508.5 1465 c 128,-1,6
 478 1460 478 1460 455 1444.5 c 128,-1,7
 432 1429 432 1429 419 1400 c 128,-1,8
 406 1371 406 1371 406 1323 c 2,9,-1
 406 -29 l 2,10,11
 406 -77 406 -77 419 -106 c 128,-1,12
 432 -135 432 -135 455 -150.5 c 128,-1,13
 478 -166 478 -166 508.5 -171 c 128,-1,14
 539 -176 539 -176 573 -176 c 2,15,-1
 662 -176 l 1,16,-1
 662 -262 l 1,17,-1
 205 -262 l 1,0,-1
EndSplineSet
EndChar
StartChar: bracketright
Encoding: 93 93 813
Width: 737
GlyphClass: 2
Flags: W
LayerCount: 2
Fore
SplineSet
76 -262 m 1,0,-1
 76 -176 l 1,1,-1
 164 -176 l 2,2,3
 199 -176 199 -176 229.5 -171 c 128,-1,4
 260 -166 260 -166 282.5 -150.5 c 128,-1,5
 305 -135 305 -135 318.5 -106 c 128,-1,6
 332 -77 332 -77 332 -29 c 2,7,-1
 332 1323 l 2,8,9
 332 1371 332 1371 318.5 1400 c 128,-1,10
 305 1429 305 1429 282.5 1444.5 c 128,-1,11
 260 1460 260 1460 229.5 1465 c 128,-1,12
 199 1470 199 1470 164 1470 c 2,13,-1
 76 1470 l 1,14,-1
 76 1556 l 1,15,-1
 532 1556 l 1,16,-1
 532 -262 l 1,17,-1
 76 -262 l 1,0,-1
EndSplineSet
EndChar
StartChar: asciicircum
Encoding: 94 94 814
Width: 1145
GlyphClass: 2
Flags: W
LayerCount: 2
Fore
SplineSet
535 1462 m 1,0,-1
 606 1462 l 1,1,-1
 1038 545 l 1,2,-1
 901 545 l 1,3,-1
 569 1274 l 1,4,-1
 242 545 l 1,5,-1
 104 545 l 1,6,-1
 535 1462 l 1,0,-1
EndSplineSet
EndChar
StartChar: underscore
Encoding: 95 95 815
Width: 940
GlyphClass: 2
Flags: W
LayerCount: 2
Fore
SplineSet
950 -291 m 1,0,-1
 -10 -291 l 1,1,-1
 -10 -170 l 1,2,-1
 950 -170 l 1,3,-1
 950 -291 l 1,0,-1
EndSplineSet
EndChar
StartChar: grave
Encoding: 96 96 816
Width: 1182
GlyphClass: 2
Flags: W
LayerCount: 2
Fore
SplineSet
791 1241 m 1,0,-1
 713 1241 l 1,1,2
 672 1269 672 1269 624 1310.5 c 128,-1,3
 576 1352 576 1352 531 1396 c 128,-1,4
 486 1440 486 1440 449 1480.5 c 128,-1,5
 412 1521 412 1521 393 1548 c 1,6,-1
 393 1569 l 1,7,-1
 612 1569 l 1,8,9
 628 1535 628 1535 649.5 1494.5 c 128,-1,10
 671 1454 671 1454 695 1413.5 c 128,-1,11
 719 1373 719 1373 744 1335 c 128,-1,12
 769 1297 769 1297 791 1268 c 1,13,-1
 791 1241 l 1,0,-1
EndSplineSet
EndChar
StartChar: a
Encoding: 97 97 817
Width: 1153
GlyphClass: 2
Flags: W
LayerCount: 2
Fore
SplineSet
301 297 m 0,0,1
 301 201 301 201 341.5 153.5 c 128,-1,2
 382 106 382 106 467 106 c 0,3,4
 529 106 529 106 579.5 126 c 128,-1,5
 630 146 630 146 665.5 183 c 128,-1,6
 701 220 701 220 720 273 c 128,-1,7
 739 326 739 326 739 391 c 2,8,-1
 739 557 l 1,9,-1
 608 551 l 2,10,11
 521 547 521 547 462.5 529.5 c 128,-1,12
 404 512 404 512 368 480.5 c 128,-1,13
 332 449 332 449 316.5 403 c 128,-1,14
 301 357 301 357 301 297 c 0,0,1
549 1016 m 0,15,16
 490 1016 490 1016 453.5 999.5 c 128,-1,17
 417 983 417 983 396.5 953 c 128,-1,18
 376 923 376 923 369 882 c 128,-1,19
 362 841 362 841 362 793 c 1,20,21
 277 793 277 793 232.5 822 c 128,-1,22
 188 851 188 851 188 922 c 0,23,24
 188 975 188 975 217 1012 c 128,-1,25
 246 1049 246 1049 296.5 1072.5 c 128,-1,26
 347 1096 347 1096 414 1107 c 128,-1,27
 481 1118 481 1118 557 1118 c 0,28,29
 651 1118 651 1118 721 1099.5 c 128,-1,30
 791 1081 791 1081 838 1039 c 128,-1,31
 885 997 885 997 908.5 929.5 c 128,-1,32
 932 862 932 862 932 764 c 2,33,-1
 932 233 l 2,34,35
 932 190 932 190 939 162 c 128,-1,36
 946 134 946 134 961 117 c 128,-1,37
 976 100 976 100 1000.5 93 c 128,-1,38
 1025 86 1025 86 1059 86 c 2,39,-1
 1065 86 l 1,40,-1
 1065 0 l 1,41,-1
 788 0 l 1,42,-1
 756 176 l 1,43,-1
 739 176 l 1,44,45
 707 133 707 133 677 97 c 128,-1,46
 647 61 647 61 611 35 c 128,-1,47
 575 9 575 9 529.5 -5.5 c 128,-1,48
 484 -20 484 -20 420 -20 c 0,49,50
 352 -20 352 -20 293.5 -0.5 c 128,-1,51
 235 19 235 19 192.5 59.5 c 128,-1,52
 150 100 150 100 126 161.5 c 128,-1,53
 102 223 102 223 102 307 c 0,54,55
 102 470 102 470 218 549 c 128,-1,56
 334 628 334 628 569 635 c 1,57,-1
 739 641 l 1,58,-1
 739 764 l 2,59,60
 739 819 739 819 733 865.5 c 128,-1,61
 727 912 727 912 707 945.5 c 128,-1,62
 687 979 687 979 649.5 997.5 c 128,-1,63
 612 1016 612 1016 549 1016 c 0,15,16
EndSplineSet
EndChar
StartChar: b
Encoding: 98 98 818
Width: 1257
GlyphClass: 2
Flags: W
LayerCount: 2
Fore
SplineSet
1145 551 m 0,0,1
 1145 403 1145 403 1117.5 295 c 128,-1,2
 1090 187 1090 187 1037 117 c 128,-1,3
 984 47 984 47 906 13.5 c 128,-1,4
 828 -20 828 -20 727 -20 c 0,5,6
 668 -20 668 -20 620 -7 c 128,-1,7
 572 6 572 6 533.5 30 c 128,-1,8
 495 54 495 54 465.5 87 c 128,-1,9
 436 120 436 120 414 160 c 1,10,-1
 401 160 l 1,11,-1
 365 0 l 1,12,-1
 37 0 l 1,13,-1
 37 86 l 1,14,-1
 53 86 l 2,15,16
 88 86 88 86 118.5 91 c 128,-1,17
 149 96 149 96 171.5 111.5 c 128,-1,18
 194 127 194 127 207.5 156 c 128,-1,19
 221 185 221 185 221 233 c 2,20,-1
 221 1331 l 2,21,22
 221 1376 221 1376 207.5 1403.5 c 128,-1,23
 194 1431 194 1431 171 1446 c 128,-1,24
 148 1461 148 1461 117.5 1465.5 c 128,-1,25
 87 1470 87 1470 53 1470 c 2,26,-1
 37 1470 l 1,27,-1
 37 1556 l 1,28,-1
 414 1556 l 1,29,-1
 414 1180 l 2,30,31
 414 1145 414 1145 413 1099.5 c 128,-1,32
 412 1054 412 1054 410 1012 c 0,33,34
 408 964 408 964 406 913 c 1,35,-1
 414 913 l 1,36,37
 437 960 437 960 466 998 c 128,-1,38
 495 1036 495 1036 533 1062.5 c 128,-1,39
 571 1089 571 1089 619 1103.5 c 128,-1,40
 667 1118 667 1118 727 1118 c 0,41,42
 828 1118 828 1118 906 1084.5 c 128,-1,43
 984 1051 984 1051 1037 981.5 c 128,-1,44
 1090 912 1090 912 1117.5 805 c 128,-1,45
 1145 698 1145 698 1145 551 c 0,0,1
692 987 m 0,46,47
 612 987 612 987 558.5 960.5 c 128,-1,48
 505 934 505 934 473 880 c 128,-1,49
 441 826 441 826 427.5 744 c 128,-1,50
 414 662 414 662 414 551 c 0,51,52
 414 444 414 444 427.5 362 c 128,-1,53
 441 280 441 280 473.5 224 c 128,-1,54
 506 168 506 168 559.5 139.5 c 128,-1,55
 613 111 613 111 694 111 c 0,56,57
 762 111 762 111 809.5 139.5 c 128,-1,58
 857 168 857 168 887.5 224 c 128,-1,59
 918 280 918 280 932 362.5 c 128,-1,60
 946 445 946 445 946 553 c 0,61,62
 946 662 946 662 932 743.5 c 128,-1,63
 918 825 918 825 887.5 879 c 128,-1,64
 857 933 857 933 808.5 960 c 128,-1,65
 760 987 760 987 692 987 c 0,46,47
EndSplineSet
EndChar
StartChar: c
Encoding: 99 99 819
Width: 1008
GlyphClass: 2
Flags: W
LayerCount: 2
Fore
SplineSet
580 -20 m 0,0,1
 478 -20 478 -20 392 11.5 c 128,-1,2
 306 43 306 43 244 111 c 128,-1,3
 182 179 182 179 147.5 285.5 c 128,-1,4
 113 392 113 392 113 543 c 0,5,6
 113 707 113 707 147.5 817.5 c 128,-1,7
 182 928 182 928 243.5 995 c 128,-1,8
 305 1062 305 1062 388.5 1090 c 128,-1,9
 472 1118 472 1118 569 1118 c 0,10,11
 633 1118 633 1118 696.5 1105.5 c 128,-1,12
 760 1093 760 1093 811 1067 c 128,-1,13
 862 1041 862 1041 894 1001.5 c 128,-1,14
 926 962 926 962 926 909 c 0,15,16
 926 838 926 838 880 809 c 128,-1,17
 834 780 834 780 743 780 c 1,18,19
 743 828 743 828 735 871 c 128,-1,20
 727 914 727 914 707.5 946.5 c 128,-1,21
 688 979 688 979 654.5 997.5 c 128,-1,22
 621 1016 621 1016 569 1016 c 0,23,24
 510 1016 510 1016 462.5 994 c 128,-1,25
 415 972 415 972 381 918 c 128,-1,26
 347 864 347 864 329 773 c 128,-1,27
 311 682 311 682 311 545 c 0,28,29
 311 327 311 327 383.5 220 c 128,-1,30
 456 113 456 113 621 113 c 0,31,32
 716 113 716 113 787 153 c 128,-1,33
 858 193 858 193 893 256 c 1,34,35
 908 244 908 244 918 224 c 128,-1,36
 928 204 928 204 928 176 c 0,37,38
 928 141 928 141 906 106 c 128,-1,39
 884 71 884 71 840.5 43 c 128,-1,40
 797 15 797 15 732 -2.5 c 128,-1,41
 667 -20 667 -20 580 -20 c 0,0,1
EndSplineSet
EndChar
StartChar: d
Encoding: 100 100 820
Width: 1257
GlyphClass: 2
Flags: W
LayerCount: 2
Fore
SplineSet
1036 225 m 2,0,1
 1036 180 1036 180 1049.5 152.5 c 128,-1,2
 1063 125 1063 125 1086 110 c 128,-1,3
 1109 95 1109 95 1139.5 90.5 c 128,-1,4
 1170 86 1170 86 1204 86 c 2,5,-1
 1221 86 l 1,6,-1
 1221 0 l 1,7,-1
 874 0 l 1,8,-1
 852 184 l 1,9,-1
 844 184 l 1,10,11
 821 137 821 137 791.5 99.5 c 128,-1,12
 762 62 762 62 724 35.5 c 128,-1,13
 686 9 686 9 638 -5.5 c 128,-1,14
 590 -20 590 -20 530 -20 c 0,15,16
 429 -20 429 -20 351 13.5 c 128,-1,17
 273 47 273 47 220 116.5 c 128,-1,18
 167 186 167 186 140 293 c 128,-1,19
 113 400 113 400 113 547 c 0,20,21
 113 695 113 695 140 803 c 128,-1,22
 167 911 167 911 220 981 c 128,-1,23
 273 1051 273 1051 351 1084.5 c 128,-1,24
 429 1118 429 1118 530 1118 c 0,25,26
 589 1118 589 1118 637 1105 c 128,-1,27
 685 1092 685 1092 723.5 1068 c 128,-1,28
 762 1044 762 1044 792 1011 c 128,-1,29
 822 978 822 978 844 938 c 1,30,-1
 856 938 l 1,31,32
 853 988 853 988 850 1032 c 0,33,34
 848 1070 848 1070 846 1107.5 c 128,-1,35
 844 1145 844 1145 844 1163 c 2,36,-1
 844 1331 l 2,37,38
 844 1376 844 1376 830.5 1403.5 c 128,-1,39
 817 1431 817 1431 794 1446 c 128,-1,40
 771 1461 771 1461 740.5 1465.5 c 128,-1,41
 710 1470 710 1470 676 1470 c 2,42,-1
 659 1470 l 1,43,-1
 659 1556 l 1,44,-1
 1036 1556 l 1,45,-1
 1036 225 l 2,0,1
565 111 m 0,46,47
 645 111 645 111 698.5 137.5 c 128,-1,48
 752 164 752 164 784.5 218 c 128,-1,49
 817 272 817 272 830.5 354 c 128,-1,50
 844 436 844 436 844 547 c 0,51,52
 844 654 844 654 830.5 736 c 128,-1,53
 817 818 817 818 784.5 873.5 c 128,-1,54
 752 929 752 929 698 958 c 128,-1,55
 644 987 644 987 563 987 c 0,56,57
 496 987 496 987 448 958 c 128,-1,58
 400 929 400 929 369.5 873 c 128,-1,59
 339 817 339 817 325 734.5 c 128,-1,60
 311 652 311 652 311 545 c 0,61,62
 311 327 311 327 370 219 c 128,-1,63
 429 111 429 111 565 111 c 0,46,47
EndSplineSet
EndChar
StartChar: e
Encoding: 101 101 821
Width: 1096
GlyphClass: 2
Flags: W
LayerCount: 2
Fore
SplineSet
563 1008 m 0,0,1
 449 1008 449 1008 387.5 915.5 c 128,-1,2
 326 823 326 823 315 645 c 1,3,-1
 786 645 l 1,4,5
 786 726 786 726 774 793 c 128,-1,6
 762 860 762 860 736 908 c 128,-1,7
 710 956 710 956 667.5 982 c 128,-1,8
 625 1008 625 1008 563 1008 c 0,0,1
588 -20 m 0,9,10
 477 -20 477 -20 388.5 17.5 c 128,-1,11
 300 55 300 55 239 127 c 128,-1,12
 178 199 178 199 145.5 303.5 c 128,-1,13
 113 408 113 408 113 541 c 0,14,15
 113 828 113 828 231 973 c 128,-1,16
 349 1118 349 1118 567 1118 c 0,17,18
 666 1118 666 1118 745 1087 c 128,-1,19
 824 1056 824 1056 879 994.5 c 128,-1,20
 934 933 934 933 963.5 841.5 c 128,-1,21
 993 750 993 750 993 629 c 2,22,-1
 993 535 l 1,23,-1
 311 535 l 1,24,25
 313 423 313 423 333.5 342.5 c 128,-1,26
 354 262 354 262 392.5 210 c 128,-1,27
 431 158 431 158 487 133.5 c 128,-1,28
 543 109 543 109 616 109 c 0,29,30
 669 109 669 109 714.5 121 c 128,-1,31
 760 133 760 133 797 153 c 128,-1,32
 834 173 834 173 862.5 198.5 c 128,-1,33
 891 224 891 224 909 252 c 1,34,35
 923 246 923 246 935.5 227 c 128,-1,36
 948 208 948 208 948 182 c 0,37,38
 948 151 948 151 926 115.5 c 128,-1,39
 904 80 904 80 859 50 c 128,-1,40
 814 20 814 20 746.5 0 c 128,-1,41
 679 -20 679 -20 588 -20 c 0,9,10
EndSplineSet
EndChar
StartChar: f
Encoding: 102 102 822
Width: 756
GlyphClass: 2
Flags: W
LayerCount: 2
Fore
SplineSet
688 86 m 1,0,-1
 688 0 l 1,1,-1
 55 0 l 1,2,-1
 55 86 l 1,3,-1
 82 86 l 2,4,5
 117 86 117 86 147.5 91 c 128,-1,6
 178 96 178 96 200.5 111.5 c 128,-1,7
 223 127 223 127 236.5 156 c 128,-1,8
 250 185 250 185 250 233 c 2,9,-1
 250 1001 l 1,10,-1
 63 1001 l 1,11,-1
 63 1098 l 1,12,-1
 250 1098 l 1,13,-1
 250 1200 l 2,14,15
 250 1292 250 1292 275 1362 c 128,-1,16
 300 1432 300 1432 347 1480 c 128,-1,17
 394 1528 394 1528 461 1552.5 c 128,-1,18
 528 1577 528 1577 612 1577 c 0,19,20
 692 1577 692 1577 747 1566.5 c 128,-1,21
 802 1556 802 1556 835.5 1537 c 128,-1,22
 869 1518 869 1518 884 1492 c 128,-1,23
 899 1466 899 1466 899 1434 c 0,24,25
 899 1406 899 1406 886.5 1384.5 c 128,-1,26
 874 1363 874 1363 851.5 1348.5 c 128,-1,27
 829 1334 829 1334 798.5 1326.5 c 128,-1,28
 768 1319 768 1319 731 1319 c 1,29,30
 731 1350 731 1350 724.5 1379.5 c 128,-1,31
 718 1409 718 1409 702.5 1432 c 128,-1,32
 687 1455 687 1455 661 1469 c 128,-1,33
 635 1483 635 1483 596 1483 c 0,34,35
 552 1483 552 1483 522.5 1466 c 128,-1,36
 493 1449 493 1449 475 1415.5 c 128,-1,37
 457 1382 457 1382 449.5 1333 c 128,-1,38
 442 1284 442 1284 442 1219 c 2,39,-1
 442 1098 l 1,40,-1
 731 1098 l 1,41,-1
 731 1001 l 1,42,-1
 442 1001 l 1,43,-1
 442 233 l 2,44,45
 442 185 442 185 455.5 156 c 128,-1,46
 469 127 469 127 491.5 111.5 c 128,-1,47
 514 96 514 96 545 91 c 128,-1,48
 576 86 576 86 610 86 c 2,49,-1
 688 86 l 1,0,-1
EndSplineSet
EndChar
StartChar: g
Encoding: 103 103 823
Width: 1102
GlyphClass: 2
Flags: W
LayerCount: 2
Fore
SplineSet
1077 1055 m 0,0,1
 1077 1033 1077 1033 1070.5 1013.5 c 128,-1,2
 1064 994 1064 994 1051 979.5 c 128,-1,3
 1038 965 1038 965 1017.5 956.5 c 128,-1,4
 997 948 997 948 969 948 c 1,5,6
 969 960 969 960 966 972 c 128,-1,7
 963 984 963 984 955.5 994.5 c 128,-1,8
 948 1005 948 1005 935 1011.5 c 128,-1,9
 922 1018 922 1018 901 1018 c 0,10,11
 875 1018 875 1018 854 1012 c 128,-1,12
 833 1006 833 1006 813 993 c 1,13,14
 848 950 848 950 870.5 891.5 c 128,-1,15
 893 833 893 833 893 745 c 0,16,17
 893 669 893 669 870 604.5 c 128,-1,18
 847 540 847 540 801.5 493 c 128,-1,19
 756 446 756 446 686.5 419.5 c 128,-1,20
 617 393 617 393 524 393 c 0,21,22
 512 393 512 393 497 393.5 c 128,-1,23
 482 394 482 394 467 394.5 c 128,-1,24
 452 395 452 395 439 396.5 c 128,-1,25
 426 398 426 398 418 399 c 1,26,27
 398 389 398 389 380 377 c 128,-1,28
 362 365 362 365 348.5 350 c 128,-1,29
 335 335 335 335 327 316 c 128,-1,30
 319 297 319 297 319 274 c 0,31,32
 319 249 319 249 328.5 234 c 128,-1,33
 338 219 338 219 355 210.5 c 128,-1,34
 372 202 372 202 395.5 199.5 c 128,-1,35
 419 197 419 197 446 197 c 2,36,-1
 678 197 l 2,37,38
 770 197 770 197 834 174 c 128,-1,39
 898 151 898 151 938.5 110.5 c 128,-1,40
 979 70 979 70 997.5 13.5 c 128,-1,41
 1016 -43 1016 -43 1016 -109 c 0,42,43
 1016 -197 1016 -197 983.5 -268 c 128,-1,44
 951 -339 951 -339 884 -388.5 c 128,-1,45
 817 -438 817 -438 714.5 -465 c 128,-1,46
 612 -492 612 -492 473 -492 c 0,47,48
 259 -492 259 -492 153 -413 c 128,-1,49
 47 -334 47 -334 47 -193 c 0,50,51
 47 -133 47 -133 68 -88 c 128,-1,52
 89 -43 89 -43 124.5 -11 c 128,-1,53
 160 21 160 21 206 41 c 128,-1,54
 252 61 252 61 303 70 c 1,55,56
 282 79 282 79 262 94 c 128,-1,57
 242 109 242 109 226 130 c 128,-1,58
 210 151 210 151 200 178 c 128,-1,59
 190 205 190 205 190 238 c 0,60,61
 190 299 190 299 222 343.5 c 128,-1,62
 254 388 254 388 324 430 c 1,63,64
 280 448 280 448 245.5 479.5 c 128,-1,65
 211 511 211 511 187.5 551.5 c 128,-1,66
 164 592 164 592 151.5 640 c 128,-1,67
 139 688 139 688 139 739 c 0,68,69
 139 828 139 828 163 898 c 128,-1,70
 187 968 187 968 235 1017 c 128,-1,71
 283 1066 283 1066 355 1092 c 128,-1,72
 427 1118 427 1118 524 1118 c 0,73,74
 561 1118 561 1118 597 1112.5 c 128,-1,75
 633 1107 633 1107 663.5 1097.5 c 128,-1,76
 694 1088 694 1088 718.5 1076 c 128,-1,77
 743 1064 743 1064 758 1051 c 1,78,79
 773 1067 773 1067 793 1086.5 c 128,-1,80
 813 1106 813 1106 838 1122.5 c 128,-1,81
 863 1139 863 1139 892.5 1150 c 128,-1,82
 922 1161 922 1161 956 1161 c 0,83,84
 987 1161 987 1161 1009.5 1152.5 c 128,-1,85
 1032 1144 1032 1144 1047 1129.5 c 128,-1,86
 1062 1115 1062 1115 1069.5 1095.5 c 128,-1,87
 1077 1076 1077 1076 1077 1055 c 0,0,1
213 -180 m 0,88,89
 213 -225 213 -225 225 -264 c 128,-1,90
 237 -303 237 -303 267 -331 c 128,-1,91
 297 -359 297 -359 348 -375 c 128,-1,92
 399 -391 399 -391 477 -391 c 0,93,94
 587 -391 587 -391 658.5 -372.5 c 128,-1,95
 730 -354 730 -354 772 -321 c 128,-1,96
 814 -288 814 -288 831 -242.5 c 128,-1,97
 848 -197 848 -197 848 -143 c 0,98,99
 848 -96 848 -96 834.5 -65.5 c 128,-1,100
 821 -35 821 -35 794.5 -17.5 c 128,-1,101
 768 0 768 0 729 7 c 128,-1,102
 690 14 690 14 639 14 c 2,103,-1
 438 14 l 2,104,105
 395 14 395 14 354.5 6.5 c 128,-1,106
 314 -1 314 -1 282.5 -22 c 128,-1,107
 251 -43 251 -43 232 -81 c 128,-1,108
 213 -119 213 -119 213 -180 c 0,88,89
332 745 m 0,109,110
 332 614 332 614 375.5 553 c 128,-1,111
 419 492 419 492 518 492 c 0,112,113
 568 492 568 492 602.5 507 c 128,-1,114
 637 522 637 522 659 553 c 128,-1,115
 681 584 681 584 690.5 632.5 c 128,-1,116
 700 681 700 681 700 748 c 0,117,118
 700 886 700 886 658 952 c 128,-1,119
 616 1018 616 1018 516 1018 c 0,120,121
 417 1018 417 1018 374.5 950.5 c 128,-1,122
 332 883 332 883 332 745 c 0,109,110
EndSplineSet
EndChar
StartChar: h
Encoding: 104 104 824
Width: 1300
GlyphClass: 2
Flags: W
LayerCount: 2
Fore
SplineSet
588 86 m 1,0,-1
 588 0 l 1,1,-1
 37 0 l 1,2,-1
 37 86 l 1,3,-1
 53 86 l 2,4,5
 88 86 88 86 118.5 91 c 128,-1,6
 149 96 149 96 171.5 111.5 c 128,-1,7
 194 127 194 127 207.5 156 c 128,-1,8
 221 185 221 185 221 233 c 2,9,-1
 221 1331 l 2,10,11
 221 1376 221 1376 207.5 1403.5 c 128,-1,12
 194 1431 194 1431 171 1446 c 128,-1,13
 148 1461 148 1461 117.5 1465.5 c 128,-1,14
 87 1470 87 1470 53 1470 c 2,15,-1
 37 1470 l 1,16,-1
 37 1556 l 1,17,-1
 414 1556 l 1,18,-1
 414 1106 l 2,19,20
 414 1078 414 1078 413 1047.5 c 128,-1,21
 412 1017 412 1017 410 991 c 0,22,23
 408 961 408 961 406 932 c 1,24,-1
 416 932 l 1,25,26
 508 1118 508 1118 717 1118 c 0,27,28
 804 1118 804 1118 871.5 1094.5 c 128,-1,29
 939 1071 939 1071 985 1022.5 c 128,-1,30
 1031 974 1031 974 1055 898 c 128,-1,31
 1079 822 1079 822 1079 717 c 2,32,-1
 1079 233 l 2,33,34
 1079 185 1079 185 1091 156 c 128,-1,35
 1103 127 1103 127 1124 111.5 c 128,-1,36
 1145 96 1145 96 1174 91 c 128,-1,37
 1203 86 1203 86 1237 86 c 2,38,-1
 1243 86 l 1,39,-1
 1243 0 l 1,40,-1
 887 0 l 1,41,-1
 887 707 l 2,42,43
 887 774 887 774 875 826 c 128,-1,44
 863 878 863 878 836.5 914 c 128,-1,45
 810 950 810 950 767 968.5 c 128,-1,46
 724 987 724 987 662 987 c 0,47,48
 598 987 598 987 551.5 963.5 c 128,-1,49
 505 940 505 940 474.5 896.5 c 128,-1,50
 444 853 444 853 429 791.5 c 128,-1,51
 414 730 414 730 414 655 c 2,52,-1
 414 223 l 2,53,54
 414 178 414 178 427.5 150.5 c 128,-1,55
 441 123 441 123 464 109 c 128,-1,56
 487 95 487 95 517.5 90.5 c 128,-1,57
 548 86 548 86 582 86 c 2,58,-1
 588 86 l 1,0,-1
EndSplineSet
EndChar
StartChar: i
Encoding: 105 105 825
Width: 655
GlyphClass: 2
Flags: W
LayerCount: 2
Fore
SplineSet
74 86 m 2,0,1
 108 86 108 86 138.5 90.5 c 128,-1,2
 169 95 169 95 192 109 c 128,-1,3
 215 123 215 123 228.5 150.5 c 128,-1,4
 242 178 242 178 242 223 c 2,5,-1
 242 872 l 2,6,7
 242 917 242 917 228.5 944.5 c 128,-1,8
 215 972 215 972 192 987 c 128,-1,9
 169 1002 169 1002 138.5 1007 c 128,-1,10
 108 1012 108 1012 74 1012 c 2,11,-1
 68 1012 l 1,12,-1
 68 1098 l 1,13,-1
 434 1098 l 1,14,-1
 434 233 l 2,15,16
 434 185 434 185 447.5 156 c 128,-1,17
 461 127 461 127 483.5 111.5 c 128,-1,18
 506 96 506 96 537 91 c 128,-1,19
 568 86 568 86 602 86 c 2,20,-1
 629 86 l 1,21,-1
 629 0 l 1,22,-1
 47 0 l 1,23,-1
 47 86 l 1,24,-1
 74 86 l 2,0,1
213 1430 m 256,25,26
 213 1466 213 1466 222 1490 c 128,-1,27
 231 1514 231 1514 247 1529 c 128,-1,28
 263 1544 263 1544 284 1550 c 128,-1,29
 305 1556 305 1556 330 1556 c 0,30,31
 354 1556 354 1556 375 1550 c 128,-1,32
 396 1544 396 1544 411.5 1529 c 128,-1,33
 427 1514 427 1514 436.5 1490 c 128,-1,34
 446 1466 446 1466 446 1430 c 256,35,36
 446 1394 446 1394 436.5 1370 c 128,-1,37
 427 1346 427 1346 411.5 1331 c 128,-1,38
 396 1316 396 1316 375 1309.5 c 128,-1,39
 354 1303 354 1303 330 1303 c 0,40,41
 305 1303 305 1303 284 1309.5 c 128,-1,42
 263 1316 263 1316 247 1331 c 128,-1,43
 231 1346 231 1346 222 1370 c 128,-1,44
 213 1394 213 1394 213 1430 c 256,25,26
EndSplineSet
EndChar
StartChar: j
Encoding: 106 106 826
Width: 614
GlyphClass: 2
Flags: W
LayerCount: 2
Fore
SplineSet
414 1098 m 1,0,-1
 414 -16 l 2,1,2
 414 -154 414 -154 384 -245.5 c 128,-1,3
 354 -337 354 -337 300 -391.5 c 128,-1,4
 246 -446 246 -446 171.5 -469 c 128,-1,5
 97 -492 97 -492 8 -492 c 2,6,-1
 -25 -492 l 1,7,-1
 -25 -395 l 1,8,-1
 -10 -395 l 2,9,10
 45 -395 45 -395 88 -376.5 c 128,-1,11
 131 -358 131 -358 160.5 -314.5 c 128,-1,12
 190 -271 190 -271 205.5 -198.5 c 128,-1,13
 221 -126 221 -126 221 -18 c 2,14,-1
 221 872 l 2,15,16
 221 917 221 917 207.5 944.5 c 128,-1,17
 194 972 194 972 171 987 c 128,-1,18
 148 1002 148 1002 117.5 1007 c 128,-1,19
 87 1012 87 1012 53 1012 c 2,20,-1
 47 1012 l 1,21,-1
 47 1098 l 1,22,-1
 414 1098 l 1,0,-1
193 1430 m 256,23,24
 193 1466 193 1466 202 1490 c 128,-1,25
 211 1514 211 1514 226.5 1529 c 128,-1,26
 242 1544 242 1544 263.5 1550 c 128,-1,27
 285 1556 285 1556 309 1556 c 256,28,29
 333 1556 333 1556 354.5 1550 c 128,-1,30
 376 1544 376 1544 391.5 1529 c 128,-1,31
 407 1514 407 1514 416.5 1490 c 128,-1,32
 426 1466 426 1466 426 1430 c 256,33,34
 426 1394 426 1394 416.5 1370 c 128,-1,35
 407 1346 407 1346 391.5 1331 c 128,-1,36
 376 1316 376 1316 354.5 1309.5 c 128,-1,37
 333 1303 333 1303 309 1303 c 256,38,39
 285 1303 285 1303 263.5 1309.5 c 128,-1,40
 242 1316 242 1316 226.5 1331 c 128,-1,41
 211 1346 211 1346 202 1370 c 128,-1,42
 193 1394 193 1394 193 1430 c 256,23,24
EndSplineSet
EndChar
StartChar: k
Encoding: 107 107 827
Width: 1198
GlyphClass: 2
Flags: W
LayerCount: 2
Fore
SplineSet
694 659 m 1,0,-1
 967 254 l 1,1,2
 1020 172 1020 172 1072.5 129 c 128,-1,3
 1125 86 1125 86 1194 86 c 2,4,-1
 1200 86 l 1,5,-1
 1200 0 l 1,6,-1
 1171 0 l 2,7,8
 1082 0 1082 0 1024.5 5.5 c 128,-1,9
 967 11 967 11 925 31.5 c 128,-1,10
 883 52 883 52 848 91.5 c 128,-1,11
 813 131 813 131 770 199 c 2,12,-1
 565 520 l 1,13,-1
 414 408 l 1,14,-1
 414 223 l 2,15,16
 414 178 414 178 427.5 150.5 c 128,-1,17
 441 123 441 123 464 109 c 128,-1,18
 487 95 487 95 517.5 90.5 c 128,-1,19
 548 86 548 86 582 86 c 2,20,-1
 588 86 l 1,21,-1
 588 0 l 1,22,-1
 37 0 l 1,23,-1
 37 86 l 1,24,-1
 53 86 l 2,25,26
 88 86 88 86 118.5 91 c 128,-1,27
 149 96 149 96 171.5 111.5 c 128,-1,28
 194 127 194 127 207.5 156 c 128,-1,29
 221 185 221 185 221 233 c 2,30,-1
 221 1331 l 2,31,32
 221 1376 221 1376 207.5 1403.5 c 128,-1,33
 194 1431 194 1431 171 1446 c 128,-1,34
 148 1461 148 1461 117.5 1465.5 c 128,-1,35
 87 1470 87 1470 53 1470 c 2,36,-1
 37 1470 l 1,37,-1
 37 1556 l 1,38,-1
 414 1556 l 1,39,-1
 414 766 l 2,40,41
 414 738 414 738 413 694.5 c 128,-1,42
 412 651 412 651 410 609 c 0,43,44
 408 561 408 561 406 508 c 1,45,-1
 662 788 l 2,46,47
 695 825 695 825 716.5 853 c 128,-1,48
 738 881 738 881 751 902 c 128,-1,49
 764 923 764 923 769 939.5 c 128,-1,50
 774 956 774 956 774 971 c 0,51,52
 774 997 774 997 749.5 1004.5 c 128,-1,53
 725 1012 725 1012 674 1012 c 1,54,-1
 674 1098 l 1,55,-1
 1126 1098 l 1,56,-1
 1126 1012 l 1,57,58
 1055 1012 1055 1012 986.5 962 c 128,-1,59
 918 912 918 912 838 821 c 2,60,-1
 694 659 l 1,0,-1
EndSplineSet
EndChar
StartChar: l
Encoding: 108 108 828
Width: 635
GlyphClass: 2
Flags: W
LayerCount: 2
Fore
SplineSet
53 86 m 2,0,1
 88 86 88 86 118.5 91 c 128,-1,2
 149 96 149 96 171.5 111.5 c 128,-1,3
 194 127 194 127 207.5 156 c 128,-1,4
 221 185 221 185 221 233 c 2,5,-1
 221 1331 l 2,6,7
 221 1376 221 1376 207.5 1403.5 c 128,-1,8
 194 1431 194 1431 171 1446 c 128,-1,9
 148 1461 148 1461 117.5 1465.5 c 128,-1,10
 87 1470 87 1470 53 1470 c 2,11,-1
 27 1470 l 1,12,-1
 27 1556 l 1,13,-1
 414 1556 l 1,14,-1
 414 233 l 2,15,16
 414 185 414 185 427 156 c 128,-1,17
 440 127 440 127 463 111.5 c 128,-1,18
 486 96 486 96 516.5 91 c 128,-1,19
 547 86 547 86 582 86 c 2,20,-1
 608 86 l 1,21,-1
 608 0 l 1,22,-1
 27 0 l 1,23,-1
 27 86 l 1,24,-1
 53 86 l 2,0,1
EndSplineSet
EndChar
StartChar: m
Encoding: 109 109 829
Width: 1935
GlyphClass: 2
Flags: W
LayerCount: 2
Fore
SplineSet
608 86 m 1,0,-1
 608 0 l 1,1,-1
 57 0 l 1,2,-1
 57 86 l 1,3,-1
 84 86 l 2,4,5
 119 86 119 86 148 91 c 128,-1,6
 177 96 177 96 198 111.5 c 128,-1,7
 219 127 219 127 230.5 156 c 128,-1,8
 242 185 242 185 242 233 c 2,9,-1
 242 872 l 2,10,11
 242 917 242 917 230 944.5 c 128,-1,12
 218 972 218 972 197 987 c 128,-1,13
 176 1002 176 1002 147 1007 c 128,-1,14
 118 1012 118 1012 84 1012 c 2,15,-1
 78 1012 l 1,16,-1
 78 1098 l 1,17,-1
 399 1098 l 1,18,-1
 426 932 l 1,19,-1
 436 932 l 1,20,21
 467 989 467 989 501 1025.5 c 128,-1,22
 535 1062 535 1062 573.5 1082.5 c 128,-1,23
 612 1103 612 1103 654.5 1110.5 c 128,-1,24
 697 1118 697 1118 745 1118 c 0,25,26
 795 1118 795 1118 840 1108 c 128,-1,27
 885 1098 885 1098 923.5 1076 c 128,-1,28
 962 1054 962 1054 992.5 1018.5 c 128,-1,29
 1023 983 1023 983 1042 932 c 1,30,-1
 1059 932 l 1,31,32
 1090 989 1090 989 1126 1025.5 c 128,-1,33
 1162 1062 1162 1062 1202.5 1082.5 c 128,-1,34
 1243 1103 1243 1103 1287.5 1110.5 c 128,-1,35
 1332 1118 1332 1118 1380 1118 c 0,36,37
 1458 1118 1458 1118 1520 1094.5 c 128,-1,38
 1582 1071 1582 1071 1625 1022.5 c 128,-1,39
 1668 974 1668 974 1691 898 c 128,-1,40
 1714 822 1714 822 1714 717 c 2,41,-1
 1714 233 l 2,42,43
 1714 185 1714 185 1726 156 c 128,-1,44
 1738 127 1738 127 1759 111.5 c 128,-1,45
 1780 96 1780 96 1809 91 c 128,-1,46
 1838 86 1838 86 1872 86 c 2,47,-1
 1878 86 l 1,48,-1
 1878 0 l 1,49,-1
 1522 0 l 1,50,-1
 1522 707 l 2,51,52
 1522 774 1522 774 1510.5 826 c 128,-1,53
 1499 878 1499 878 1473.5 914 c 128,-1,54
 1448 950 1448 950 1407 968.5 c 128,-1,55
 1366 987 1366 987 1307 987 c 0,56,57
 1243 987 1243 987 1199.5 962.5 c 128,-1,58
 1156 938 1156 938 1129 896 c 128,-1,59
 1102 854 1102 854 1090.5 799 c 128,-1,60
 1079 744 1079 744 1079 682 c 2,61,-1
 1079 233 l 2,62,63
 1079 185 1079 185 1091 156 c 128,-1,64
 1103 127 1103 127 1124 111.5 c 128,-1,65
 1145 96 1145 96 1174 91 c 128,-1,66
 1203 86 1203 86 1237 86 c 2,67,-1
 1243 86 l 1,68,-1
 1243 0 l 1,69,-1
 887 0 l 1,70,-1
 887 707 l 2,71,72
 887 774 887 774 875.5 826 c 128,-1,73
 864 878 864 878 838.5 914 c 128,-1,74
 813 950 813 950 772 968.5 c 128,-1,75
 731 987 731 987 672 987 c 0,76,77
 605 987 605 987 559.5 960 c 128,-1,78
 514 933 514 933 486 887 c 128,-1,79
 458 841 458 841 446 781 c 128,-1,80
 434 721 434 721 434 655 c 2,81,-1
 434 223 l 2,82,83
 434 178 434 178 447.5 150.5 c 128,-1,84
 461 123 461 123 484 109 c 128,-1,85
 507 95 507 95 537.5 90.5 c 128,-1,86
 568 86 568 86 602 86 c 2,87,-1
 608 86 l 1,0,-1
EndSplineSet
EndChar
StartChar: n
Encoding: 110 110 830
Width: 1321
GlyphClass: 2
Flags: W
LayerCount: 2
Fore
SplineSet
608 86 m 1,0,-1
 608 0 l 1,1,-1
 57 0 l 1,2,-1
 57 86 l 1,3,-1
 74 86 l 2,4,5
 109 86 109 86 139.5 91 c 128,-1,6
 170 96 170 96 192.5 111.5 c 128,-1,7
 215 127 215 127 228.5 156 c 128,-1,8
 242 185 242 185 242 233 c 2,9,-1
 242 872 l 2,10,11
 242 917 242 917 228.5 944.5 c 128,-1,12
 215 972 215 972 192 987 c 128,-1,13
 169 1002 169 1002 138.5 1007 c 128,-1,14
 108 1012 108 1012 74 1012 c 2,15,-1
 68 1012 l 1,16,-1
 68 1098 l 1,17,-1
 399 1098 l 1,18,-1
 426 932 l 1,19,-1
 436 932 l 1,20,21
 468 989 468 989 503.5 1025.5 c 128,-1,22
 539 1062 539 1062 578.5 1082.5 c 128,-1,23
 618 1103 618 1103 662.5 1110.5 c 128,-1,24
 707 1118 707 1118 756 1118 c 0,25,26
 837 1118 837 1118 900.5 1094.5 c 128,-1,27
 964 1071 964 1071 1008.5 1022.5 c 128,-1,28
 1053 974 1053 974 1076.5 898 c 128,-1,29
 1100 822 1100 822 1100 717 c 2,30,-1
 1100 233 l 2,31,32
 1100 185 1100 185 1111.5 156 c 128,-1,33
 1123 127 1123 127 1144 111.5 c 128,-1,34
 1165 96 1165 96 1194 91 c 128,-1,35
 1223 86 1223 86 1257 86 c 2,36,-1
 1264 86 l 1,37,-1
 1264 0 l 1,38,-1
 907 0 l 1,39,-1
 907 707 l 2,40,41
 907 774 907 774 895 826 c 128,-1,42
 883 878 883 878 856.5 914 c 128,-1,43
 830 950 830 950 787 968.5 c 128,-1,44
 744 987 744 987 682 987 c 0,45,46
 612 987 612 987 564.5 960 c 128,-1,47
 517 933 517 933 488 887 c 128,-1,48
 459 841 459 841 446.5 781 c 128,-1,49
 434 721 434 721 434 655 c 2,50,-1
 434 223 l 2,51,52
 434 178 434 178 447.5 150.5 c 128,-1,53
 461 123 461 123 484 109 c 128,-1,54
 507 95 507 95 537.5 90.5 c 128,-1,55
 568 86 568 86 602 86 c 2,56,-1
 608 86 l 1,0,-1
EndSplineSet
EndChar
StartChar: o
Encoding: 111 111 831
Width: 1182
GlyphClass: 2
Flags: W
LayerCount: 2
Fore
SplineSet
1069 551 m 0,0,1
 1069 262 1069 262 946.5 121 c 128,-1,2
 824 -20 824 -20 588 -20 c 0,3,4
 477 -20 477 -20 389 15 c 128,-1,5
 301 50 301 50 239.5 121 c 128,-1,6
 178 192 178 192 145.5 299.5 c 128,-1,7
 113 407 113 407 113 551 c 0,8,9
 113 838 113 838 234.5 978 c 128,-1,10
 356 1118 356 1118 594 1118 c 0,11,12
 705 1118 705 1118 793 1083.5 c 128,-1,13
 881 1049 881 1049 942.5 978.5 c 128,-1,14
 1004 908 1004 908 1036.5 801.5 c 128,-1,15
 1069 695 1069 695 1069 551 c 0,0,1
311 551 m 256,16,17
 311 437 311 437 326 350 c 128,-1,18
 341 263 341 263 374.5 204.5 c 128,-1,19
 408 146 408 146 461.5 116 c 128,-1,20
 515 86 515 86 592 86 c 256,21,22
 669 86 669 86 722 116 c 128,-1,23
 775 146 775 146 808 204.5 c 128,-1,24
 841 263 841 263 855.5 350 c 128,-1,25
 870 437 870 437 870 551 c 256,26,27
 870 665 870 665 855 751 c 128,-1,28
 840 837 840 837 807 894.5 c 128,-1,29
 774 952 774 952 720.5 981 c 128,-1,30
 667 1010 667 1010 590 1010 c 256,31,32
 513 1010 513 1010 460 981 c 128,-1,33
 407 952 407 952 374 894.5 c 128,-1,34
 341 837 341 837 326 751 c 128,-1,35
 311 665 311 665 311 551 c 256,16,17
EndSplineSet
EndChar
StartChar: p
Encoding: 112 112 832
Width: 1257
GlyphClass: 2
Flags: W
LayerCount: 2
Fore
SplineSet
692 987 m 0,0,1
 612 987 612 987 558.5 960.5 c 128,-1,2
 505 934 505 934 473 880 c 128,-1,3
 441 826 441 826 427.5 744 c 128,-1,4
 414 662 414 662 414 551 c 0,5,6
 414 444 414 444 427.5 362 c 128,-1,7
 441 280 441 280 473.5 224 c 128,-1,8
 506 168 506 168 559.5 139.5 c 128,-1,9
 613 111 613 111 694 111 c 0,10,11
 762 111 762 111 809.5 139.5 c 128,-1,12
 857 168 857 168 887.5 224 c 128,-1,13
 918 280 918 280 932 362.5 c 128,-1,14
 946 445 946 445 946 553 c 0,15,16
 946 662 946 662 932 743.5 c 128,-1,17
 918 825 918 825 887.5 879 c 128,-1,18
 857 933 857 933 808.5 960 c 128,-1,19
 760 987 760 987 692 987 c 0,0,1
1145 551 m 0,20,21
 1145 403 1145 403 1117.5 295 c 128,-1,22
 1090 187 1090 187 1037 117 c 128,-1,23
 984 47 984 47 906 13.5 c 128,-1,24
 828 -20 828 -20 727 -20 c 0,25,26
 668 -20 668 -20 620 -7 c 128,-1,27
 572 6 572 6 533.5 30 c 128,-1,28
 495 54 495 54 465.5 87 c 128,-1,29
 436 120 436 120 414 160 c 1,30,-1
 406 160 l 1,31,32
 408 107 408 107 410 61 c 0,33,34
 411 42 411 42 411.5 21.5 c 128,-1,35
 412 1 412 1 412.5 -17 c 128,-1,36
 413 -35 413 -35 413.5 -49.5 c 128,-1,37
 414 -64 414 -64 414 -72 c 2,38,-1
 414 -268 l 2,39,40
 414 -313 414 -313 427.5 -340.5 c 128,-1,41
 441 -368 441 -368 464 -382.5 c 128,-1,42
 487 -397 487 -397 517.5 -401.5 c 128,-1,43
 548 -406 548 -406 582 -406 c 2,44,-1
 588 -406 l 1,45,-1
 588 -492 l 1,46,-1
 37 -492 l 1,47,-1
 37 -406 l 1,48,-1
 53 -406 l 2,49,50
 88 -406 88 -406 118.5 -401 c 128,-1,51
 149 -396 149 -396 171.5 -380.5 c 128,-1,52
 194 -365 194 -365 207.5 -335.5 c 128,-1,53
 221 -306 221 -306 221 -258 c 2,54,-1
 221 872 l 2,55,56
 221 917 221 917 207.5 944.5 c 128,-1,57
 194 972 194 972 171 987 c 128,-1,58
 148 1002 148 1002 117.5 1007 c 128,-1,59
 87 1012 87 1012 53 1012 c 2,60,-1
 27 1012 l 1,61,-1
 27 1098 l 1,62,-1
 385 1098 l 1,63,-1
 406 913 l 1,64,-1
 414 913 l 1,65,66
 437 960 437 960 466 998 c 128,-1,67
 495 1036 495 1036 533 1062.5 c 128,-1,68
 571 1089 571 1089 619 1103.5 c 128,-1,69
 667 1118 667 1118 727 1118 c 0,70,71
 828 1118 828 1118 906 1084.5 c 128,-1,72
 984 1051 984 1051 1037 981.5 c 128,-1,73
 1090 912 1090 912 1117.5 805 c 128,-1,74
 1145 698 1145 698 1145 551 c 0,20,21
EndSplineSet
EndChar
StartChar: q
Encoding: 113 113 833
Width: 1257
GlyphClass: 2
Flags: W
LayerCount: 2
Fore
SplineSet
1221 -492 m 1,0,-1
 608 -492 l 1,1,-1
 608 -406 l 1,2,-1
 676 -406 l 2,3,4
 711 -406 711 -406 741.5 -401 c 128,-1,5
 772 -396 772 -396 794.5 -380.5 c 128,-1,6
 817 -365 817 -365 830.5 -335.5 c 128,-1,7
 844 -306 844 -306 844 -258 c 2,8,-1
 844 -82 l 2,9,10
 844 -47 844 -47 845 -1.5 c 128,-1,11
 846 44 846 44 848 86 c 0,12,13
 850 134 850 134 852 184 c 1,14,-1
 844 184 l 1,15,16
 821 137 821 137 791.5 99.5 c 128,-1,17
 762 62 762 62 724 35.5 c 128,-1,18
 686 9 686 9 638 -5.5 c 128,-1,19
 590 -20 590 -20 530 -20 c 0,20,21
 429 -20 429 -20 351 13.5 c 128,-1,22
 273 47 273 47 220 116.5 c 128,-1,23
 167 186 167 186 140 293 c 128,-1,24
 113 400 113 400 113 547 c 0,25,26
 113 695 113 695 140 803 c 128,-1,27
 167 911 167 911 220 981 c 128,-1,28
 273 1051 273 1051 351 1084.5 c 128,-1,29
 429 1118 429 1118 530 1118 c 0,30,31
 589 1118 589 1118 637 1105 c 128,-1,32
 685 1092 685 1092 723.5 1068 c 128,-1,33
 762 1044 762 1044 792 1011 c 128,-1,34
 822 978 822 978 844 938 c 1,35,-1
 856 938 l 1,36,-1
 893 1098 l 1,37,-1
 1221 1098 l 1,38,-1
 1221 1012 l 1,39,-1
 1204 1012 l 2,40,41
 1170 1012 1170 1012 1139 1007 c 128,-1,42
 1108 1002 1108 1002 1085.5 986.5 c 128,-1,43
 1063 971 1063 971 1049.5 941.5 c 128,-1,44
 1036 912 1036 912 1036 864 c 2,45,-1
 1036 -266 l 2,46,47
 1036 -311 1036 -311 1049.5 -338.5 c 128,-1,48
 1063 -366 1063 -366 1086 -381 c 128,-1,49
 1109 -396 1109 -396 1139.5 -401 c 128,-1,50
 1170 -406 1170 -406 1204 -406 c 2,51,-1
 1221 -406 l 1,52,-1
 1221 -492 l 1,0,-1
565 111 m 0,53,54
 645 111 645 111 698.5 137.5 c 128,-1,55
 752 164 752 164 784.5 218 c 128,-1,56
 817 272 817 272 830.5 354 c 128,-1,57
 844 436 844 436 844 547 c 0,58,59
 844 654 844 654 830.5 736 c 128,-1,60
 817 818 817 818 784.5 873.5 c 128,-1,61
 752 929 752 929 698 958 c 128,-1,62
 644 987 644 987 563 987 c 0,63,64
 496 987 496 987 448 958 c 128,-1,65
 400 929 400 929 369.5 873 c 128,-1,66
 339 817 339 817 325 734.5 c 128,-1,67
 311 652 311 652 311 545 c 0,68,69
 311 327 311 327 370 219 c 128,-1,70
 429 111 429 111 565 111 c 0,53,54
EndSplineSet
EndChar
StartChar: r
Encoding: 114 114 834
Width: 965
GlyphClass: 2
Flags: W
LayerCount: 2
Fore
SplineSet
659 0 m 1,0,-1
 68 0 l 1,1,-1
 68 86 l 1,2,-1
 74 86 l 2,3,4
 109 86 109 86 139.5 91 c 128,-1,5
 170 96 170 96 192.5 111.5 c 128,-1,6
 215 127 215 127 228.5 156 c 128,-1,7
 242 185 242 185 242 233 c 2,8,-1
 242 872 l 2,9,10
 242 917 242 917 228.5 944.5 c 128,-1,11
 215 972 215 972 192 987 c 128,-1,12
 169 1002 169 1002 138.5 1007 c 128,-1,13
 108 1012 108 1012 74 1012 c 2,14,-1
 68 1012 l 1,15,-1
 68 1098 l 1,16,-1
 383 1098 l 1,17,-1
 422 895 l 1,18,-1
 432 895 l 1,19,20
 452 941 452 941 473 981.5 c 128,-1,21
 494 1022 494 1022 524.5 1052.5 c 128,-1,22
 555 1083 555 1083 600 1100.5 c 128,-1,23
 645 1118 645 1118 713 1118 c 0,24,25
 825 1118 825 1118 879.5 1079 c 128,-1,26
 934 1040 934 1040 934 969 c 0,27,28
 934 937 934 937 923.5 910 c 128,-1,29
 913 883 913 883 890 863.5 c 128,-1,30
 867 844 867 844 831 833.5 c 128,-1,31
 795 823 795 823 743 823 c 1,32,33
 743 908 743 908 719 945.5 c 128,-1,34
 695 983 695 983 635 983 c 0,35,36
 597 983 597 983 567 961.5 c 128,-1,37
 537 940 537 940 514.5 904.5 c 128,-1,38
 492 869 492 869 476.5 823 c 128,-1,39
 461 777 461 777 451.5 728.5 c 128,-1,40
 442 680 442 680 438 632 c 128,-1,41
 434 584 434 584 434 545 c 2,42,-1
 434 223 l 2,43,44
 434 178 434 178 447.5 150.5 c 128,-1,45
 461 123 461 123 484 109 c 128,-1,46
 507 95 507 95 537.5 90.5 c 128,-1,47
 568 86 568 86 602 86 c 2,48,-1
 659 86 l 1,49,-1
 659 0 l 1,0,-1
EndSplineSet
EndChar
StartChar: s
Encoding: 115 115 835
Width: 924
GlyphClass: 2
Flags: W
LayerCount: 2
Fore
SplineSet
430 -20 m 0,0,1
 353 -20 353 -20 290.5 -6.5 c 128,-1,2
 228 7 228 7 184 34.5 c 128,-1,3
 140 62 140 62 116 102.5 c 128,-1,4
 92 143 92 143 92 197 c 0,5,6
 92 238 92 238 105.5 265.5 c 128,-1,7
 119 293 119 293 138.5 309 c 128,-1,8
 158 325 158 325 180.5 331.5 c 128,-1,9
 203 338 203 338 221 338 c 1,10,11
 221 284 221 284 232 237 c 128,-1,12
 243 190 243 190 269 154.5 c 128,-1,13
 295 119 295 119 337.5 98.5 c 128,-1,14
 380 78 380 78 442 78 c 0,15,16
 497 78 497 78 539 91.5 c 128,-1,17
 581 105 581 105 609.5 129.5 c 128,-1,18
 638 154 638 154 653 188.5 c 128,-1,19
 668 223 668 223 668 264 c 0,20,21
 668 302 668 302 656.5 329.5 c 128,-1,22
 645 357 645 357 616.5 381 c 128,-1,23
 588 405 588 405 539 430 c 128,-1,24
 490 455 490 455 416 487 c 0,25,26
 337 522 337 522 278.5 554.5 c 128,-1,27
 220 587 220 587 182 625 c 128,-1,28
 144 663 144 663 125 711.5 c 128,-1,29
 106 760 106 760 106 827 c 0,30,31
 106 897 106 897 133.5 951 c 128,-1,32
 161 1005 161 1005 212 1041.5 c 128,-1,33
 263 1078 263 1078 334 1097 c 128,-1,34
 405 1116 405 1116 492 1116 c 0,35,36
 565 1116 565 1116 621 1101 c 128,-1,37
 677 1086 677 1086 715 1060.5 c 128,-1,38
 753 1035 753 1035 772 1000.5 c 128,-1,39
 791 966 791 966 791 928 c 0,40,41
 791 872 791 872 752.5 838.5 c 128,-1,42
 714 805 714 805 643 805 c 1,43,44
 643 908 643 908 600.5 965 c 128,-1,45
 558 1022 558 1022 467 1022 c 0,46,47
 415 1022 415 1022 378 1010 c 128,-1,48
 341 998 341 998 317.5 976 c 128,-1,49
 294 954 294 954 283 924 c 128,-1,50
 272 894 272 894 272 858 c 0,51,52
 272 819 272 819 286 790.5 c 128,-1,53
 300 762 300 762 330.5 738 c 128,-1,54
 361 714 361 714 409.5 691.5 c 128,-1,55
 458 669 458 669 526 641 c 0,56,57
 607 607 607 607 665 574 c 128,-1,58
 723 541 723 541 760.5 502 c 128,-1,59
 798 463 798 463 816 414 c 128,-1,60
 834 365 834 365 834 301 c 0,61,62
 834 221 834 221 805 161 c 128,-1,63
 776 101 776 101 723 60.5 c 128,-1,64
 670 20 670 20 595.5 0 c 128,-1,65
 521 -20 521 -20 430 -20 c 0,0,1
EndSplineSet
EndChar
StartChar: t
Encoding: 116 116 836
Width: 721
GlyphClass: 2
Flags: W
LayerCount: 2
Fore
SplineSet
543 88 m 0,0,1
 580 88 580 88 611 92 c 128,-1,2
 642 96 642 96 674 102 c 1,3,-1
 674 12 l 1,4,5
 661 6 661 6 640 0 c 128,-1,6
 619 -6 619 -6 594.5 -10.5 c 128,-1,7
 570 -15 570 -15 543 -17.5 c 128,-1,8
 516 -20 516 -20 492 -20 c 0,9,10
 414 -20 414 -20 358 -3.5 c 128,-1,11
 302 13 302 13 266 50 c 128,-1,12
 230 87 230 87 212.5 148 c 128,-1,13
 195 209 195 209 195 297 c 2,14,-1
 195 981 l 1,15,-1
 39 981 l 1,16,-1
 39 1063 l 1,17,18
 76 1063 76 1063 120.5 1078 c 128,-1,19
 165 1093 165 1093 199 1128 c 1,20,21
 234 1166 234 1166 255.5 1218.5 c 128,-1,22
 277 1271 277 1271 293 1350 c 1,23,-1
 387 1350 l 1,24,-1
 387 1098 l 1,25,-1
 655 1098 l 1,26,-1
 655 981 l 1,27,-1
 387 981 l 1,28,-1
 387 291 l 2,29,30
 387 186 387 186 429.5 137 c 128,-1,31
 472 88 472 88 543 88 c 0,0,1
EndSplineSet
EndChar
StartChar: u
Encoding: 117 117 837
Width: 1300
GlyphClass: 2
Flags: W
LayerCount: 2
Fore
SplineSet
1079 223 m 2,0,1
 1079 178 1079 178 1092.5 150.5 c 128,-1,2
 1106 123 1106 123 1129 109 c 128,-1,3
 1152 95 1152 95 1182.5 90.5 c 128,-1,4
 1213 86 1213 86 1247 86 c 2,5,-1
 1253 86 l 1,6,-1
 1253 0 l 1,7,-1
 928 0 l 1,8,-1
 901 166 l 1,9,-1
 891 166 l 1,10,11
 860 108 860 108 822.5 72 c 128,-1,12
 785 36 785 36 743 15.5 c 128,-1,13
 701 -5 701 -5 655 -12.5 c 128,-1,14
 609 -20 609 -20 559 -20 c 0,15,16
 478 -20 478 -20 415 3 c 128,-1,17
 352 26 352 26 309 75 c 128,-1,18
 266 124 266 124 243.5 200 c 128,-1,19
 221 276 221 276 221 381 c 2,20,-1
 221 872 l 2,21,22
 221 917 221 917 207.5 944.5 c 128,-1,23
 194 972 194 972 171 987 c 128,-1,24
 148 1002 148 1002 117.5 1007 c 128,-1,25
 87 1012 87 1012 53 1012 c 2,26,-1
 47 1012 l 1,27,-1
 47 1098 l 1,28,-1
 414 1098 l 1,29,-1
 414 391 l 2,30,31
 414 324 414 324 424.5 272 c 128,-1,32
 435 220 435 220 459.5 184 c 128,-1,33
 484 148 484 148 525.5 129.5 c 128,-1,34
 567 111 567 111 629 111 c 0,35,36
 697 111 697 111 745.5 135 c 128,-1,37
 794 159 794 159 825.5 202.5 c 128,-1,38
 857 246 857 246 872 307 c 128,-1,39
 887 368 887 368 887 442 c 2,40,-1
 887 864 l 2,41,42
 887 912 887 912 873.5 941.5 c 128,-1,43
 860 971 860 971 837.5 986.5 c 128,-1,44
 815 1002 815 1002 784.5 1007 c 128,-1,45
 754 1012 754 1012 719 1012 c 2,46,-1
 713 1012 l 1,47,-1
 713 1098 l 1,48,-1
 1079 1098 l 1,49,-1
 1079 223 l 2,0,1
EndSplineSet
EndChar
StartChar: v
Encoding: 118 118 838
Width: 1186
GlyphClass: 2
Flags: W
LayerCount: 2
Fore
SplineSet
8 1012 m 1,0,-1
 8 1098 l 1,1,-1
 520 1098 l 1,2,-1
 520 1012 l 1,3,-1
 494 1012 l 2,4,5
 432 1012 432 1012 401.5 988 c 128,-1,6
 371 964 371 964 371 913 c 0,7,8
 371 896 371 896 375 878.5 c 128,-1,9
 379 861 379 861 387 838 c 2,10,-1
 526 451 l 2,11,12
 539 415 539 415 553 371.5 c 128,-1,13
 567 328 567 328 579.5 286 c 128,-1,14
 592 244 592 244 602 206.5 c 128,-1,15
 612 169 612 169 616 143 c 1,16,-1
 623 143 l 1,17,18
 628 165 628 165 639.5 197.5 c 128,-1,19
 651 230 651 230 665.5 268.5 c 128,-1,20
 680 307 680 307 695.5 347 c 128,-1,21
 711 387 711 387 725 424 c 2,22,-1
 872 823 l 2,23,24
 882 848 882 848 886.5 871 c 128,-1,25
 891 894 891 894 891 911 c 0,26,27
 891 964 891 964 857.5 988 c 128,-1,28
 824 1012 824 1012 756 1012 c 2,29,-1
 741 1012 l 1,30,-1
 741 1098 l 1,31,-1
 1180 1098 l 1,32,-1
 1180 1012 l 1,33,-1
 1155 1012 l 2,34,35
 1125 1012 1125 1012 1104 1005.5 c 128,-1,36
 1083 999 1083 999 1066 981 c 128,-1,37
 1049 963 1049 963 1033.5 932 c 128,-1,38
 1018 901 1018 901 999 852 c 2,39,-1
 676 0 l 1,40,-1
 489 0 l 1,41,-1
 160 903 l 2,42,43
 148 935 148 935 135 956 c 128,-1,44
 122 977 122 977 105 989.5 c 128,-1,45
 88 1002 88 1002 66 1007 c 128,-1,46
 44 1012 44 1012 14 1012 c 2,47,-1
 8 1012 l 1,0,-1
EndSplineSet
EndChar
StartChar: w
Encoding: 119 119 839
Width: 1765
GlyphClass: 2
Flags: W
LayerCount: 2
Fore
SplineSet
975 1092 m 1,0,-1
 1180 485 l 2,1,2
 1192 448 1192 448 1205.5 405.5 c 128,-1,3
 1219 363 1219 363 1231 321.5 c 128,-1,4
 1243 280 1243 280 1253 243 c 128,-1,5
 1263 206 1263 206 1268 180 c 1,6,-1
 1274 180 l 1,7,8
 1283 231 1283 231 1303 305.5 c 128,-1,9
 1323 380 1323 380 1354 479 c 2,10,-1
 1456 809 l 2,11,12
 1464 835 1464 835 1469.5 864.5 c 128,-1,13
 1475 894 1475 894 1475 911 c 0,14,15
 1475 964 1475 964 1441.5 988 c 128,-1,16
 1408 1012 1408 1012 1339 1012 c 2,17,-1
 1325 1012 l 1,18,-1
 1325 1098 l 1,19,-1
 1763 1098 l 1,20,-1
 1763 1012 l 1,21,-1
 1737 1012 l 2,22,23
 1707 1012 1707 1012 1685 1006 c 128,-1,24
 1663 1000 1663 1000 1645.5 982.5 c 128,-1,25
 1628 965 1628 965 1613 934 c 128,-1,26
 1598 903 1598 903 1583 852 c 2,27,-1
 1319 0 l 1,28,-1
 1155 0 l 1,29,-1
 911 721 l 1,30,-1
 874 856 l 1,31,-1
 584 0 l 1,32,-1
 422 0 l 1,33,-1
 154 903 l 1,34,35
 142 935 142 935 129 956 c 128,-1,36
 116 977 116 977 99 989.5 c 128,-1,37
 82 1002 82 1002 60 1007 c 128,-1,38
 38 1012 38 1012 8 1012 c 2,39,-1
 2 1012 l 1,40,-1
 2 1098 l 1,41,-1
 508 1098 l 1,42,-1
 508 1012 l 1,43,-1
 481 1012 l 2,44,45
 420 1012 420 1012 389 994 c 128,-1,46
 358 976 358 976 358 926 c 0,47,48
 358 909 358 909 363.5 885 c 128,-1,49
 369 861 369 861 375 838 c 2,50,-1
 471 494 l 2,51,52
 481 457 481 457 492 413 c 128,-1,53
 503 369 503 369 512.5 325.5 c 128,-1,54
 522 282 522 282 530 244 c 128,-1,55
 538 206 538 206 543 180 c 1,56,-1
 549 180 l 1,57,58
 554 206 554 206 562.5 240.5 c 128,-1,59
 571 275 571 275 582.5 314.5 c 128,-1,60
 594 354 594 354 607 395 c 128,-1,61
 620 436 620 436 633 473 c 2,62,-1
 846 1092 l 1,63,-1
 975 1092 l 1,0,-1
EndSplineSet
EndChar
StartChar: x
Encoding: 120 120 840
Width: 1184
GlyphClass: 2
Flags: W
LayerCount: 2
Fore
SplineSet
786 952 m 0,0,1
 786 989 786 989 754.5 1000.5 c 128,-1,2
 723 1012 723 1012 676 1012 c 2,3,-1
 670 1012 l 1,4,-1
 670 1098 l 1,5,-1
 1118 1098 l 1,6,-1
 1118 1012 l 1,7,-1
 1100 1012 l 2,8,9
 1070 1012 1070 1012 1045.5 1007 c 128,-1,10
 1021 1002 1021 1002 997.5 988 c 128,-1,11
 974 974 974 974 949 948 c 128,-1,12
 924 922 924 922 893 881 c 2,13,-1
 682 600 l 1,14,-1
 983 195 l 2,15,16
 1028 135 1028 135 1068.5 110.5 c 128,-1,17
 1109 86 1109 86 1147 86 c 2,18,-1
 1174 86 l 1,19,-1
 1174 0 l 1,20,-1
 645 0 l 1,21,-1
 645 86 l 1,22,-1
 655 86 l 2,23,24
 778 86 778 86 778 154 c 0,25,26
 778 165 778 165 775 176.5 c 128,-1,27
 772 188 772 188 763 203.5 c 128,-1,28
 754 219 754 219 739 241 c 128,-1,29
 724 263 724 263 700 295 c 2,30,-1
 563 479 l 1,31,-1
 420 279 l 2,32,33
 411 267 411 267 401 251 c 128,-1,34
 391 235 391 235 383 218 c 128,-1,35
 375 201 375 201 370 183.5 c 128,-1,36
 365 166 365 166 365 150 c 0,37,38
 365 115 365 115 394 100.5 c 128,-1,39
 423 86 423 86 492 86 c 2,40,-1
 498 86 l 1,41,-1
 498 0 l 1,42,-1
 10 0 l 1,43,-1
 10 86 l 1,44,-1
 29 86 l 2,45,46
 66 86 66 86 94 92 c 128,-1,47
 122 98 122 98 147 113 c 128,-1,48
 172 128 172 128 197 153.5 c 128,-1,49
 222 179 222 179 252 217 c 2,50,-1
 510 551 l 1,51,-1
 252 903 l 1,52,53
 207 956 207 956 164.5 984 c 128,-1,54
 122 1012 122 1012 76 1012 c 2,55,-1
 49 1012 l 1,56,-1
 49 1098 l 1,57,-1
 569 1098 l 1,58,-1
 569 1012 l 1,59,-1
 563 1012 l 2,60,61
 528 1012 528 1012 505 1007.5 c 128,-1,62
 482 1003 482 1003 469 994.5 c 128,-1,63
 456 986 456 986 451 975 c 128,-1,64
 446 964 446 964 446 952 c 0,65,66
 446 931 446 931 458.5 910.5 c 128,-1,67
 471 890 471 890 494 858 c 2,68,-1
 629 674 l 1,69,-1
 735 827 l 1,70,71
 758 862 758 862 772 893 c 128,-1,72
 786 924 786 924 786 952 c 0,0,1
EndSplineSet
EndChar
StartChar: y
Encoding: 121 121 841
Width: 1157
GlyphClass: 2
Flags: W
LayerCount: 2
Fore
SplineSet
1157 1098 m 1,0,-1
 1157 1012 l 1,1,-1
 1151 1012 l 2,2,3
 1121 1012 1121 1012 1099.5 1005.5 c 128,-1,4
 1078 999 1078 999 1060.5 981 c 128,-1,5
 1043 963 1043 963 1028 932 c 128,-1,6
 1013 901 1013 901 995 852 c 2,7,-1
 684 -8 l 2,8,9
 648 -107 648 -107 616 -182 c 128,-1,10
 584 -257 584 -257 549 -310.5 c 128,-1,11
 514 -364 514 -364 472.5 -399 c 128,-1,12
 431 -434 431 -434 378 -455 c 128,-1,13
 325 -476 325 -476 256 -484 c 128,-1,14
 187 -492 187 -492 96 -492 c 2,15,-1
 78 -492 l 1,16,-1
 78 -395 l 1,17,18
 182 -395 182 -395 257 -364 c 128,-1,19
 332 -333 332 -333 386.5 -279 c 128,-1,20
 441 -225 441 -225 477.5 -151.5 c 128,-1,21
 514 -78 514 -78 539 8 c 1,22,-1
 160 903 l 2,23,24
 146 935 146 935 133 955.5 c 128,-1,25
 120 976 120 976 103.5 989 c 128,-1,26
 87 1002 87 1002 65.5 1007 c 128,-1,27
 44 1012 44 1012 14 1012 c 2,28,-1
 8 1012 l 1,29,-1
 8 1098 l 1,30,-1
 500 1098 l 1,31,-1
 500 1012 l 1,32,-1
 494 1012 l 2,33,34
 432 1012 432 1012 401.5 988 c 128,-1,35
 371 964 371 964 371 913 c 0,36,37
 371 896 371 896 374.5 878.5 c 128,-1,38
 378 861 378 861 387 838 c 2,39,-1
 537 473 l 2,40,41
 551 438 551 438 566.5 396.5 c 128,-1,42
 582 355 582 355 595.5 314.5 c 128,-1,43
 609 274 609 274 620 238 c 128,-1,44
 631 202 631 202 635 176 c 1,45,-1
 641 176 l 1,46,47
 652 221 652 221 671.5 285.5 c 128,-1,48
 691 350 691 350 717 424 c 2,49,-1
 854 823 l 2,50,51
 863 848 863 848 867.5 871 c 128,-1,52
 872 894 872 894 872 911 c 0,53,54
 872 964 872 964 838.5 988 c 128,-1,55
 805 1012 805 1012 737 1012 c 2,56,-1
 731 1012 l 1,57,-1
 731 1098 l 1,58,-1
 1157 1098 l 1,0,-1
EndSplineSet
EndChar
StartChar: z
Encoding: 122 122 842
Width: 1047
GlyphClass: 2
Flags: W
LayerCount: 2
Fore
SplineSet
696 117 m 2,0,1
 732 117 732 117 755.5 131 c 128,-1,2
 779 145 779 145 794.5 168 c 128,-1,3
 810 191 810 191 819.5 221.5 c 128,-1,4
 829 252 829 252 836 285 c 2,5,-1
 846 332 l 1,6,-1
 932 332 l 1,7,-1
 922 0 l 1,8,-1
 86 0 l 1,9,-1
 86 82 l 1,10,-1
 680 981 l 1,11,-1
 360 981 l 2,12,13
 320 981 320 981 294 970.5 c 128,-1,14
 268 960 268 960 251.5 939 c 128,-1,15
 235 918 235 918 224.5 887 c 128,-1,16
 214 856 214 856 203 815 c 2,17,-1
 201 807 l 1,18,-1
 115 807 l 1,19,-1
 135 1098 l 1,20,-1
 920 1098 l 1,21,-1
 920 1014 l 1,22,-1
 324 117 l 1,23,-1
 696 117 l 2,0,1
EndSplineSet
EndChar
StartChar: braceleft
Encoding: 123 123 843
Width: 877
GlyphClass: 2
Flags: W
LayerCount: 2
Fore
SplineSet
639 -262 m 2,0,1
 567 -262 567 -262 511.5 -241 c 128,-1,2
 456 -220 456 -220 419 -182 c 128,-1,3
 382 -144 382 -144 363 -89.5 c 128,-1,4
 344 -35 344 -35 344 33 c 2,5,-1
 344 389 l 2,6,7
 344 452 344 452 325.5 493 c 128,-1,8
 307 534 307 534 274 558.5 c 128,-1,9
 241 583 241 583 197 593.5 c 128,-1,10
 153 604 153 604 102 606 c 1,11,-1
 102 692 l 1,12,13
 153 694 153 694 197 704 c 128,-1,14
 241 714 241 714 274 738.5 c 128,-1,15
 307 763 307 763 325.5 804 c 128,-1,16
 344 845 344 845 344 907 c 2,17,-1
 344 1264 l 2,18,19
 344 1404 344 1404 418.5 1480 c 128,-1,20
 493 1556 493 1556 639 1556 c 2,21,-1
 774 1556 l 1,22,-1
 774 1468 l 1,23,-1
 713 1468 l 2,24,25
 622 1468 622 1468 583.5 1414 c 128,-1,26
 545 1360 545 1360 545 1253 c 2,27,-1
 545 903 l 2,28,29
 545 803 545 803 488.5 736.5 c 128,-1,30
 432 670 432 670 317 651 c 1,31,-1
 317 649 l 1,32,33
 435 629 435 629 490 563 c 128,-1,34
 545 497 545 497 545 395 c 2,35,-1
 545 41 l 2,36,37
 545 -64 545 -64 583.5 -119 c 128,-1,38
 622 -174 622 -174 713 -174 c 2,39,-1
 774 -174 l 1,40,-1
 774 -262 l 1,41,-1
 639 -262 l 2,0,1
EndSplineSet
EndChar
StartChar: bar
Encoding: 124 124 844
Width: 1145
GlyphClass: 2
Flags: W
LayerCount: 2
Fore
SplineSet
633 -492 m 1,0,-1
 510 -492 l 1,1,-1
 510 1556 l 1,2,-1
 633 1556 l 1,3,-1
 633 -492 l 1,0,-1
EndSplineSet
EndChar
StartChar: braceright
Encoding: 125 125 845
Width: 877
GlyphClass: 2
Flags: W
LayerCount: 2
Fore
SplineSet
102 -174 m 1,0,-1
 164 -174 l 2,1,2
 255 -174 255 -174 293.5 -119 c 128,-1,3
 332 -64 332 -64 332 41 c 2,4,-1
 332 395 l 2,5,6
 332 497 332 497 386.5 563 c 128,-1,7
 441 629 441 629 559 649 c 1,8,-1
 559 651 l 1,9,10
 445 670 445 670 388.5 736.5 c 128,-1,11
 332 803 332 803 332 903 c 2,12,-1
 332 1253 l 2,13,14
 332 1360 332 1360 293.5 1414 c 128,-1,15
 255 1468 255 1468 164 1468 c 2,16,-1
 102 1468 l 1,17,-1
 102 1556 l 1,18,-1
 238 1556 l 2,19,20
 383 1556 383 1556 457.5 1480 c 128,-1,21
 532 1404 532 1404 532 1264 c 2,22,-1
 532 907 l 2,23,24
 532 845 532 845 551 804 c 128,-1,25
 570 763 570 763 602.5 738.5 c 128,-1,26
 635 714 635 714 679 704 c 128,-1,27
 723 694 723 694 774 692 c 1,28,-1
 774 606 l 1,29,30
 723 604 723 604 679 593.5 c 128,-1,31
 635 583 635 583 602.5 558.5 c 128,-1,32
 570 534 570 534 551 493 c 128,-1,33
 532 452 532 452 532 389 c 2,34,-1
 532 33 l 2,35,36
 532 -35 532 -35 513 -89.5 c 128,-1,37
 494 -144 494 -144 457 -182 c 128,-1,38
 420 -220 420 -220 365 -241 c 128,-1,39
 310 -262 310 -262 238 -262 c 2,40,-1
 102 -262 l 1,41,-1
 102 -174 l 1,0,-1
EndSplineSet
EndChar
StartChar: asciitilde
Encoding: 126 126 846
Width: 1149
GlyphClass: 2
Flags: W
LayerCount: 2
Fore
SplineSet
776 551 m 0,0,1
 746 551 746 551 714 563.5 c 128,-1,2
 682 576 682 576 650.5 595 c 128,-1,3
 619 614 619 614 590.5 636.5 c 128,-1,4
 562 659 562 659 539 680 c 256,5,6
 516 701 516 701 494 720.5 c 128,-1,7
 472 740 472 740 450.5 755 c 128,-1,8
 429 770 429 770 407 779 c 128,-1,9
 385 788 385 788 362 788 c 0,10,11
 302 788 302 788 273 730 c 128,-1,12
 244 672 244 672 233 551 c 1,13,-1
 113 551 l 1,14,15
 119 615 119 615 131.5 679 c 128,-1,16
 144 743 144 743 172 794 c 128,-1,17
 200 845 200 845 247.5 877 c 128,-1,18
 295 909 295 909 371 909 c 0,19,20
 405 909 405 909 439 896 c 128,-1,21
 473 883 473 883 505 863 c 128,-1,22
 537 843 537 843 565.5 819 c 128,-1,23
 594 795 594 795 618 774 c 0,24,25
 640 754 640 754 661 735.5 c 128,-1,26
 682 717 682 717 702.5 703 c 128,-1,27
 723 689 723 689 744 680.5 c 128,-1,28
 765 672 765 672 786 672 c 0,29,30
 843 672 843 672 870 733.5 c 128,-1,31
 897 795 897 795 911 909 c 1,32,-1
 1034 909 l 1,33,34
 1027 845 1027 845 1013 781 c 128,-1,35
 999 717 999 717 970.5 666 c 128,-1,36
 942 615 942 615 895.5 583 c 128,-1,37
 849 551 849 551 776 551 c 0,0,1
EndSplineSet
EndChar
StartChar: exclamdown
Encoding: 161 161 847
Width: 682
GlyphClass: 2
Flags: W
LayerCount: 2
Fore
SplineSet
459 -367 m 1,0,-1
 221 -367 l 1,1,-1
 293 684 l 1,2,-1
 387 684 l 1,3,-1
 459 -367 l 1,0,-1
469 971 m 0,4,5
 469 931 469 931 459 904 c 128,-1,6
 449 877 449 877 431.5 861 c 128,-1,7
 414 845 414 845 390.5 838 c 128,-1,8
 367 831 367 831 340 831 c 0,9,10
 314 831 314 831 290.5 838 c 128,-1,11
 267 845 267 845 249.5 861 c 128,-1,12
 232 877 232 877 221.5 904 c 128,-1,13
 211 931 211 931 211 971 c 0,14,15
 211 1010 211 1010 221.5 1036.5 c 128,-1,16
 232 1063 232 1063 249.5 1079.5 c 128,-1,17
 267 1096 267 1096 290.5 1103 c 128,-1,18
 314 1110 314 1110 340 1110 c 0,19,20
 367 1110 367 1110 390.5 1103 c 128,-1,21
 414 1096 414 1096 431.5 1079.5 c 128,-1,22
 449 1063 449 1063 459 1036.5 c 128,-1,23
 469 1010 469 1010 469 971 c 0,4,5
EndSplineSet
EndChar
StartChar: cent
Encoding: 162 162 848
Width: 1145
GlyphClass: 2
Flags: W
LayerCount: 2
Fore
SplineSet
584 180 m 1,0,1
 491 190 491 190 413.5 225.5 c 128,-1,2
 336 261 336 261 280 327.5 c 128,-1,3
 224 394 224 394 193 495.5 c 128,-1,4
 162 597 162 597 162 739 c 0,5,6
 162 891 162 891 195 997 c 128,-1,7
 228 1103 228 1103 285 1170.5 c 128,-1,8
 342 1238 342 1238 419 1271.5 c 128,-1,9
 496 1305 496 1305 584 1313 c 1,10,-1
 584 1462 l 1,11,-1
 686 1462 l 1,12,-1
 686 1313 l 1,13,14
 745 1308 745 1308 804 1293.5 c 128,-1,15
 863 1279 863 1279 910 1253.5 c 128,-1,16
 957 1228 957 1228 986.5 1191 c 128,-1,17
 1016 1154 1016 1154 1016 1106 c 0,18,19
 1016 1035 1016 1035 970.5 1006 c 128,-1,20
 925 977 925 977 834 977 c 1,21,22
 834 1019 834 1019 825 1057.5 c 128,-1,23
 816 1096 816 1096 798 1126.5 c 128,-1,24
 780 1157 780 1157 752 1178 c 128,-1,25
 724 1199 724 1199 686 1206 c 1,26,-1
 686 297 l 1,27,28
 728 297 728 297 770.5 303 c 128,-1,29
 813 309 813 309 852 318.5 c 128,-1,30
 891 328 891 328 925 339.5 c 128,-1,31
 959 351 959 351 983 362 c 1,32,-1
 983 250 l 1,33,34
 930 222 930 222 853.5 200 c 128,-1,35
 777 178 777 178 686 176 c 1,36,-1
 686 0 l 1,37,-1
 584 0 l 1,38,-1
 584 180 l 1,0,1
360 741 m 0,39,40
 360 558 360 558 414.5 449 c 128,-1,41
 469 340 469 340 584 309 c 1,42,-1
 584 1206 l 1,43,44
 535 1197 535 1197 494 1168.5 c 128,-1,45
 453 1140 453 1140 423 1085.5 c 128,-1,46
 393 1031 393 1031 376.5 946.5 c 128,-1,47
 360 862 360 862 360 741 c 0,39,40
EndSplineSet
EndChar
StartChar: sterling
Encoding: 163 163 849
Width: 1145
GlyphClass: 2
Flags: W
LayerCount: 2
Fore
SplineSet
500 690 m 1,0,1
 515 639 515 639 528 586 c 128,-1,2
 541 533 541 533 541 471 c 0,3,4
 541 383 541 383 491.5 315.5 c 128,-1,5
 442 248 442 248 360 193 c 1,6,-1
 365 184 l 1,7,8
 407 204 407 204 443.5 212.5 c 128,-1,9
 480 221 480 221 514 221 c 0,10,11
 555 221 555 221 604 209 c 128,-1,12
 653 197 653 197 701.5 182 c 128,-1,13
 750 167 750 167 794.5 155 c 128,-1,14
 839 143 839 143 870 143 c 0,15,16
 906 143 906 143 936.5 153.5 c 128,-1,17
 967 164 967 164 994 181 c 128,-1,18
 1021 198 1021 198 1043.5 219.5 c 128,-1,19
 1066 241 1066 241 1085 264 c 1,20,-1
 1085 131 l 1,21,22
 1067 106 1067 106 1042 79 c 128,-1,23
 1017 52 1017 52 984 30 c 128,-1,24
 951 8 951 8 909.5 -6 c 128,-1,25
 868 -20 868 -20 817 -20 c 256,26,27
 766 -20 766 -20 717 -5.5 c 128,-1,28
 668 9 668 9 618 26 c 128,-1,29
 568 43 568 43 516.5 57.5 c 128,-1,30
 465 72 465 72 410 72 c 0,31,32
 342 72 342 72 283 52.5 c 128,-1,33
 224 33 224 33 158 2 c 1,34,-1
 131 -10 l 1,35,-1
 131 98 l 1,36,-1
 168 121 l 2,37,38
 206 144 206 144 243.5 176.5 c 128,-1,39
 281 209 281 209 311 251.5 c 128,-1,40
 341 294 341 294 360 346 c 128,-1,41
 379 398 379 398 379 459 c 0,42,43
 379 519 379 519 364 576.5 c 128,-1,44
 349 634 349 634 328 690 c 1,45,-1
 100 690 l 1,46,-1
 100 786 l 1,47,-1
 289 786 l 1,48,49
 275 818 275 818 261 857 c 128,-1,50
 247 896 247 896 236 938.5 c 128,-1,51
 225 981 225 981 218 1025.5 c 128,-1,52
 211 1070 211 1070 211 1112 c 0,53,54
 211 1200 211 1200 240 1269 c 128,-1,55
 269 1338 269 1338 323 1385.5 c 128,-1,56
 377 1433 377 1433 454.5 1458 c 128,-1,57
 532 1483 532 1483 629 1483 c 0,58,59
 728 1483 728 1483 797 1465.5 c 128,-1,60
 866 1448 866 1448 909 1417 c 128,-1,61
 952 1386 952 1386 971.5 1344 c 128,-1,62
 991 1302 991 1302 991 1253 c 0,63,64
 991 1187 991 1187 947.5 1153.5 c 128,-1,65
 904 1120 904 1120 829 1120 c 1,66,67
 829 1168 829 1168 820.5 1214.5 c 128,-1,68
 812 1261 812 1261 789.5 1297.5 c 128,-1,69
 767 1334 767 1334 726.5 1357 c 128,-1,70
 686 1380 686 1380 621 1380 c 0,71,72
 502 1380 502 1380 446.5 1312 c 128,-1,73
 391 1244 391 1244 391 1116 c 0,74,75
 391 1068 391 1068 399 1022 c 128,-1,76
 407 976 407 976 419 933.5 c 128,-1,77
 431 891 431 891 445 853.5 c 128,-1,78
 459 816 459 816 471 786 c 1,79,-1
 819 786 l 1,80,-1
 819 690 l 1,81,-1
 500 690 l 1,0,1
EndSplineSet
EndChar
StartChar: currency
Encoding: 164 164 850
Width: 1145
GlyphClass: 2
Flags: W
LayerCount: 2
Fore
SplineSet
197 733 m 256,0,1
 197 795 197 795 214.5 850.5 c 128,-1,2
 232 906 232 906 266 952 c 1,3,-1
 131 1087 l 1,4,-1
 217 1174 l 1,5,-1
 350 1038 l 1,6,7
 397 1072 397 1072 452.5 1091 c 128,-1,8
 508 1110 508 1110 571 1110 c 0,9,10
 631 1110 631 1110 686.5 1091 c 128,-1,11
 742 1072 742 1072 788 1038 c 1,12,-1
 926 1176 l 1,13,-1
 1012 1087 l 1,14,-1
 877 952 l 1,15,16
 911 906 911 906 929.5 850.5 c 128,-1,17
 948 795 948 795 948 733 c 256,18,19
 948 671 948 671 929.5 615.5 c 128,-1,20
 911 560 911 560 877 514 c 1,21,-1
 1012 379 l 1,22,-1
 928 293 l 1,23,-1
 791 428 l 1,24,25
 744 396 744 396 688.5 377 c 128,-1,26
 633 358 633 358 571 358 c 256,27,28
 509 358 509 358 454 376 c 128,-1,29
 399 394 399 394 352 428 c 1,30,-1
 217 293 l 1,31,-1
 131 379 l 1,32,-1
 264 514 l 1,33,34
 232 560 232 560 214.5 615.5 c 128,-1,35
 197 671 197 671 197 733 c 256,0,1
311 733 m 0,36,37
 311 679 311 679 331.5 631.5 c 128,-1,38
 352 584 352 584 387.5 548.5 c 128,-1,39
 423 513 423 513 470 492 c 128,-1,40
 517 471 517 471 571 471 c 0,41,42
 627 471 627 471 675 492 c 128,-1,43
 723 513 723 513 758 548.5 c 128,-1,44
 793 584 793 584 813.5 631.5 c 128,-1,45
 834 679 834 679 834 733 c 0,46,47
 834 789 834 789 813.5 837 c 128,-1,48
 793 885 793 885 758 920.5 c 128,-1,49
 723 956 723 956 675 976.5 c 128,-1,50
 627 997 627 997 571 997 c 0,51,52
 517 997 517 997 470 976.5 c 128,-1,53
 423 956 423 956 387.5 920.5 c 128,-1,54
 352 885 352 885 331.5 837 c 128,-1,55
 311 789 311 789 311 733 c 0,36,37
EndSplineSet
EndChar
StartChar: yen
Encoding: 165 165 851
Width: 1145
GlyphClass: 2
Flags: W
LayerCount: 2
Fore
SplineSet
264 0 m 1,0,-1
 264 86 l 1,1,-1
 311 86 l 2,2,3
 345 86 345 86 375 90.5 c 128,-1,4
 405 95 405 95 427.5 109 c 128,-1,5
 450 123 450 123 463.5 150.5 c 128,-1,6
 477 178 477 178 479 223 c 1,7,-1
 479 362 l 1,8,-1
 193 362 l 1,9,-1
 193 459 l 1,10,-1
 479 459 l 1,11,-1
 479 602 l 1,12,-1
 193 602 l 1,13,-1
 193 698 l 1,14,-1
 440 698 l 1,15,-1
 162 1268 l 2,16,17
 147 1298 147 1298 134 1318.5 c 128,-1,18
 121 1339 121 1339 104.5 1352 c 128,-1,19
 88 1365 88 1365 67 1370.5 c 128,-1,20
 46 1376 46 1376 16 1376 c 2,21,-1
 10 1376 l 1,22,-1
 10 1462 l 1,23,-1
 508 1462 l 1,24,-1
 508 1376 l 1,25,-1
 494 1376 l 2,26,27
 432 1376 432 1376 404.5 1357 c 128,-1,28
 377 1338 377 1338 377 1296 c 0,29,30
 377 1272 377 1272 385 1241.5 c 128,-1,31
 393 1211 393 1211 410 1176 c 1,32,-1
 508 958 l 2,33,34
 523 926 523 926 537 889 c 128,-1,35
 551 852 551 852 563.5 816 c 128,-1,36
 576 780 576 780 586 749 c 128,-1,37
 596 718 596 718 602 698 c 1,38,39
 606 709 606 709 615 730.5 c 128,-1,40
 624 752 624 752 635.5 777.5 c 128,-1,41
 647 803 647 803 659.5 829.5 c 128,-1,42
 672 856 672 856 682 877 c 2,43,-1
 799 1126 l 1,44,45
 823 1180 823 1180 835.5 1225.5 c 128,-1,46
 848 1271 848 1271 848 1294 c 0,47,48
 848 1336 848 1336 819.5 1356 c 128,-1,49
 791 1376 791 1376 723 1376 c 2,50,-1
 717 1376 l 1,51,-1
 717 1462 l 1,52,-1
 1135 1462 l 1,53,-1
 1135 1376 l 1,54,-1
 1116 1376 l 2,55,56
 1090 1376 1090 1376 1071 1369 c 128,-1,57
 1052 1362 1052 1362 1035.5 1344 c 128,-1,58
 1019 1326 1019 1326 1001.5 1295 c 128,-1,59
 984 1264 984 1264 961 1217 c 2,60,-1
 711 698 l 1,61,-1
 965 698 l 1,62,-1
 965 602 l 1,63,-1
 678 602 l 1,64,-1
 678 459 l 1,65,-1
 965 459 l 1,66,-1
 965 362 l 1,67,-1
 678 362 l 1,68,-1
 678 233 l 2,69,70
 678 185 678 185 691.5 156 c 128,-1,71
 705 127 705 127 727.5 111.5 c 128,-1,72
 750 96 750 96 780.5 91 c 128,-1,73
 811 86 811 86 846 86 c 2,74,-1
 893 86 l 1,75,-1
 893 0 l 1,76,-1
 264 0 l 1,0,-1
EndSplineSet
EndChar
StartChar: brokenbar
Encoding: 166 166 852
Width: 1145
GlyphClass: 2
Flags: W
LayerCount: 2
Fore
SplineSet
633 737 m 1,0,-1
 510 737 l 1,1,-1
 510 1556 l 1,2,-1
 633 1556 l 1,3,-1
 633 737 l 1,0,-1
633 -492 m 1,4,-1
 510 -492 l 1,5,-1
 510 328 l 1,6,-1
 633 328 l 1,7,-1
 633 -492 l 1,4,-1
EndSplineSet
EndChar
StartChar: section
Encoding: 167 167 853
Width: 1114
GlyphClass: 2
Flags: W
LayerCount: 2
Fore
SplineSet
598 795 m 1,0,1
 524 830 524 830 459.5 864 c 128,-1,2
 395 898 395 898 342 940 c 1,3,4
 320 920 320 920 305.5 892 c 128,-1,5
 291 864 291 864 291 823 c 256,6,7
 291 782 291 782 305 749.5 c 128,-1,8
 319 717 319 717 353 685.5 c 128,-1,9
 387 654 387 654 444.5 621 c 128,-1,10
 502 588 502 588 590 545 c 0,11,12
 652 514 652 514 712 482.5 c 128,-1,13
 772 451 772 451 821 408 c 1,14,15
 838 432 838 432 849 461 c 128,-1,16
 860 490 860 490 860 524 c 0,17,18
 860 559 860 559 850 590 c 128,-1,19
 840 621 840 621 811.5 653 c 128,-1,20
 783 685 783 685 731.5 719.5 c 128,-1,21
 680 754 680 754 598 795 c 1,0,1
571 -133 m 0,22,23
 697 -133 697 -133 759 -77.5 c 128,-1,24
 821 -22 821 -22 821 72 c 0,25,26
 821 117 821 117 810 150.5 c 128,-1,27
 799 184 799 184 761.5 217.5 c 128,-1,28
 724 251 724 251 652.5 291.5 c 128,-1,29
 581 332 581 332 461 391 c 0,30,31
 380 431 380 431 322.5 472.5 c 128,-1,32
 265 514 265 514 229 560 c 128,-1,33
 193 606 193 606 176.5 658.5 c 128,-1,34
 160 711 160 711 160 772 c 0,35,36
 160 849 160 849 194 906.5 c 128,-1,37
 228 964 228 964 281 1001 c 1,38,39
 243 1046 243 1046 224 1101.5 c 128,-1,40
 205 1157 205 1157 205 1231 c 0,41,42
 205 1309 205 1309 233.5 1369.5 c 128,-1,43
 262 1430 262 1430 312 1471.5 c 128,-1,44
 362 1513 362 1513 431.5 1534.5 c 128,-1,45
 501 1556 501 1556 582 1556 c 0,46,47
 666 1556 666 1556 728.5 1538.5 c 128,-1,48
 791 1521 791 1521 832.5 1490.5 c 128,-1,49
 874 1460 874 1460 894.5 1418 c 128,-1,50
 915 1376 915 1376 915 1327 c 0,51,52
 915 1261 915 1261 875.5 1231.5 c 128,-1,53
 836 1202 836 1202 770 1202 c 1,54,55
 770 1250 770 1250 760 1295 c 128,-1,56
 750 1340 750 1340 726.5 1375.5 c 128,-1,57
 703 1411 703 1411 665.5 1432.5 c 128,-1,58
 628 1454 628 1454 573 1454 c 0,59,60
 471 1454 471 1454 414.5 1403 c 128,-1,61
 358 1352 358 1352 358 1255 c 0,62,63
 358 1201 358 1201 378.5 1164.5 c 128,-1,64
 399 1128 399 1128 439.5 1098.5 c 128,-1,65
 480 1069 480 1069 539 1041 c 128,-1,66
 598 1013 598 1013 676 975 c 0,67,68
 763 933 763 933 826 891 c 128,-1,69
 889 849 889 849 930 803.5 c 128,-1,70
 971 758 971 758 990.5 707 c 128,-1,71
 1010 656 1010 656 1010 596 c 0,72,73
 1010 559 1010 559 999.5 522.5 c 128,-1,74
 989 486 989 486 972 452.5 c 128,-1,75
 955 419 955 419 933 389.5 c 128,-1,76
 911 360 911 360 887 336 c 1,77,78
 916 296 916 296 933 246 c 128,-1,79
 950 196 950 196 950 133 c 0,80,81
 950 52 950 52 927.5 -15 c 128,-1,82
 905 -82 905 -82 857.5 -130.5 c 128,-1,83
 810 -179 810 -179 735.5 -206 c 128,-1,84
 661 -233 661 -233 557 -233 c 0,85,86
 478 -233 478 -233 413.5 -217.5 c 128,-1,87
 349 -202 349 -202 303 -172 c 128,-1,88
 257 -142 257 -142 232 -98 c 128,-1,89
 207 -54 207 -54 207 4 c 0,90,91
 207 46 207 46 220.5 73.5 c 128,-1,92
 234 101 234 101 253.5 117.5 c 128,-1,93
 273 134 273 134 295.5 140.5 c 128,-1,94
 318 147 318 147 336 147 c 1,95,96
 336 93 336 93 349.5 42.5 c 128,-1,97
 363 -8 363 -8 391.5 -47 c 128,-1,98
 420 -86 420 -86 464.5 -109.5 c 128,-1,99
 509 -133 509 -133 571 -133 c 0,22,23
EndSplineSet
EndChar
StartChar: dieresis
Encoding: 168 168 854
Width: 1182
GlyphClass: 2
Flags: W
LayerCount: 2
Fore
SplineSet
291 1409 m 0,0,1
 291 1441 291 1441 299 1463 c 128,-1,2
 307 1485 307 1485 321 1498.5 c 128,-1,3
 335 1512 335 1512 354 1518 c 128,-1,4
 373 1524 373 1524 395 1524 c 256,5,6
 417 1524 417 1524 436 1518 c 128,-1,7
 455 1512 455 1512 469.5 1498.5 c 128,-1,8
 484 1485 484 1485 492 1463 c 128,-1,9
 500 1441 500 1441 500 1409 c 0,10,11
 500 1378 500 1378 492 1356 c 128,-1,12
 484 1334 484 1334 469.5 1320 c 128,-1,13
 455 1306 455 1306 436 1300 c 128,-1,14
 417 1294 417 1294 395 1294 c 0,15,16
 350 1294 350 1294 320.5 1320 c 128,-1,17
 291 1346 291 1346 291 1409 c 0,0,1
680 1409 m 0,18,19
 680 1441 680 1441 688 1463 c 128,-1,20
 696 1485 696 1485 710 1498.5 c 128,-1,21
 724 1512 724 1512 743 1518 c 128,-1,22
 762 1524 762 1524 784 1524 c 256,23,24
 806 1524 806 1524 825 1518 c 128,-1,25
 844 1512 844 1512 858.5 1498.5 c 128,-1,26
 873 1485 873 1485 881 1463 c 128,-1,27
 889 1441 889 1441 889 1409 c 0,28,29
 889 1378 889 1378 881 1356 c 128,-1,30
 873 1334 873 1334 858.5 1320 c 128,-1,31
 844 1306 844 1306 825 1300 c 128,-1,32
 806 1294 806 1294 784 1294 c 0,33,34
 739 1294 739 1294 709.5 1320 c 128,-1,35
 680 1346 680 1346 680 1409 c 0,18,19
EndSplineSet
EndChar
StartChar: copyright
Encoding: 169 169 855
Width: 1731
GlyphClass: 2
Flags: W
LayerCount: 2
Fore
SplineSet
901 365 m 0,0,1
 948 365 948 365 988 377 c 128,-1,2
 1028 389 1028 389 1060 409 c 128,-1,3
 1092 429 1092 429 1115.5 454 c 128,-1,4
 1139 479 1139 479 1153 504 c 1,5,6
 1165 495 1165 495 1173.5 478.5 c 128,-1,7
 1182 462 1182 462 1182 440 c 0,8,9
 1182 412 1182 412 1162.5 383 c 128,-1,10
 1143 354 1143 354 1104.5 330 c 128,-1,11
 1066 306 1066 306 1008.5 291 c 128,-1,12
 951 276 951 276 874 276 c 0,13,14
 772 276 772 276 695.5 309 c 128,-1,15
 619 342 619 342 567.5 402 c 128,-1,16
 516 462 516 462 490.5 546 c 128,-1,17
 465 630 465 630 465 733 c 0,18,19
 465 833 465 833 493 916 c 128,-1,20
 521 999 521 999 576.5 1059 c 128,-1,21
 632 1119 632 1119 713.5 1152.5 c 128,-1,22
 795 1186 795 1186 903 1186 c 0,23,24
 974 1186 974 1186 1026.5 1174.5 c 128,-1,25
 1079 1163 1079 1163 1114 1143.5 c 128,-1,26
 1149 1124 1149 1124 1166.5 1097.5 c 128,-1,27
 1184 1071 1184 1071 1184 1040 c 0,28,29
 1184 1018 1184 1018 1173 1000 c 128,-1,30
 1162 982 1162 982 1143 969.5 c 128,-1,31
 1124 957 1124 957 1098.5 950.5 c 128,-1,32
 1073 944 1073 944 1044 944 c 1,33,34
 1044 973 1044 973 1036.5 1000.5 c 128,-1,35
 1029 1028 1029 1028 1012 1050.5 c 128,-1,36
 995 1073 995 1073 967.5 1086.5 c 128,-1,37
 940 1100 940 1100 899 1100 c 0,38,39
 827 1100 827 1100 776.5 1076 c 128,-1,40
 726 1052 726 1052 694 1005 c 128,-1,41
 662 958 662 958 647.5 890 c 128,-1,42
 633 822 633 822 633 733 c 0,43,44
 633 556 633 556 702 460.5 c 128,-1,45
 771 365 771 365 901 365 c 0,0,1
113 731 m 256,46,47
 113 835 113 835 140 931.5 c 128,-1,48
 167 1028 167 1028 215.5 1111.5 c 128,-1,49
 264 1195 264 1195 332.5 1264 c 128,-1,50
 401 1333 401 1333 484.5 1382 c 128,-1,51
 568 1431 568 1431 664 1458 c 128,-1,52
 760 1485 760 1485 864 1485 c 256,53,54
 968 1485 968 1485 1064.5 1458 c 128,-1,55
 1161 1431 1161 1431 1244.5 1382 c 128,-1,56
 1328 1333 1328 1333 1397 1264 c 128,-1,57
 1466 1195 1466 1195 1515 1111.5 c 128,-1,58
 1564 1028 1564 1028 1591 931.5 c 128,-1,59
 1618 835 1618 835 1618 731 c 256,60,61
 1618 627 1618 627 1591 531 c 128,-1,62
 1564 435 1564 435 1515 351.5 c 128,-1,63
 1466 268 1466 268 1397 199.5 c 128,-1,64
 1328 131 1328 131 1244.5 82 c 128,-1,65
 1161 33 1161 33 1064.5 6.5 c 128,-1,66
 968 -20 968 -20 864 -20 c 256,67,68
 760 -20 760 -20 664 6.5 c 128,-1,69
 568 33 568 33 484.5 82 c 128,-1,70
 401 131 401 131 332.5 199.5 c 128,-1,71
 264 268 264 268 215.5 351.5 c 128,-1,72
 167 435 167 435 140 531 c 128,-1,73
 113 627 113 627 113 731 c 256,46,47
225 731 m 0,74,75
 225 643 225 643 248 561.5 c 128,-1,76
 271 480 271 480 312.5 409 c 128,-1,77
 354 338 354 338 412.5 279.5 c 128,-1,78
 471 221 471 221 542 179.5 c 128,-1,79
 613 138 613 138 694.5 115 c 128,-1,80
 776 92 776 92 864 92 c 0,81,82
 953 92 953 92 1035 115 c 128,-1,83
 1117 138 1117 138 1188 179.5 c 128,-1,84
 1259 221 1259 221 1317.5 279.5 c 128,-1,85
 1376 338 1376 338 1417.5 409 c 128,-1,86
 1459 480 1459 480 1482 561.5 c 128,-1,87
 1505 643 1505 643 1505 731 c 256,88,89
 1505 819 1505 819 1482 901 c 128,-1,90
 1459 983 1459 983 1417.5 1054.5 c 128,-1,91
 1376 1126 1376 1126 1317.5 1184.5 c 128,-1,92
 1259 1243 1259 1243 1188 1284.5 c 128,-1,93
 1117 1326 1117 1326 1035 1349 c 128,-1,94
 953 1372 953 1372 864 1372 c 0,95,96
 776 1372 776 1372 694.5 1349 c 128,-1,97
 613 1326 613 1326 542 1284.5 c 128,-1,98
 471 1243 471 1243 412.5 1184.5 c 128,-1,99
 354 1126 354 1126 312.5 1054.5 c 128,-1,100
 271 983 271 983 248 901.5 c 128,-1,101
 225 820 225 820 225 731 c 0,74,75
EndSplineSet
EndChar
StartChar: ordfeminine
Encoding: 170 170 856
Width: 782
GlyphClass: 2
Flags: W
LayerCount: 2
Fore
SplineSet
250 985 m 0,0,1
 250 921 250 921 277 896.5 c 128,-1,2
 304 872 304 872 344 872 c 0,3,4
 378 872 378 872 405 884 c 128,-1,5
 432 896 432 896 450.5 918 c 128,-1,6
 469 940 469 940 479 970 c 128,-1,7
 489 1000 489 1000 489 1036 c 2,8,-1
 489 1133 l 1,9,-1
 426 1130 l 1,10,11
 376 1129 376 1129 342.5 1118.5 c 128,-1,12
 309 1108 309 1108 288.5 1089.5 c 128,-1,13
 268 1071 268 1071 259 1045 c 128,-1,14
 250 1019 250 1019 250 985 c 0,0,1
387 1397 m 0,15,16
 356 1397 356 1397 337 1386 c 128,-1,17
 318 1375 318 1375 307.5 1356 c 128,-1,18
 297 1337 297 1337 293 1311.5 c 128,-1,19
 289 1286 289 1286 289 1257 c 1,20,21
 211 1257 211 1257 169 1277.5 c 128,-1,22
 127 1298 127 1298 127 1346 c 0,23,24
 127 1381 127 1381 148 1405 c 128,-1,25
 169 1429 169 1429 205 1444 c 128,-1,26
 241 1459 241 1459 289 1466 c 128,-1,27
 337 1473 337 1473 391 1473 c 0,28,29
 459 1473 459 1473 509 1461 c 128,-1,30
 559 1449 559 1449 592.5 1422.5 c 128,-1,31
 626 1396 626 1396 642.5 1354 c 128,-1,32
 659 1312 659 1312 659 1251 c 2,33,-1
 659 940 l 2,34,35
 659 894 659 894 678.5 877 c 128,-1,36
 698 860 698 860 748 860 c 1,37,-1
 748 791 l 1,38,-1
 549 791 l 1,39,-1
 512 885 l 1,40,-1
 502 885 l 1,41,42
 484 865 484 865 462.5 845.5 c 128,-1,43
 441 826 441 826 414.5 811 c 128,-1,44
 388 796 388 796 356 787 c 128,-1,45
 324 778 324 778 285 778 c 0,46,47
 186 778 186 778 129 831 c 128,-1,48
 72 884 72 884 72 987 c 0,49,50
 72 1089 72 1089 153 1137.5 c 128,-1,51
 234 1186 234 1186 401 1194 c 2,52,-1
 489 1198 l 1,53,-1
 489 1257 l 2,54,55
 489 1288 489 1288 485.5 1313.5 c 128,-1,56
 482 1339 482 1339 471.5 1357.5 c 128,-1,57
 461 1376 461 1376 441 1386.5 c 128,-1,58
 421 1397 421 1397 387 1397 c 0,15,16
EndSplineSet
EndChar
StartChar: logicalnot
Encoding: 172 172 858
Width: 1145
GlyphClass: 2
Flags: W
LayerCount: 2
Fore
SplineSet
1012 793 m 1,0,-1
 1012 252 l 1,1,-1
 889 252 l 1,2,-1
 889 672 l 1,3,-1
 133 672 l 1,4,-1
 133 793 l 1,5,-1
 1012 793 l 1,0,-1
EndSplineSet
EndChar
StartChar: degree
Encoding: 176 176 862
Width: 819
GlyphClass: 2
Flags: W
LayerCount: 2
Fore
SplineSet
98 1151 m 0,0,1
 98 1216 98 1216 122.5 1272.5 c 128,-1,2
 147 1329 147 1329 189 1371 c 128,-1,3
 231 1413 231 1413 287.5 1437.5 c 128,-1,4
 344 1462 344 1462 408 1462 c 0,5,6
 473 1462 473 1462 529.5 1437.5 c 128,-1,7
 586 1413 586 1413 628 1371 c 128,-1,8
 670 1329 670 1329 694.5 1272.5 c 128,-1,9
 719 1216 719 1216 719 1151 c 0,10,11
 719 1087 719 1087 694.5 1030.5 c 128,-1,12
 670 974 670 974 628 932 c 128,-1,13
 586 890 586 890 529.5 866 c 128,-1,14
 473 842 473 842 408 842 c 0,15,16
 344 842 344 842 287.5 866 c 128,-1,17
 231 890 231 890 189 932 c 128,-1,18
 147 974 147 974 122.5 1030.5 c 128,-1,19
 98 1087 98 1087 98 1151 c 0,0,1
221 1151 m 0,20,21
 221 1113 221 1113 235.5 1078.5 c 128,-1,22
 250 1044 250 1044 275.5 1018.5 c 128,-1,23
 301 993 301 993 335 978 c 128,-1,24
 369 963 369 963 408 963 c 0,25,26
 448 963 448 963 482 978 c 128,-1,27
 516 993 516 993 541.5 1018.5 c 128,-1,28
 567 1044 567 1044 581.5 1078.5 c 128,-1,29
 596 1113 596 1113 596 1151 c 0,30,31
 596 1191 596 1191 581.5 1225.5 c 128,-1,32
 567 1260 567 1260 541.5 1285.5 c 128,-1,33
 516 1311 516 1311 482 1326 c 128,-1,34
 448 1341 448 1341 408 1341 c 0,35,36
 369 1341 369 1341 335 1326 c 128,-1,37
 301 1311 301 1311 275.5 1285.5 c 128,-1,38
 250 1260 250 1260 235.5 1225.5 c 128,-1,39
 221 1191 221 1191 221 1151 c 0,20,21
EndSplineSet
EndChar
StartChar: twosuperior
Encoding: 178 178 864
Width: 819
GlyphClass: 2
Flags: W
LayerCount: 2
Fore
SplineSet
690 1262 m 0,0,1
 690 1214 690 1214 679 1172 c 128,-1,2
 668 1130 668 1130 642 1088 c 128,-1,3
 616 1046 616 1046 573.5 1001 c 128,-1,4
 531 956 531 956 467 901 c 2,5,-1
 250 715 l 1,6,-1
 547 715 l 2,7,8
 594 715 594 715 612.5 740 c 128,-1,9
 631 765 631 765 637 799 c 2,10,-1
 645 842 l 1,11,-1
 715 842 l 1,12,-1
 709 586 l 1,13,-1
 86 586 l 1,14,-1
 86 678 l 1,15,-1
 346 911 l 2,16,17
 391 952 391 952 422 994 c 128,-1,18
 453 1036 453 1036 471.5 1078.5 c 128,-1,19
 490 1121 490 1121 498 1163 c 128,-1,20
 506 1205 506 1205 506 1245 c 0,21,22
 506 1279 506 1279 499.5 1307.5 c 128,-1,23
 493 1336 493 1336 478.5 1357 c 128,-1,24
 464 1378 464 1378 441 1389.5 c 128,-1,25
 418 1401 418 1401 385 1401 c 0,26,27
 348 1401 348 1401 322 1386.5 c 128,-1,28
 296 1372 296 1372 280 1347.5 c 128,-1,29
 264 1323 264 1323 257 1290.5 c 128,-1,30
 250 1258 250 1258 250 1223 c 1,31,32
 181 1223 181 1223 141.5 1240 c 128,-1,33
 102 1257 102 1257 102 1311 c 0,34,35
 102 1348 102 1348 120 1379.5 c 128,-1,36
 138 1411 138 1411 173.5 1434 c 128,-1,37
 209 1457 209 1457 262 1470 c 128,-1,38
 315 1483 315 1483 385 1483 c 0,39,40
 528 1483 528 1483 609 1426.5 c 128,-1,41
 690 1370 690 1370 690 1262 c 0,0,1
EndSplineSet
EndChar
StartChar: threesuperior
Encoding: 179 179 865
Width: 819
GlyphClass: 2
Flags: W
LayerCount: 2
Fore
SplineSet
356 573 m 0,0,1
 222 573 222 573 152 619.5 c 128,-1,2
 82 666 82 666 82 741 c 0,3,4
 82 786 82 786 107.5 814 c 128,-1,5
 133 842 133 842 176 842 c 1,6,7
 176 810 176 810 186.5 778.5 c 128,-1,8
 197 747 197 747 218.5 722 c 128,-1,9
 240 697 240 697 272.5 681.5 c 128,-1,10
 305 666 305 666 350 666 c 0,11,12
 435 666 435 666 483.5 707.5 c 128,-1,13
 532 749 532 749 532 844 c 0,14,15
 532 916 532 916 480 958.5 c 128,-1,16
 428 1001 428 1001 315 1001 c 2,17,-1
 248 1001 l 1,18,-1
 248 1085 l 1,19,-1
 315 1085 l 2,20,21
 354 1085 354 1085 387 1097.5 c 128,-1,22
 420 1110 420 1110 445 1133 c 128,-1,23
 470 1156 470 1156 484 1188.5 c 128,-1,24
 498 1221 498 1221 498 1262 c 0,25,26
 498 1330 498 1330 471 1365.5 c 128,-1,27
 444 1401 444 1401 381 1401 c 0,28,29
 342 1401 342 1401 316 1386.5 c 128,-1,30
 290 1372 290 1372 274.5 1347.5 c 128,-1,31
 259 1323 259 1323 252.5 1290.5 c 128,-1,32
 246 1258 246 1258 246 1223 c 1,33,34
 211 1223 211 1223 182.5 1226.5 c 128,-1,35
 154 1230 154 1230 134.5 1240 c 128,-1,36
 115 1250 115 1250 104.5 1267 c 128,-1,37
 94 1284 94 1284 94 1311 c 0,38,39
 94 1348 94 1348 112.5 1379.5 c 128,-1,40
 131 1411 131 1411 167.5 1434 c 128,-1,41
 204 1457 204 1457 257.5 1470 c 128,-1,42
 311 1483 311 1483 381 1483 c 0,43,44
 449 1483 449 1483 505 1469 c 128,-1,45
 561 1455 561 1455 601 1429 c 128,-1,46
 641 1403 641 1403 662.5 1365.5 c 128,-1,47
 684 1328 684 1328 684 1280 c 0,48,49
 684 1235 684 1235 667 1199.5 c 128,-1,50
 650 1164 650 1164 621.5 1137 c 128,-1,51
 593 1110 593 1110 555 1090.5 c 128,-1,52
 517 1071 517 1071 475 1059 c 1,53,-1
 475 1049 l 1,54,55
 516 1042 516 1042 559 1029.5 c 128,-1,56
 602 1017 602 1017 637.5 994 c 128,-1,57
 673 971 673 971 696 934.5 c 128,-1,58
 719 898 719 898 719 842 c 0,59,60
 719 767 719 767 685.5 715.5 c 128,-1,61
 652 664 652 664 599 632.5 c 128,-1,62
 546 601 546 601 482 587 c 128,-1,63
 418 573 418 573 356 573 c 0,0,1
EndSplineSet
EndChar
StartChar: acute
Encoding: 180 180 866
Width: 1182
GlyphClass: 2
Flags: W
LayerCount: 2
Fore
SplineSet
391 1268 m 1,0,1
 414 1297 414 1297 438.5 1335 c 128,-1,2
 463 1373 463 1373 486.5 1413.5 c 128,-1,3
 510 1454 510 1454 531.5 1494.5 c 128,-1,4
 553 1535 553 1535 569 1569 c 1,5,-1
 788 1569 l 1,6,-1
 788 1548 l 1,7,8
 769 1521 769 1521 732 1480.5 c 128,-1,9
 695 1440 695 1440 650 1396 c 128,-1,10
 605 1352 605 1352 557.5 1310.5 c 128,-1,11
 510 1269 510 1269 469 1241 c 1,12,-1
 391 1241 l 1,13,-1
 391 1268 l 1,0,1
EndSplineSet
EndChar
StartChar: mu
Encoding: 181 181 867
Width: 1260
GlyphClass: 2
Flags: W
LayerCount: 2
Fore
SplineSet
569 -20 m 0,0,1
 483 -20 483 -20 421.5 11.5 c 128,-1,2
 360 43 360 43 319 100 c 1,3,4
 321 15 321 15 326 -57 c 128,-1,5
 331 -129 331 -129 347.5 -183 c 128,-1,6
 364 -237 364 -237 396 -270.5 c 128,-1,7
 428 -304 428 -304 485 -313 c 1,8,9
 485 -352 485 -352 476.5 -384.5 c 128,-1,10
 468 -417 468 -417 450.5 -441 c 128,-1,11
 433 -465 433 -465 406 -478.5 c 128,-1,12
 379 -492 379 -492 342 -492 c 0,13,14
 310 -492 310 -492 280 -480 c 128,-1,15
 250 -468 250 -468 227 -439.5 c 128,-1,16
 204 -411 204 -411 190 -364 c 128,-1,17
 176 -317 176 -317 176 -248 c 0,18,19
 176 -187 176 -187 179.5 -116.5 c 128,-1,20
 183 -46 183 -46 187 39.5 c 128,-1,21
 191 125 191 125 195.5 229 c 128,-1,22
 200 333 200 333 201 461 c 1,23,-1
 201 1098 l 1,24,-1
 393 1098 l 1,25,-1
 393 410 l 2,26,27
 393 343 393 343 403 288 c 128,-1,28
 413 233 413 233 436.5 193.5 c 128,-1,29
 460 154 460 154 499.5 132.5 c 128,-1,30
 539 111 539 111 598 111 c 0,31,32
 655 111 655 111 701 135 c 128,-1,33
 747 159 747 159 779 202.5 c 128,-1,34
 811 246 811 246 828.5 307 c 128,-1,35
 846 368 846 368 846 442 c 2,36,-1
 846 1098 l 1,37,-1
 1038 1098 l 1,38,-1
 1038 264 l 2,39,40
 1038 219 1038 219 1050 185.5 c 128,-1,41
 1062 152 1062 152 1080.5 130 c 128,-1,42
 1099 108 1099 108 1122 97 c 128,-1,43
 1145 86 1145 86 1167 86 c 2,44,-1
 1174 86 l 1,45,-1
 1174 0 l 1,46,-1
 1063 0 l 2,47,48
 979 0 979 0 931 41.5 c 128,-1,49
 883 83 883 83 864 164 c 1,50,-1
 856 164 l 1,51,52
 832 123 832 123 804.5 89 c 128,-1,53
 777 55 777 55 742.5 31 c 128,-1,54
 708 7 708 7 665.5 -6.5 c 128,-1,55
 623 -20 623 -20 569 -20 c 0,0,1
EndSplineSet
EndChar
StartChar: paragraph
Encoding: 182 182 868
Width: 1264
GlyphClass: 2
Flags: W
LayerCount: 2
Fore
SplineSet
860 1452 m 1,0,-1
 666 1452 l 1,1,-1
 666 -227 l 1,2,-1
 346 -227 l 1,3,-1
 346 -141 l 1,4,-1
 373 -141 l 2,5,6
 408 -141 408 -141 438.5 -136 c 128,-1,7
 469 -131 469 -131 491.5 -115.5 c 128,-1,8
 514 -100 514 -100 527.5 -71 c 128,-1,9
 541 -42 541 -42 541 6 c 2,10,-1
 541 791 l 1,11,-1
 395 791 l 2,12,13
 305 791 305 791 245 823.5 c 128,-1,14
 185 856 185 856 149 911.5 c 128,-1,15
 113 967 113 967 97.5 1039.5 c 128,-1,16
 82 1112 82 1112 82 1192 c 0,17,18
 82 1274 82 1274 99 1341 c 128,-1,19
 116 1408 116 1408 154 1456 c 128,-1,20
 192 1504 192 1504 252 1530 c 128,-1,21
 312 1556 312 1556 399 1556 c 2,22,-1
 1180 1556 l 1,23,-1
 1180 1470 l 1,24,-1
 1153 1470 l 2,25,26
 1119 1470 1119 1470 1088 1465 c 128,-1,27
 1057 1460 1057 1460 1034.5 1444.5 c 128,-1,28
 1012 1429 1012 1429 998.5 1400 c 128,-1,29
 985 1371 985 1371 985 1323 c 2,30,-1
 985 6 l 2,31,32
 985 -42 985 -42 998.5 -71 c 128,-1,33
 1012 -100 1012 -100 1034.5 -115.5 c 128,-1,34
 1057 -131 1057 -131 1088 -136 c 128,-1,35
 1119 -141 1119 -141 1153 -141 c 2,36,-1
 1180 -141 l 1,37,-1
 1180 -227 l 1,38,-1
 860 -227 l 1,39,-1
 860 1452 l 1,0,-1
EndSplineSet
EndChar
StartChar: periodcentered
Encoding: 183 183 869
Width: 586
GlyphClass: 2
Flags: W
LayerCount: 2
Fore
SplineSet
166 729 m 0,0,1
 166 769 166 769 176 796 c 128,-1,2
 186 823 186 823 203.5 839 c 128,-1,3
 221 855 221 855 244.5 861.5 c 128,-1,4
 268 868 268 868 295 868 c 0,5,6
 321 868 321 868 344.5 861.5 c 128,-1,7
 368 855 368 855 385.5 839 c 128,-1,8
 403 823 403 823 413.5 796 c 128,-1,9
 424 769 424 769 424 729 c 0,10,11
 424 690 424 690 413.5 663.5 c 128,-1,12
 403 637 403 637 385.5 620.5 c 128,-1,13
 368 604 368 604 344.5 597 c 128,-1,14
 321 590 321 590 295 590 c 0,15,16
 268 590 268 590 244.5 597 c 128,-1,17
 221 604 221 604 203.5 620.5 c 128,-1,18
 186 637 186 637 176 663.5 c 128,-1,19
 166 690 166 690 166 729 c 0,0,1
EndSplineSet
EndChar
StartChar: cedilla
Encoding: 184 184 870
Width: 682
GlyphClass: 2
Flags: W
LayerCount: 2
Fore
SplineSet
551 -258 m 0,0,1
 551 -367 551 -367 481.5 -429.5 c 128,-1,2
 412 -492 412 -492 281 -492 c 0,3,4
 265 -492 265 -492 245 -490.5 c 128,-1,5
 225 -489 225 -489 204 -486 c 128,-1,6
 183 -483 183 -483 162 -478.5 c 128,-1,7
 141 -474 141 -474 123 -469 c 1,8,-1
 123 -365 l 1,9,10
 160 -373 160 -373 197 -377 c 128,-1,11
 234 -381 234 -381 262 -381 c 0,12,13
 321 -381 321 -381 354 -350 c 128,-1,14
 387 -319 387 -319 387 -266 c 0,15,16
 387 -206 387 -206 343.5 -176 c 128,-1,17
 300 -146 300 -146 233 -141 c 1,18,-1
 276 18 l 1,19,-1
 373 18 l 1,20,-1
 352 -70 l 1,21,22
 452 -78 452 -78 501.5 -127.5 c 128,-1,23
 551 -177 551 -177 551 -258 c 0,0,1
EndSplineSet
EndChar
StartChar: onesuperior
Encoding: 185 185 871
Width: 819
GlyphClass: 2
Flags: W
LayerCount: 2
Fore
SplineSet
145 588 m 1,0,-1
 145 657 l 1,1,-1
 240 657 l 2,2,3
 258 657 258 657 273 659.5 c 128,-1,4
 288 662 288 662 299.5 670 c 128,-1,5
 311 678 311 678 317.5 693.5 c 128,-1,6
 324 709 324 709 324 735 c 2,7,-1
 324 1325 l 1,8,-1
 133 1325 l 1,9,-1
 133 1395 l 1,10,-1
 236 1395 l 2,11,12
 259 1395 259 1395 285 1398 c 128,-1,13
 311 1401 311 1401 335 1410 c 128,-1,14
 359 1419 359 1419 378 1434 c 128,-1,15
 397 1449 397 1449 406 1473 c 1,16,-1
 508 1473 l 1,17,-1
 508 735 l 2,18,19
 508 709 508 709 515 693.5 c 128,-1,20
 522 678 522 678 533.5 670 c 128,-1,21
 545 662 545 662 560.5 659.5 c 128,-1,22
 576 657 576 657 594 657 c 2,23,-1
 688 657 l 1,24,-1
 688 588 l 1,25,-1
 145 588 l 1,0,-1
EndSplineSet
EndChar
StartChar: ordmasculine
Encoding: 186 186 872
Width: 813
GlyphClass: 2
Flags: W
LayerCount: 2
Fore
SplineSet
250 1126 m 0,0,1
 250 993 250 993 285 926.5 c 128,-1,2
 320 860 320 860 408 860 c 0,3,4
 494 860 494 860 529.5 926.5 c 128,-1,5
 565 993 565 993 565 1126 c 0,6,7
 565 1257 565 1257 528.5 1321.5 c 128,-1,8
 492 1386 492 1386 406 1386 c 256,9,10
 320 1386 320 1386 285 1321.5 c 128,-1,11
 250 1257 250 1257 250 1126 c 0,0,1
741 1126 m 0,12,13
 741 950 741 950 656 864 c 128,-1,14
 571 778 571 778 406 778 c 0,15,16
 248 778 248 778 160 864.5 c 128,-1,17
 72 951 72 951 72 1126 c 0,18,19
 72 1302 72 1302 157 1387.5 c 128,-1,20
 242 1473 242 1473 410 1473 c 0,21,22
 487 1473 487 1473 548 1451.5 c 128,-1,23
 609 1430 609 1430 652 1387 c 128,-1,24
 695 1344 695 1344 718 1279 c 128,-1,25
 741 1214 741 1214 741 1126 c 0,12,13
EndSplineSet
EndChar
StartChar: guillemotright
Encoding: 187 187 873
Width: 1053
GlyphClass: 2
Flags: W
LayerCount: 2
Fore
SplineSet
920 520 m 1,0,-1
 606 164 l 1,1,-1
 504 164 l 1,2,-1
 711 553 l 1,3,-1
 504 942 l 1,4,-1
 606 942 l 1,5,-1
 920 586 l 1,6,-1
 920 520 l 1,0,-1
549 520 m 1,7,-1
 236 164 l 1,8,-1
 133 164 l 1,9,-1
 340 553 l 1,10,-1
 133 942 l 1,11,-1
 236 942 l 1,12,-1
 549 586 l 1,13,-1
 549 520 l 1,7,-1
EndSplineSet
EndChar
StartChar: questiondown
Encoding: 191 191 877
Width: 1024
GlyphClass: 2
Flags: W
LayerCount: 2
Fore
SplineSet
502 682 m 1,0,-1
 627 682 l 1,1,-1
 627 371 l 1,2,3
 538 335 538 335 477.5 287 c 128,-1,4
 417 239 417 239 380.5 184 c 128,-1,5
 344 129 344 129 328.5 69 c 128,-1,6
 313 9 313 9 313 -53 c 0,7,8
 313 -106 313 -106 326 -149.5 c 128,-1,9
 339 -193 339 -193 366 -224 c 128,-1,10
 393 -255 393 -255 435.5 -272 c 128,-1,11
 478 -289 478 -289 537 -289 c 0,12,13
 601 -289 601 -289 644.5 -268 c 128,-1,14
 688 -247 688 -247 715 -211 c 128,-1,15
 742 -175 742 -175 754 -127.5 c 128,-1,16
 766 -80 766 -80 766 -27 c 1,17,18
 803 -27 803 -27 834 -35.5 c 128,-1,19
 865 -44 865 -44 887.5 -60.5 c 128,-1,20
 910 -77 910 -77 923 -102 c 128,-1,21
 936 -127 936 -127 936 -160 c 0,22,23
 936 -209 936 -209 913.5 -251 c 128,-1,24
 891 -293 891 -293 843.5 -323.5 c 128,-1,25
 796 -354 796 -354 724 -371.5 c 128,-1,26
 652 -389 652 -389 553 -389 c 0,27,28
 456 -389 456 -389 374 -364 c 128,-1,29
 292 -339 292 -339 232 -291.5 c 128,-1,30
 172 -244 172 -244 138 -175 c 128,-1,31
 104 -106 104 -106 104 -18 c 0,32,33
 104 66 104 66 130.5 135.5 c 128,-1,34
 157 205 157 205 208 262 c 128,-1,35
 259 319 259 319 333 365.5 c 128,-1,36
 407 412 407 412 502 451 c 1,37,-1
 502 682 l 1,0,-1
696 969 m 0,38,39
 696 929 696 929 686 902 c 128,-1,40
 676 875 676 875 658.5 859 c 128,-1,41
 641 843 641 843 617.5 836 c 128,-1,42
 594 829 594 829 567 829 c 0,43,44
 541 829 541 829 517.5 836 c 128,-1,45
 494 843 494 843 476.5 859 c 128,-1,46
 459 875 459 875 448.5 902 c 128,-1,47
 438 929 438 929 438 969 c 0,48,49
 438 1008 438 1008 448.5 1034.5 c 128,-1,50
 459 1061 459 1061 476.5 1077.5 c 128,-1,51
 494 1094 494 1094 517.5 1101 c 128,-1,52
 541 1108 541 1108 567 1108 c 0,53,54
 594 1108 594 1108 617.5 1101 c 128,-1,55
 641 1094 641 1094 658.5 1077.5 c 128,-1,56
 676 1061 676 1061 686 1034.5 c 128,-1,57
 696 1008 696 1008 696 969 c 0,38,39
EndSplineSet
EndChar
StartChar: AE
Encoding: 198 198 884
Width: 1948
GlyphClass: 2
Flags: W
LayerCount: 2
Fore
SplineSet
1151 102 m 1,0,-1
 1546 102 l 2,1,2
 1594 102 1594 102 1628.5 115.5 c 128,-1,3
 1663 129 1663 129 1686 152 c 128,-1,4
 1709 175 1709 175 1722 205.5 c 128,-1,5
 1735 236 1735 236 1741 270 c 2,6,-1
 1755 358 l 1,7,-1
 1862 358 l 1,8,-1
 1847 0 l 1,9,-1
 750 0 l 1,10,-1
 750 86 l 1,11,-1
 776 86 l 2,12,13
 810 86 810 86 840 90.5 c 128,-1,14
 870 95 870 95 892.5 109 c 128,-1,15
 915 123 915 123 929 150.5 c 128,-1,16
 943 178 943 178 944 223 c 1,17,-1
 944 489 l 1,18,-1
 473 489 l 1,19,-1
 360 274 l 2,20,21
 343 242 343 242 335.5 213 c 128,-1,22
 328 184 328 184 328 166 c 0,23,24
 328 124 328 124 359.5 105 c 128,-1,25
 391 86 391 86 451 86 c 2,26,-1
 498 86 l 1,27,-1
 498 0 l 1,28,-1
 0 0 l 1,29,-1
 0 86 l 1,30,-1
 33 86 l 2,31,32
 87 86 87 86 129.5 124 c 128,-1,33
 172 162 172 162 215 246 c 1,34,-1
 807 1366 l 1,35,-1
 647 1376 l 1,36,-1
 647 1462 l 1,37,-1
 1782 1462 l 1,38,-1
 1792 1104 l 1,39,-1
 1686 1104 l 1,40,-1
 1675 1192 l 2,41,42
 1671 1226 1671 1226 1660 1256 c 128,-1,43
 1649 1286 1649 1286 1627.5 1308.5 c 128,-1,44
 1606 1331 1606 1331 1573.5 1345 c 128,-1,45
 1541 1359 1541 1359 1495 1360 c 1,46,-1
 1151 1360 l 1,47,-1
 1151 815 l 1,48,-1
 1645 815 l 1,49,-1
 1645 715 l 1,50,-1
 1151 715 l 1,51,-1
 1151 102 l 1,0,-1
849 1221 m 128,-1,53
 808 1138 808 1138 756.5 1037.5 c 128,-1,54
 705 937 705 937 646 823 c 128,-1,55
 587 709 587 709 526 592 c 1,56,-1
 944 592 l 1,57,-1
 944 1360 l 1,58,-1
 915 1360 l 1,59,52
 890 1304 890 1304 849 1221 c 128,-1,53
EndSplineSet
EndChar
StartChar: Eth
Encoding: 208 208 894
Width: 1489
GlyphClass: 2
Flags: W
LayerCount: 2
Fore
SplineSet
78 815 m 1,0,-1
 272 815 l 1,1,-1
 272 1237 l 2,2,3
 272 1282 272 1282 258.5 1309.5 c 128,-1,4
 245 1337 245 1337 222 1352 c 128,-1,5
 199 1367 199 1367 168.5 1371.5 c 128,-1,6
 138 1376 138 1376 104 1376 c 2,7,-1
 78 1376 l 1,8,-1
 78 1462 l 1,9,-1
 705 1462 l 2,10,11
 863 1462 863 1462 987 1413.5 c 128,-1,12
 1111 1365 1111 1365 1196.5 1272 c 128,-1,13
 1282 1179 1282 1179 1327 1043 c 128,-1,14
 1372 907 1372 907 1372 733 c 0,15,16
 1372 565 1372 565 1330 429.5 c 128,-1,17
 1288 294 1288 294 1205 198.5 c 128,-1,18
 1122 103 1122 103 996.5 51.5 c 128,-1,19
 871 0 871 0 705 0 c 2,20,-1
 78 0 l 1,21,-1
 78 86 l 1,22,-1
 104 86 l 2,23,24
 139 86 139 86 169.5 91 c 128,-1,25
 200 96 200 96 223 111.5 c 128,-1,26
 246 127 246 127 259 156 c 128,-1,27
 272 185 272 185 272 233 c 2,28,-1
 272 715 l 1,29,-1
 78 715 l 1,30,-1
 78 815 l 1,0,-1
657 104 m 2,31,32
 779 104 779 104 870.5 145.5 c 128,-1,33
 962 187 962 187 1023 267 c 128,-1,34
 1084 347 1084 347 1114.5 464 c 128,-1,35
 1145 581 1145 581 1145 733 c 256,36,37
 1145 885 1145 885 1114.5 1002 c 128,-1,38
 1084 1119 1084 1119 1023.5 1198.5 c 128,-1,39
 963 1278 963 1278 871.5 1319 c 128,-1,40
 780 1360 780 1360 659 1360 c 2,41,-1
 479 1360 l 1,42,-1
 479 815 l 1,43,-1
 827 815 l 1,44,-1
 827 715 l 1,45,-1
 479 715 l 1,46,-1
 479 104 l 1,47,-1
 657 104 l 2,31,32
EndSplineSet
EndChar
StartChar: multiply
Encoding: 215 215 901
Width: 1145
GlyphClass: 2
Flags: W
LayerCount: 2
Fore
SplineSet
571 647 m 1,0,-1
 231 307 l 1,1,-1
 145 395 l 1,2,-1
 485 735 l 1,3,-1
 145 1073 l 1,4,-1
 231 1159 l 1,5,-1
 571 819 l 1,6,-1
 911 1161 l 1,7,-1
 997 1073 l 1,8,-1
 657 733 l 1,9,-1
 997 393 l 1,10,-1
 911 307 l 1,11,-1
 571 647 l 1,0,-1
EndSplineSet
EndChar
StartChar: Oslash
Encoding: 216 216 902
Width: 1520
GlyphClass: 2
Flags: W
LayerCount: 2
Fore
SplineSet
1163 1354 m 1,0,1
 1281 1257 1281 1257 1342 1099 c 128,-1,2
 1403 941 1403 941 1403 733 c 0,3,4
 1403 564 1403 564 1361 425 c 128,-1,5
 1319 286 1319 286 1237 187 c 128,-1,6
 1155 88 1155 88 1035 34 c 128,-1,7
 915 -20 915 -20 760 -20 c 0,8,9
 667 -20 667 -20 587.5 -2.5 c 128,-1,10
 508 15 508 15 442 49 c 1,11,-1
 371 -82 l 1,12,-1
 250 -82 l 1,13,-1
 354 106 l 1,14,15
 233 204 233 204 174 364.5 c 128,-1,16
 115 525 115 525 115 735 c 0,17,18
 115 905 115 905 155 1043.5 c 128,-1,19
 195 1182 195 1182 275 1280 c 128,-1,20
 355 1378 355 1378 477 1431.5 c 128,-1,21
 599 1485 599 1485 762 1485 c 0,22,23
 853 1485 853 1485 931 1465.5 c 128,-1,24
 1009 1446 1009 1446 1075 1411 c 1,25,-1
 1151 1546 l 1,26,-1
 1270 1546 l 1,27,-1
 1163 1354 l 1,0,1
342 733 m 0,28,29
 342 578 342 578 364.5 460 c 128,-1,30
 387 342 387 342 438 258 c 1,31,-1
 1010 1292 l 1,32,33
 916 1374 916 1374 762 1374 c 0,34,35
 648 1374 648 1374 568 1331 c 128,-1,36
 488 1288 488 1288 437.5 1206 c 128,-1,37
 387 1124 387 1124 364.5 1004.5 c 128,-1,38
 342 885 342 885 342 733 c 0,28,29
1176 733 m 0,39,40
 1176 886 1176 886 1153.5 1004.5 c 128,-1,41
 1131 1123 1131 1123 1081 1206 c 1,42,-1
 510 170 l 1,43,44
 605 90 605 90 760 90 c 0,45,46
 874 90 874 90 953.5 133.5 c 128,-1,47
 1033 177 1033 177 1082.5 259.5 c 128,-1,48
 1132 342 1132 342 1154 461.5 c 128,-1,49
 1176 581 1176 581 1176 733 c 0,39,40
EndSplineSet
EndChar
StartChar: Thorn
Encoding: 222 222 908
Width: 1237
GlyphClass: 2
Flags: W
LayerCount: 2
Fore
SplineSet
78 0 m 1,0,-1
 78 86 l 1,1,-1
 104 86 l 2,2,3
 139 86 139 86 169.5 91 c 128,-1,4
 200 96 200 96 223 111.5 c 128,-1,5
 246 127 246 127 259 156 c 128,-1,6
 272 185 272 185 272 233 c 2,7,-1
 272 1229 l 2,8,9
 272 1277 272 1277 259 1306 c 128,-1,10
 246 1335 246 1335 223 1350.5 c 128,-1,11
 200 1366 200 1366 169.5 1371 c 128,-1,12
 139 1376 139 1376 104 1376 c 2,13,-1
 78 1376 l 1,14,-1
 78 1462 l 1,15,-1
 694 1462 l 1,16,-1
 694 1376 l 1,17,-1
 647 1376 l 2,18,19
 613 1376 613 1376 582 1371 c 128,-1,20
 551 1366 551 1366 528.5 1350.5 c 128,-1,21
 506 1335 506 1335 492.5 1306 c 128,-1,22
 479 1277 479 1277 479 1229 c 2,23,-1
 479 1167 l 1,24,-1
 653 1167 l 2,25,26
 911 1167 911 1167 1034 1063.5 c 128,-1,27
 1157 960 1157 960 1157 760 c 0,28,29
 1157 669 1157 669 1128.5 588 c 128,-1,30
 1100 507 1100 507 1035 446 c 128,-1,31
 970 385 970 385 865 350 c 128,-1,32
 760 315 760 315 608 315 c 2,33,-1
 479 315 l 1,34,-1
 479 233 l 2,35,36
 479 185 479 185 492.5 156 c 128,-1,37
 506 127 506 127 528.5 111.5 c 128,-1,38
 551 96 551 96 582 91 c 128,-1,39
 613 86 613 86 647 86 c 2,40,-1
 694 86 l 1,41,-1
 694 0 l 1,42,-1
 78 0 l 1,0,-1
479 412 m 1,43,-1
 588 412 l 2,44,45
 681 412 681 412 747 428.5 c 128,-1,46
 813 445 813 445 855 484.5 c 128,-1,47
 897 524 897 524 916.5 589.5 c 128,-1,48
 936 655 936 655 936 752 c 0,49,50
 936 838 936 838 919 898 c 128,-1,51
 902 958 902 958 864 996 c 128,-1,52
 826 1034 826 1034 765.5 1051.5 c 128,-1,53
 705 1069 705 1069 618 1069 c 2,54,-1
 479 1069 l 1,55,-1
 479 412 l 1,43,-1
EndSplineSet
EndChar
StartChar: germandbls
Encoding: 223 223 909
Width: 1325
GlyphClass: 2
Flags: W
LayerCount: 2
Fore
SplineSet
887 78 m 0,0,1
 962 78 962 78 1010.5 124 c 128,-1,2
 1059 170 1059 170 1059 264 c 0,3,4
 1059 298 1059 298 1051.5 327 c 128,-1,5
 1044 356 1044 356 1022 383 c 128,-1,6
 1000 410 1000 410 961 437 c 128,-1,7
 922 464 922 464 860 494 c 0,8,9
 796 526 796 526 747 557 c 128,-1,10
 698 588 698 588 665.5 626 c 128,-1,11
 633 664 633 664 616.5 712 c 128,-1,12
 600 760 600 760 600 825 c 0,13,14
 600 887 600 887 620.5 938 c 128,-1,15
 641 989 641 989 682.5 1025.5 c 128,-1,16
 724 1062 724 1062 787.5 1082 c 128,-1,17
 851 1102 851 1102 938 1102 c 1,18,19
 938 1199 938 1199 924 1268.5 c 128,-1,20
 910 1338 910 1338 879 1383 c 128,-1,21
 848 1428 848 1428 799.5 1449 c 128,-1,22
 751 1470 751 1470 682 1470 c 0,23,24
 620 1470 620 1470 573.5 1450 c 128,-1,25
 527 1430 527 1430 496 1393.5 c 128,-1,26
 465 1357 465 1357 449.5 1305 c 128,-1,27
 434 1253 434 1253 434 1188 c 2,28,-1
 434 0 l 1,29,-1
 47 0 l 1,30,-1
 47 86 l 1,31,-1
 74 86 l 2,32,33
 109 86 109 86 139.5 91 c 128,-1,34
 170 96 170 96 192.5 111.5 c 128,-1,35
 215 127 215 127 228.5 156 c 128,-1,36
 242 185 242 185 242 233 c 2,37,-1
 242 1001 l 1,38,-1
 76 1001 l 1,39,-1
 76 1098 l 1,40,-1
 242 1098 l 1,41,-1
 242 1159 l 2,42,43
 242 1272 242 1272 276 1349 c 128,-1,44
 310 1426 310 1426 369.5 1473.5 c 128,-1,45
 429 1521 429 1521 509.5 1542 c 128,-1,46
 590 1563 590 1563 684 1563 c 0,47,48
 812 1563 812 1563 897 1526.5 c 128,-1,49
 982 1490 982 1490 1033.5 1419.5 c 128,-1,50
 1085 1349 1085 1349 1107 1245 c 128,-1,51
 1129 1141 1129 1141 1130 1006 c 1,52,-1
 981 1006 l 2,53,54
 872 1006 872 1006 821 964.5 c 128,-1,55
 770 923 770 923 770 840 c 0,56,57
 770 809 770 809 780 783.5 c 128,-1,58
 790 758 790 758 815 734.5 c 128,-1,59
 840 711 840 711 881 687.5 c 128,-1,60
 922 664 922 664 983 635 c 1,61,62
 1060 600 1060 600 1109 560.5 c 128,-1,63
 1158 521 1158 521 1186 478 c 128,-1,64
 1214 435 1214 435 1224.5 390 c 128,-1,65
 1235 345 1235 345 1235 299 c 0,66,67
 1235 221 1235 221 1211 161 c 128,-1,68
 1187 101 1187 101 1142.5 61 c 128,-1,69
 1098 21 1098 21 1034 0.5 c 128,-1,70
 970 -20 970 -20 889 -20 c 0,71,72
 817 -20 817 -20 758 -6.5 c 128,-1,73
 699 7 699 7 657 34.5 c 128,-1,74
 615 62 615 62 592 102.5 c 128,-1,75
 569 143 569 143 569 197 c 0,76,77
 569 238 569 238 581 265.5 c 128,-1,78
 593 293 593 293 611 309 c 128,-1,79
 629 325 629 325 649.5 331.5 c 128,-1,80
 670 338 670 338 686 338 c 1,81,82
 686 284 686 284 696.5 237 c 128,-1,83
 707 190 707 190 730.5 154.5 c 128,-1,84
 754 119 754 119 792.5 98.5 c 128,-1,85
 831 78 831 78 887 78 c 0,0,1
EndSplineSet
EndChar
StartChar: ae
Encoding: 230 230 916
Width: 1722
GlyphClass: 2
Flags: W
LayerCount: 2
Fore
SplineSet
301 297 m 0,0,1
 301 201 301 201 341.5 153.5 c 128,-1,2
 382 106 382 106 467 106 c 0,3,4
 529 106 529 106 579.5 126 c 128,-1,5
 630 146 630 146 665.5 183 c 128,-1,6
 701 220 701 220 720 273 c 128,-1,7
 739 326 739 326 739 391 c 2,8,-1
 739 514 l 1,9,-1
 739 541 l 1,10,-1
 739 557 l 1,11,-1
 608 551 l 2,12,13
 521 547 521 547 462.5 529.5 c 128,-1,14
 404 512 404 512 368 480.5 c 128,-1,15
 332 449 332 449 316.5 403 c 128,-1,16
 301 357 301 357 301 297 c 0,0,1
1190 1008 m 0,17,18
 1075 1008 1075 1008 1014 915.5 c 128,-1,19
 953 823 953 823 942 645 c 1,20,-1
 1413 645 l 1,21,22
 1413 726 1413 726 1401 793 c 128,-1,23
 1389 860 1389 860 1363 908 c 128,-1,24
 1337 956 1337 956 1294.5 982 c 128,-1,25
 1252 1008 1252 1008 1190 1008 c 0,17,18
1221 -20 m 0,26,27
 1071 -20 1071 -20 966.5 39 c 128,-1,28
 862 98 862 98 805 213 c 1,29,30
 786 167 786 167 752 125 c 128,-1,31
 718 83 718 83 669.5 50.5 c 128,-1,32
 621 18 621 18 558.5 -1 c 128,-1,33
 496 -20 496 -20 420 -20 c 0,34,35
 352 -20 352 -20 293.5 -0.5 c 128,-1,36
 235 19 235 19 192.5 59.5 c 128,-1,37
 150 100 150 100 126 161.5 c 128,-1,38
 102 223 102 223 102 307 c 0,39,40
 102 470 102 470 218 549 c 128,-1,41
 334 628 334 628 569 635 c 1,42,-1
 739 641 l 1,43,-1
 739 764 l 2,44,45
 739 819 739 819 733 865.5 c 128,-1,46
 727 912 727 912 707 945.5 c 128,-1,47
 687 979 687 979 649.5 997.5 c 128,-1,48
 612 1016 612 1016 549 1016 c 0,49,50
 490 1016 490 1016 453.5 999.5 c 128,-1,51
 417 983 417 983 396.5 953 c 128,-1,52
 376 923 376 923 369 882 c 128,-1,53
 362 841 362 841 362 793 c 1,54,55
 277 793 277 793 232.5 822 c 128,-1,56
 188 851 188 851 188 922 c 0,57,58
 188 975 188 975 217 1012 c 128,-1,59
 246 1049 246 1049 296.5 1072.5 c 128,-1,60
 347 1096 347 1096 414 1107 c 128,-1,61
 481 1118 481 1118 557 1118 c 0,62,63
 673 1118 673 1118 752.5 1088.5 c 128,-1,64
 832 1059 832 1059 877 993 c 1,65,66
 991 1118 991 1118 1194 1118 c 0,67,68
 1293 1118 1293 1118 1372 1087 c 128,-1,69
 1451 1056 1451 1056 1506 994.5 c 128,-1,70
 1561 933 1561 933 1590.5 841.5 c 128,-1,71
 1620 750 1620 750 1620 629 c 2,72,-1
 1620 535 l 1,73,-1
 938 535 l 1,74,75
 940 423 940 423 959.5 342.5 c 128,-1,76
 979 262 979 262 1017.5 210 c 128,-1,77
 1056 158 1056 158 1115 133.5 c 128,-1,78
 1174 109 1174 109 1255 109 c 0,79,80
 1300 109 1300 109 1342 120 c 128,-1,81
 1384 131 1384 131 1420.5 150.5 c 128,-1,82
 1457 170 1457 170 1486.5 196 c 128,-1,83
 1516 222 1516 222 1536 252 c 1,84,85
 1550 246 1550 246 1562.5 227 c 128,-1,86
 1575 208 1575 208 1575 182 c 0,87,88
 1575 151 1575 151 1553 115.5 c 128,-1,89
 1531 80 1531 80 1487 50 c 128,-1,90
 1443 20 1443 20 1376.5 0 c 128,-1,91
 1310 -20 1310 -20 1221 -20 c 0,26,27
EndSplineSet
EndChar
StartChar: eth
Encoding: 240 240 926
Width: 1182
GlyphClass: 2
Flags: W
LayerCount: 2
Fore
SplineSet
307 1559 m 1,0,1
 401 1536 401 1536 491 1498.5 c 128,-1,2
 581 1461 581 1461 662 1407 c 1,3,-1
 926 1561 l 1,4,-1
 926 1444 l 1,5,-1
 745 1341 l 1,6,7
 817 1281 817 1281 877 1203.5 c 128,-1,8
 937 1126 937 1126 979.5 1032 c 128,-1,9
 1022 938 1022 938 1045.5 828.5 c 128,-1,10
 1069 719 1069 719 1069 596 c 0,11,12
 1069 284 1069 284 946.5 132 c 128,-1,13
 824 -20 824 -20 588 -20 c 0,14,15
 477 -20 477 -20 389 12.5 c 128,-1,16
 301 45 301 45 239.5 111 c 128,-1,17
 178 177 178 177 145.5 276.5 c 128,-1,18
 113 376 113 376 113 510 c 0,19,20
 113 776 113 776 234.5 906 c 128,-1,21
 356 1036 356 1036 594 1036 c 0,22,23
 662 1036 662 1036 720 1022 c 128,-1,24
 778 1008 778 1008 829 983 c 1,25,26
 808 1051 808 1051 754.5 1126.5 c 128,-1,27
 701 1202 701 1202 623 1270 c 1,28,-1
 367 1124 l 1,29,-1
 367 1239 l 1,30,-1
 539 1337 l 1,31,32
 488 1371 488 1371 430 1399.5 c 128,-1,33
 372 1428 372 1428 307 1448 c 1,34,-1
 307 1559 l 1,0,1
311 510 m 0,35,36
 311 405 311 405 326 326 c 128,-1,37
 341 247 341 247 374.5 193.5 c 128,-1,38
 408 140 408 140 461.5 113 c 128,-1,39
 515 86 515 86 592 86 c 256,40,41
 669 86 669 86 722 113 c 128,-1,42
 775 140 775 140 808 193.5 c 128,-1,43
 841 247 841 247 855.5 326 c 128,-1,44
 870 405 870 405 870 510 c 0,45,46
 870 614 870 614 855 692.5 c 128,-1,47
 840 771 840 771 807 823.5 c 128,-1,48
 774 876 774 876 720.5 902 c 128,-1,49
 667 928 667 928 590 928 c 256,50,51
 513 928 513 928 460 902 c 128,-1,52
 407 876 407 876 374 823.5 c 128,-1,53
 341 771 341 771 326 692.5 c 128,-1,54
 311 614 311 614 311 510 c 0,35,36
EndSplineSet
EndChar
StartChar: divide
Encoding: 247 247 933
Width: 1145
GlyphClass: 2
Flags: W
LayerCount: 2
Fore
SplineSet
1012 672 m 1,0,-1
 133 672 l 1,1,-1
 133 793 l 1,2,-1
 1012 793 l 1,3,-1
 1012 672 l 1,0,-1
469 1120 m 0,4,5
 469 1152 469 1152 477 1174 c 128,-1,6
 485 1196 485 1196 499 1209 c 128,-1,7
 513 1222 513 1222 532 1227.5 c 128,-1,8
 551 1233 551 1233 573 1233 c 256,9,10
 595 1233 595 1233 614 1227.5 c 128,-1,11
 633 1222 633 1222 647.5 1209 c 128,-1,12
 662 1196 662 1196 670 1174 c 128,-1,13
 678 1152 678 1152 678 1120 c 0,14,15
 678 1089 678 1089 670 1067.5 c 128,-1,16
 662 1046 662 1046 647.5 1032.5 c 128,-1,17
 633 1019 633 1019 614 1013.5 c 128,-1,18
 595 1008 595 1008 573 1008 c 256,19,20
 551 1008 551 1008 532 1013.5 c 128,-1,21
 513 1019 513 1019 499 1032.5 c 128,-1,22
 485 1046 485 1046 477 1067.5 c 128,-1,23
 469 1089 469 1089 469 1120 c 0,4,5
469 344 m 0,24,25
 469 376 469 376 477 398 c 128,-1,26
 485 420 485 420 499 433 c 128,-1,27
 513 446 513 446 532 451.5 c 128,-1,28
 551 457 551 457 573 457 c 256,29,30
 595 457 595 457 614 451.5 c 128,-1,31
 633 446 633 446 647.5 433 c 128,-1,32
 662 420 662 420 670 398 c 128,-1,33
 678 376 678 376 678 344 c 0,34,35
 678 313 678 313 670 291 c 128,-1,36
 662 269 662 269 647.5 256 c 128,-1,37
 633 243 633 243 614 237 c 128,-1,38
 595 231 595 231 573 231 c 0,39,40
 528 231 528 231 498.5 256 c 128,-1,41
 469 281 469 281 469 344 c 0,24,25
EndSplineSet
EndChar
StartChar: oslash
Encoding: 248 248 934
Width: 1182
GlyphClass: 2
Flags: W
LayerCount: 2
Fore
SplineSet
930 991 m 1,0,1
 998 922 998 922 1033.5 812.5 c 128,-1,2
 1069 703 1069 703 1069 551 c 0,3,4
 1069 262 1069 262 946.5 121 c 128,-1,5
 824 -20 824 -20 588 -20 c 0,6,7
 517 -20 517 -20 455 -6 c 128,-1,8
 393 8 393 8 342 37 c 1,9,-1
 268 -82 l 1,10,-1
 147 -82 l 1,11,-1
 258 98 l 1,12,13
 187 170 187 170 150 281.5 c 128,-1,14
 113 393 113 393 113 551 c 0,15,16
 113 838 113 838 234.5 978 c 128,-1,17
 356 1118 356 1118 594 1118 c 0,18,19
 668 1118 668 1118 731.5 1102 c 128,-1,20
 795 1086 795 1086 848 1055 c 1,21,-1
 926 1180 l 1,22,-1
 1044 1180 l 1,23,-1
 930 991 l 1,0,1
311 551 m 0,24,25
 311 457 311 457 321 382 c 128,-1,26
 331 307 331 307 352 250 c 1,27,-1
 776 936 l 1,28,29
 708 1010 708 1010 590 1010 c 0,30,31
 513 1010 513 1010 460 981 c 128,-1,32
 407 952 407 952 374 894.5 c 128,-1,33
 341 837 341 837 326 751 c 128,-1,34
 311 665 311 665 311 551 c 0,24,25
870 551 m 0,35,36
 870 728 870 728 834 836 c 1,37,-1
 412 152 l 1,38,39
 444 120 444 120 488.5 103 c 128,-1,40
 533 86 533 86 592 86 c 0,41,42
 669 86 669 86 722 116 c 128,-1,43
 775 146 775 146 808 204.5 c 128,-1,44
 841 263 841 263 855.5 350 c 128,-1,45
 870 437 870 437 870 551 c 0,35,36
EndSplineSet
EndChar
StartChar: thorn
Encoding: 254 254 940
Width: 1257
GlyphClass: 2
Flags: W
LayerCount: 2
Fore
SplineSet
692 987 m 0,0,1
 612 987 612 987 558.5 960.5 c 128,-1,2
 505 934 505 934 473 880 c 128,-1,3
 441 826 441 826 427.5 744 c 128,-1,4
 414 662 414 662 414 551 c 0,5,6
 414 444 414 444 427.5 362 c 128,-1,7
 441 280 441 280 473.5 224 c 128,-1,8
 506 168 506 168 559.5 139.5 c 128,-1,9
 613 111 613 111 694 111 c 0,10,11
 761 111 761 111 809 139.5 c 128,-1,12
 857 168 857 168 887.5 224 c 128,-1,13
 918 280 918 280 932 362.5 c 128,-1,14
 946 445 946 445 946 553 c 0,15,16
 946 771 946 771 887 879 c 128,-1,17
 828 987 828 987 692 987 c 0,0,1
1145 551 m 0,18,19
 1145 403 1145 403 1117.5 295 c 128,-1,20
 1090 187 1090 187 1037 117 c 128,-1,21
 984 47 984 47 906 13.5 c 128,-1,22
 828 -20 828 -20 727 -20 c 0,23,24
 668 -20 668 -20 620 -7 c 128,-1,25
 572 6 572 6 533.5 30 c 128,-1,26
 495 54 495 54 465.5 87 c 128,-1,27
 436 120 436 120 414 160 c 1,28,-1
 406 160 l 1,29,30
 408 107 408 107 410 61 c 0,31,32
 411 41 411 41 411.5 21 c 128,-1,33
 412 1 412 1 412.5 -17 c 128,-1,34
 413 -35 413 -35 413.5 -49.5 c 128,-1,35
 414 -64 414 -64 414 -72 c 2,36,-1
 414 -268 l 2,37,38
 414 -313 414 -313 427.5 -340.5 c 128,-1,39
 441 -368 441 -368 464 -382.5 c 128,-1,40
 487 -397 487 -397 517.5 -401.5 c 128,-1,41
 548 -406 548 -406 582 -406 c 2,42,-1
 588 -406 l 1,43,-1
 588 -492 l 1,44,-1
 37 -492 l 1,45,-1
 37 -406 l 1,46,-1
 53 -406 l 2,47,48
 87 -406 87 -406 118 -401 c 128,-1,49
 149 -396 149 -396 171.5 -380.5 c 128,-1,50
 194 -365 194 -365 207.5 -335.5 c 128,-1,51
 221 -306 221 -306 221 -258 c 2,52,-1
 221 1331 l 2,53,54
 221 1376 221 1376 207.5 1403.5 c 128,-1,55
 194 1431 194 1431 171 1446 c 128,-1,56
 148 1461 148 1461 117.5 1465.5 c 128,-1,57
 87 1470 87 1470 53 1470 c 2,58,-1
 37 1470 l 1,59,-1
 37 1556 l 1,60,-1
 414 1556 l 1,61,-1
 414 1180 l 2,62,63
 414 1145 414 1145 413 1099.5 c 128,-1,64
 412 1054 412 1054 410 1012 c 0,65,66
 408 964 408 964 406 913 c 1,67,-1
 414 913 l 1,68,69
 437 960 437 960 466 998 c 128,-1,70
 495 1036 495 1036 533 1062.5 c 128,-1,71
 571 1089 571 1089 619 1103.5 c 128,-1,72
 667 1118 667 1118 727 1118 c 0,73,74
 828 1118 828 1118 906 1084.5 c 128,-1,75
 984 1051 984 1051 1037 981.5 c 128,-1,76
 1090 912 1090 912 1117.5 805 c 128,-1,77
 1145 698 1145 698 1145 551 c 0,18,19
EndSplineSet
EndChar
StartChar: dotlessi
Encoding: 305 305 942
Width: 655
GlyphClass: 2
Flags: W
LayerCount: 2
Fore
SplineSet
74 86 m 2,0,1
 108 86 108 86 138.5 90.5 c 128,-1,2
 169 95 169 95 192 109 c 128,-1,3
 215 123 215 123 228.5 150.5 c 128,-1,4
 242 178 242 178 242 223 c 2,5,-1
 242 872 l 2,6,7
 242 917 242 917 228.5 944.5 c 128,-1,8
 215 972 215 972 192 987 c 128,-1,9
 169 1002 169 1002 138.5 1007 c 128,-1,10
 108 1012 108 1012 74 1012 c 2,11,-1
 68 1012 l 1,12,-1
 68 1098 l 1,13,-1
 434 1098 l 1,14,-1
 434 233 l 2,15,16
 434 185 434 185 447.5 156 c 128,-1,17
 461 127 461 127 483.5 111.5 c 128,-1,18
 506 96 506 96 537 91 c 128,-1,19
 568 86 568 86 602 86 c 2,20,-1
 629 86 l 1,21,-1
 629 0 l 1,22,-1
 47 0 l 1,23,-1
 47 86 l 1,24,-1
 74 86 l 2,0,1
EndSplineSet
EndChar
StartChar: circumflex
Encoding: 710 710 943
Width: 1182
GlyphClass: 2
Flags: W
LayerCount: 2
Fore
SplineSet
289 1268 m 1,0,1
 313 1297 313 1297 342 1335 c 128,-1,2
 371 1373 371 1373 399.5 1413.5 c 128,-1,3
 428 1454 428 1454 453 1494.5 c 128,-1,4
 478 1535 478 1535 494 1569 c 1,5,-1
 688 1569 l 1,6,7
 704 1535 704 1535 729 1494.5 c 128,-1,8
 754 1454 754 1454 782.5 1413.5 c 128,-1,9
 811 1373 811 1373 840 1335 c 128,-1,10
 869 1297 869 1297 893 1268 c 1,11,-1
 893 1241 l 1,12,-1
 813 1241 l 1,13,14
 754 1275 754 1275 695 1325.5 c 128,-1,15
 636 1376 636 1376 590 1425 c 1,16,17
 543 1376 543 1376 485 1325.5 c 128,-1,18
 427 1275 427 1275 369 1241 c 1,19,-1
 289 1241 l 1,20,-1
 289 1268 l 1,0,1
EndSplineSet
EndChar
StartChar: ring
Encoding: 730 730 944
Width: 682
GlyphClass: 2
Flags: W
LayerCount: 2
Fore
SplineSet
586 1444 m 0,0,1
 586 1389 586 1389 567 1347.5 c 128,-1,2
 548 1306 548 1306 514.5 1278 c 128,-1,3
 481 1250 481 1250 436 1235.5 c 128,-1,4
 391 1221 391 1221 340 1221 c 256,5,6
 289 1221 289 1221 244 1235.5 c 128,-1,7
 199 1250 199 1250 165.5 1278 c 128,-1,8
 132 1306 132 1306 113 1347.5 c 128,-1,9
 94 1389 94 1389 94 1444 c 0,10,11
 94 1498 94 1498 113 1540 c 128,-1,12
 132 1582 132 1582 165.5 1610 c 128,-1,13
 199 1638 199 1638 244 1652.5 c 128,-1,14
 289 1667 289 1667 340 1667 c 256,15,16
 391 1667 391 1667 436 1652.5 c 128,-1,17
 481 1638 481 1638 514.5 1610 c 128,-1,18
 548 1582 548 1582 567 1540 c 128,-1,19
 586 1498 586 1498 586 1444 c 0,0,1
475 1444 m 256,20,21
 475 1477 475 1477 464.5 1500.5 c 128,-1,22
 454 1524 454 1524 435.5 1538.5 c 128,-1,23
 417 1553 417 1553 392.5 1560 c 128,-1,24
 368 1567 368 1567 340 1567 c 256,25,26
 312 1567 312 1567 287.5 1560 c 128,-1,27
 263 1553 263 1553 244.5 1538.5 c 128,-1,28
 226 1524 226 1524 215.5 1500.5 c 128,-1,29
 205 1477 205 1477 205 1444 c 256,30,31
 205 1411 205 1411 215.5 1387.5 c 128,-1,32
 226 1364 226 1364 244.5 1349.5 c 128,-1,33
 263 1335 263 1335 287.5 1328 c 128,-1,34
 312 1321 312 1321 340 1321 c 256,35,36
 368 1321 368 1321 392.5 1328 c 128,-1,37
 417 1335 417 1335 435.5 1349.5 c 128,-1,38
 454 1364 454 1364 464.5 1387.5 c 128,-1,39
 475 1411 475 1411 475 1444 c 256,20,21
EndSplineSet
EndChar
StartChar: tilde
Encoding: 732 732 945
Width: 1182
GlyphClass: 2
Flags: W
LayerCount: 2
Fore
SplineSet
762 1374 m 0,0,1
 792 1374 792 1374 810.5 1383 c 128,-1,2
 829 1392 829 1392 839.5 1407.5 c 128,-1,3
 850 1423 850 1423 854.5 1442.5 c 128,-1,4
 859 1462 859 1462 862 1483 c 1,5,-1
 954 1483 l 1,6,7
 951 1436 951 1436 937.5 1392.5 c 128,-1,8
 924 1349 924 1349 898 1315 c 128,-1,9
 872 1281 872 1281 833 1261 c 128,-1,10
 794 1241 794 1241 739 1241 c 256,11,12
 684 1241 684 1241 639.5 1261 c 128,-1,13
 595 1281 595 1281 556.5 1305.5 c 128,-1,14
 518 1330 518 1330 484.5 1350 c 128,-1,15
 451 1370 451 1370 418 1370 c 0,16,17
 387 1370 387 1370 369 1361 c 128,-1,18
 351 1352 351 1352 340.5 1337 c 128,-1,19
 330 1322 330 1322 325 1302.5 c 128,-1,20
 320 1283 320 1283 317 1262 c 1,21,-1
 225 1262 l 1,22,23
 228 1309 228 1309 241.5 1352 c 128,-1,24
 255 1395 255 1395 281.5 1429 c 128,-1,25
 308 1463 308 1463 347.5 1483 c 128,-1,26
 387 1503 387 1503 442 1503 c 256,27,28
 497 1503 497 1503 541.5 1483 c 128,-1,29
 586 1463 586 1463 624.5 1438.5 c 128,-1,30
 663 1414 663 1414 696.5 1394 c 128,-1,31
 730 1374 730 1374 762 1374 c 0,0,1
EndSplineSet
EndChar
StartChar: uni0602
Encoding: 1538 1538 543
Width: 1642
GlyphClass: 2
Flags: W
LayerCount: 2
Fore
SplineSet
674 -70 m 0,0,1
 674 -145 674 -145 621 -233 c 1,2,3
 925 -233 925 -233 1144.5 -218 c 128,-1,4
 1364 -203 1364 -203 1597 -174 c 1,5,-1
 1601 -212 l 1,6,7
 1601 -260 1601 -260 1576.5 -299.5 c 128,-1,8
 1552 -339 1552 -339 1507.5 -360 c 128,-1,9
 1463 -381 1463 -381 1313 -393.5 c 128,-1,10
 1163 -406 1163 -406 936.5 -412 c 128,-1,11
 710 -418 710 -418 510 -418 c 0,12,13
 318 -418 318 -418 220.5 -349 c 128,-1,14
 123 -280 123 -280 123 -147 c 0,15,16
 123 -68 123 -68 167.5 6 c 128,-1,17
 212 80 212 80 286.5 125 c 128,-1,18
 361 170 361 170 442 170 c 0,19,20
 535 170 535 170 604.5 100 c 128,-1,21
 674 30 674 30 674 -70 c 0,0,1
211 -113 m 0,22,23
 211 -175 211 -175 297.5 -204 c 128,-1,24
 384 -233 384 -233 537 -233 c 1,25,26
 559 -183 559 -183 559 -152 c 0,27,28
 559 8 559 8 416 8 c 0,29,30
 330 8 330 8 270.5 -25.5 c 128,-1,31
 211 -59 211 -59 211 -113 c 0,22,23
EndSplineSet
EndChar
StartChar: uni060D
Encoding: 1549 1549 737
Width: 723
GlyphClass: 2
Flags: W
LayerCount: 2
Fore
SplineSet
549 209 m 1,0,1
 263 -73 263 -73 166 -385 c 1,2,3
 136 -376 136 -376 118 -346.5 c 128,-1,4
 100 -317 100 -317 100 -284 c 0,5,6
 100 -235 100 -235 147 -129.5 c 128,-1,7
 194 -24 194 -24 288 100.5 c 128,-1,8
 382 225 382 225 506 354 c 1,9,-1
 549 209 l 1,0,1
EndSplineSet
EndChar
StartChar: uni0610
Encoding: 1552 1552 547
Width: 0
GlyphClass: 4
Flags: W
AnchorPoint: "Anchor-4" 160 1560 basemark 0
AnchorPoint: "Anchor-4" 220 1100 mark 0
AnchorPoint: "Anchor-2" 220 1100 mark 0
AnchorPoint: "Anchor-0" 220 1100 mark 0
LayerCount: 2
Fore
SplineSet
41 1276 m 1,0,1
 164 1485 164 1485 287 1485 c 0,2,3
 337 1485 337 1485 378.5 1443 c 128,-1,4
 420 1401 420 1401 420 1354 c 0,5,6
 420 1250 420 1250 347.5 1187 c 128,-1,7
 275 1124 275 1124 160 1124 c 0,8,9
 106 1124 106 1124 55 1137 c 1,10,11
 55 1047 55 1047 41 1012 c 1,12,13
 13 964 13 964 -25 961 c 1,14,15
 -16 1038 -16 1038 -16 1087 c 0,16,17
 -16 1176 -16 1176 -70 1298 c 1,18,19
 -60 1323 -60 1323 -48.5 1349.5 c 128,-1,20
 -37 1376 -37 1376 -14 1405 c 1,21,22
 -3 1377 -3 1377 9 1345 c 128,-1,23
 21 1313 21 1313 41 1276 c 1,0,1
70 1231 m 1,24,25
 104 1217 104 1217 162 1217 c 0,26,27
 320 1217 320 1217 371 1296 c 1,28,29
 345 1380 345 1380 260 1380 c 0,30,31
 150 1380 150 1380 70 1231 c 1,24,25
EndSplineSet
EndChar
StartChar: uni0611
Encoding: 1553 1553 548
Width: 0
GlyphClass: 4
Flags: W
AnchorPoint: "Anchor-4" 160 1560 basemark 0
AnchorPoint: "Anchor-4" 220 1100 mark 0
AnchorPoint: "Anchor-2" 220 1100 mark 0
AnchorPoint: "Anchor-0" 220 1100 mark 0
LayerCount: 2
Fore
SplineSet
135 1118 m 0,0,1
 86 1118 86 1118 51 1126 c 1,2,3
 51 1039 51 1039 26.5 1001 c 128,-1,4
 2 963 2 963 -33 961 c 1,5,6
 -25 1030 -25 1030 -25 1087 c 0,7,8
 -25 1178 -25 1178 -78 1298 c 1,9,10
 -58 1355 -58 1355 -25 1403 c 1,11,-1
 1 1344 l 1,12,13
 37 1259 37 1259 62 1234.5 c 128,-1,14
 87 1210 87 1210 129 1210 c 2,15,-1
 133 1210 l 1,16,17
 100 1247 100 1247 100 1294 c 0,18,19
 100 1360 100 1360 147.5 1420.5 c 128,-1,20
 195 1481 195 1481 252 1481 c 0,21,22
 283 1481 283 1481 311 1466 c 128,-1,23
 339 1451 339 1451 385 1411 c 1,24,-1
 362 1376 l 1,25,26
 313 1399 313 1399 266 1399 c 256,27,28
 219 1399 219 1399 164 1368 c 1,29,30
 164 1317 164 1317 190.5 1284 c 128,-1,31
 217 1251 217 1251 289 1235 c 1,32,33
 383 1260 383 1260 432 1286 c 1,34,35
 440 1268 440 1268 440 1253 c 0,36,37
 440 1226 440 1226 424 1203.5 c 128,-1,38
 408 1181 408 1181 364.5 1162.5 c 128,-1,39
 321 1144 321 1144 255 1131 c 128,-1,40
 189 1118 189 1118 135 1118 c 0,0,1
EndSplineSet
EndChar
StartChar: uni0612
Encoding: 1554 1554 549
Width: 0
GlyphClass: 4
Flags: W
AnchorPoint: "Anchor-4" 80 1640 basemark 0
AnchorPoint: "Anchor-4" 100 1060 mark 0
AnchorPoint: "Anchor-2" 100 1060 mark 0
AnchorPoint: "Anchor-0" 100 1060 mark 0
LayerCount: 2
Fore
SplineSet
-166 1053 m 1,0,1
 -166 1153 -166 1153 -114.5 1232.5 c 128,-1,2
 -63 1312 -63 1312 37 1358 c 1,3,4
 -36 1384 -36 1384 -80 1384 c 0,5,6
 -148 1384 -148 1384 -180 1346 c 1,7,8
 -205 1364 -205 1364 -205 1393 c 0,9,10
 -205 1432 -205 1432 -170 1455.5 c 128,-1,11
 -135 1479 -135 1479 -82 1479 c 0,12,13
 -40 1479 -40 1479 -4 1468.5 c 128,-1,14
 32 1458 32 1458 68 1446 c 128,-1,15
 104 1434 104 1434 141 1423.5 c 128,-1,16
 178 1413 178 1413 221 1413 c 0,17,18
 251 1413 251 1413 295 1419 c 1,19,-1
 260 1325 l 1,20,21
 238 1321 238 1321 199 1321 c 2,22,-1
 197 1321 l 1,23,24
 116 1308 116 1308 41 1268.5 c 128,-1,25
 -34 1229 -34 1229 -79 1173 c 128,-1,26
 -124 1117 -124 1117 -125 1053 c 1,27,-1
 -166 1053 l 1,0,1
242 1042 m 0,28,29
 221 1042 221 1042 173.5 1064.5 c 128,-1,30
 126 1087 126 1087 94 1114 c 1,31,-1
 111 1153 l 1,32,33
 187 1135 187 1135 219 1135 c 0,34,35
 293 1135 293 1135 340.5 1178 c 128,-1,36
 388 1221 388 1221 410 1290 c 1,37,38
 373 1369 373 1369 344 1417 c 1,39,40
 317 1468 317 1468 317 1503 c 0,41,42
 317 1531 317 1531 335 1548.5 c 128,-1,43
 353 1566 353 1566 387 1581 c 1,44,45
 400 1531 400 1531 416 1487 c 0,46,47
 431 1445 431 1445 446 1400 c 128,-1,48
 461 1355 461 1355 461 1321 c 0,49,50
 461 1206 461 1206 398.5 1124 c 128,-1,51
 336 1042 336 1042 242 1042 c 0,28,29
EndSplineSet
EndChar
StartChar: uni064B
Encoding: 1611 1611 98
Width: 0
GlyphClass: 4
Flags: W
AnchorPoint: "Anchor-4" 160 1560 basemark 0
AnchorPoint: "Anchor-4" 200 1060 mark 0
AnchorPoint: "Anchor-2" 200 1060 mark 0
AnchorPoint: "Anchor-0" 200 1060 mark 0
LayerCount: 2
Fore
SplineSet
492 1303 m 1,0,-1
 495 1271 l 1,1,2
 495 1196 495 1196 426 1163 c 0,3,4
 253 1082 253 1082 -57 987 c 1,5,-1
 -43 1116 l 1,6,7
 213 1192 213 1192 492 1303 c 1,0,-1
457 1511 m 1,8,-1
 460 1479 l 1,9,10
 460 1449 460 1449 445.5 1416 c 128,-1,11
 431 1383 431 1383 391 1366 c 0,12,13
 205 1287 205 1287 -88 1204 c 1,14,-1
 -78 1325 l 1,15,16
 200 1409 200 1409 457 1511 c 1,8,-1
EndSplineSet
EndChar
StartChar: uni064C
Encoding: 1612 1612 102
Width: 0
GlyphClass: 4
Flags: W
AnchorPoint: "Anchor-4" 200 1560 basemark 0
AnchorPoint: "Anchor-4" 180 1000 mark 0
AnchorPoint: "Anchor-2" 180 1000 mark 0
AnchorPoint: "Anchor-0" 180 1000 mark 0
LayerCount: 2
Fore
SplineSet
35 952 m 0,0,1
 29 952 29 952 -6 978 c 128,-1,2
 -41 1004 -41 1004 -41 1010 c 1,3,-1
 -39 1020 l 2,4,5
 -29 1065 -29 1065 -29 1090 c 0,6,7
 -29 1113 -29 1113 -37.5 1124 c 128,-1,8
 -46 1135 -46 1135 -57 1135 c 0,9,10
 -71 1135 -71 1135 -91.5 1125.5 c 128,-1,11
 -112 1116 -112 1116 -158 1094 c 1,12,-1
 -184 1124 l 1,13,14
 -136 1187 -136 1187 -95 1215 c 128,-1,15
 -54 1243 -54 1243 -27 1243 c 0,16,17
 14 1243 14 1243 32.5 1212 c 128,-1,18
 51 1181 51 1181 51 1135 c 0,19,20
 51 1096 51 1096 39 1055 c 1,21,22
 153 1082 153 1082 223 1137 c 1,23,24
 173 1159 173 1159 141 1196.5 c 128,-1,25
 109 1234 109 1234 109 1282 c 0,26,27
 109 1327 109 1327 135.5 1370.5 c 128,-1,28
 162 1414 162 1414 204 1441 c 128,-1,29
 246 1468 246 1468 285 1468 c 0,30,31
 331 1468 331 1468 360 1416.5 c 128,-1,32
 389 1365 389 1365 389 1274 c 0,33,34
 389 1227 389 1227 377 1196 c 1,35,36
 423 1190 423 1190 471 1190 c 1,37,38
 466 1143 466 1143 437 1125.5 c 128,-1,39
 408 1108 408 1108 348 1108 c 1,40,-1
 307 1112 l 1,41,42
 240 1045 240 1045 158 998.5 c 128,-1,43
 76 952 76 952 35 952 c 0,0,1
182 1325 m 0,44,45
 182 1251 182 1251 299 1214 c 1,46,47
 313 1239 313 1239 313 1268 c 0,48,49
 313 1314 313 1314 295 1343 c 128,-1,50
 277 1372 277 1372 248 1372 c 0,51,52
 225 1372 225 1372 203.5 1356 c 128,-1,53
 182 1340 182 1340 182 1325 c 0,44,45
EndSplineSet
EndChar
StartChar: uni064D
Encoding: 1613 1613 99
Width: 0
GlyphClass: 4
Flags: W
AnchorPoint: "Anchor-5" 220 -680 basemark 0
AnchorPoint: "Anchor-5" 200 -150 mark 0
AnchorPoint: "Anchor-3" 200 -150 mark 0
AnchorPoint: "Anchor-1" 200 -150 mark 0
LayerCount: 2
Fore
SplineSet
492 -360 m 1,0,-1
 495 -392 l 1,1,2
 495 -467 495 -467 426 -500 c 0,3,4
 253 -581 253 -581 -57 -676 c 1,5,-1
 -43 -547 l 1,6,7
 213 -471 213 -471 492 -360 c 1,0,-1
457 -152 m 1,8,-1
 460 -184 l 1,9,10
 460 -214 460 -214 445.5 -247 c 128,-1,11
 431 -280 431 -280 391 -297 c 0,12,13
 205 -376 205 -376 -88 -459 c 1,14,-1
 -78 -338 l 1,15,16
 200 -254 200 -254 457 -152 c 1,8,-1
EndSplineSet
EndChar
StartChar: uni0650
Encoding: 1616 1616 103
Width: 0
GlyphClass: 4
Flags: W
AnchorPoint: "Anchor-5" 220 -520 basemark 0
AnchorPoint: "Anchor-5" 230 -210 mark 0
AnchorPoint: "Anchor-3" 230 -210 mark 0
AnchorPoint: "Anchor-1" 230 -210 mark 0
LayerCount: 2
Fore
SplineSet
492 -211 m 1,0,-1
 495 -243 l 1,1,2
 495 -319 495 -319 426 -350 c 1,3,4
 253 -431 253 -431 -57 -526 c 1,5,-1
 -43 -397 l 1,6,7
 271 -299 271 -299 492 -211 c 1,0,-1
EndSplineSet
EndChar
StartChar: uni0656
Encoding: 1622 1622 110
Width: 0
GlyphClass: 4
Flags: W
AnchorPoint: "Anchor-5" 60 -800 basemark 0
AnchorPoint: "Anchor-5" 30 -180 mark 0
AnchorPoint: "Anchor-3" 30 -180 mark 0
AnchorPoint: "Anchor-1" 30 -180 mark 0
LayerCount: 2
Fore
SplineSet
59 -186 m 1,0,1
 82 -306 82 -306 90 -387 c 128,-1,2
 98 -468 98 -468 98 -573 c 0,3,4
 98 -703 98 -703 31 -795 c 1,5,-1
 16 -791 l 1,6,7
 16 -566 16 -566 -28 -390 c 0,8,9
 -37 -357 -37 -357 -37 -332 c 0,10,11
 -37 -281 -37 -281 -10.5 -241.5 c 128,-1,12
 16 -202 16 -202 59 -186 c 1,0,1
EndSplineSet
EndChar
StartChar: uni0658
Encoding: 1624 1624 553
Width: 0
GlyphClass: 4
Flags: W
AnchorPoint: "Anchor-4" 200 1560 basemark 0
AnchorPoint: "Anchor-4" 180 1100 mark 0
AnchorPoint: "Anchor-2" 180 1100 mark 0
AnchorPoint: "Anchor-0" 180 1100 mark 0
LayerCount: 2
Fore
SplineSet
403 1405 m 1,0,1
 385 1259 385 1259 328.5 1178.5 c 128,-1,2
 272 1098 272 1098 188 1098 c 256,3,4
 104 1098 104 1098 48 1158.5 c 128,-1,5
 -8 1219 -8 1219 -20 1329 c 1,6,-1
 -21 1342 l 1,7,8
 -21 1369 -21 1369 -1.5 1391 c 128,-1,9
 18 1413 18 1413 39 1413 c 1,10,11
 51 1310 51 1310 91.5 1257 c 128,-1,12
 132 1204 132 1204 195 1204 c 0,13,14
 320 1204 320 1204 362 1413 c 1,15,-1
 403 1405 l 1,0,1
EndSplineSet
EndChar
StartChar: uni0660
Encoding: 1632 1632 65
Width: 758
GlyphClass: 2
Flags: W
LayerCount: 2
Fore
SplineSet
184 485 m 1,0,1
 223 550 223 550 255.5 613.5 c 128,-1,2
 288 677 288 677 330 737 c 1,3,4
 438 675 438 675 505.5 623 c 128,-1,5
 573 571 573 571 573 545 c 0,6,7
 573 512 573 512 440 317 c 1,8,9
 307 416 307 416 184 485 c 1,0,1
EndSplineSet
EndChar
StartChar: uni0661
Encoding: 1633 1633 66
Width: 762
GlyphClass: 2
Flags: W
LayerCount: 2
Fore
SplineSet
185 1171 m 0,0,1
 185 1218 185 1218 217 1263 c 128,-1,2
 249 1308 249 1308 315 1348 c 1,3,4
 436 1128 436 1128 507 879 c 128,-1,5
 578 630 578 630 578 440 c 0,6,7
 578 215 578 215 545 -20 c 1,8,-1
 453 2 l 1,9,10
 447 271 447 271 427.5 421.5 c 128,-1,11
 408 572 408 572 359.5 732.5 c 128,-1,12
 311 893 311 893 205 1102 c 1,13,14
 185 1139 185 1139 185 1171 c 0,0,1
EndSplineSet
EndChar
StartChar: uni0664
Encoding: 1636 1636 69
Width: 1012
GlyphClass: 2
Flags: W
LayerCount: 2
Fore
SplineSet
279 219 m 0,0,1
 279 288 279 288 328.5 411.5 c 128,-1,2
 378 535 378 535 444 629 c 1,3,4
 317 682 317 682 240.5 742.5 c 128,-1,5
 164 803 164 803 164 852 c 0,6,7
 164 914 164 914 194 1004.5 c 128,-1,8
 224 1095 224 1095 264.5 1152.5 c 128,-1,9
 305 1210 305 1210 394 1277 c 128,-1,10
 483 1344 483 1344 623 1415 c 1,11,12
 631 1389 631 1389 631 1358 c 0,13,14
 630 1310 630 1310 610 1264.5 c 128,-1,15
 590 1219 590 1219 559 1194 c 2,16,-1
 486 1136 l 1,17,18
 335 1022 335 1022 281 973 c 1,19,20
 334 916 334 916 404.5 885.5 c 128,-1,21
 475 855 475 855 573 834 c 1,22,-1
 639 692 l 1,23,24
 545 586 545 586 467 465.5 c 128,-1,25
 389 345 389 345 389 295 c 0,26,27
 389 247 389 247 474.5 209.5 c 128,-1,28
 560 172 560 172 680 172 c 0,29,30
 808 172 808 172 895 197 c 1,31,-1
 920 154 l 1,32,33
 902 138 902 138 883.5 108 c 128,-1,34
 865 78 865 78 839 48.5 c 128,-1,35
 813 19 813 19 776 -3 c 128,-1,36
 739 -25 739 -25 684 -25 c 0,37,38
 486 -25 486 -25 382.5 36.5 c 128,-1,39
 279 98 279 98 279 219 c 0,0,1
EndSplineSet
EndChar
StartChar: uni0667
Encoding: 1639 1639 72
Width: 1051
GlyphClass: 2
Flags: W
LayerCount: 2
Fore
SplineSet
492 -20 m 1,0,1
 402 279 402 279 347.5 432 c 128,-1,2
 293 585 293 585 223 737.5 c 128,-1,3
 153 890 153 890 35 1108 c 0,4,5
 21 1132 21 1132 21 1159 c 0,6,7
 21 1256 21 1256 139 1343 c 1,8,9
 252 1168 252 1168 382.5 825.5 c 128,-1,10
 513 483 513 483 561 238 c 1,11,12
 611 527 611 527 717 837.5 c 128,-1,13
 823 1148 823 1148 928 1343 c 1,14,-1
 1030 1171 l 1,15,16
 878 867 878 867 789.5 626 c 128,-1,17
 701 385 701 385 621 76 c 1,18,19
 551 20 551 20 492 -20 c 1,0,1
EndSplineSet
Substitution2: "'locl' Localized Forms in Arabic lookup 1 subtable" uni06F7.urdu
EndChar
StartChar: uni0668
Encoding: 1640 1640 73
Width: 1051
GlyphClass: 2
Flags: W
LayerCount: 2
Fore
SplineSet
559 1343 m 1,0,1
 676 954 676 954 757 749.5 c 128,-1,2
 838 545 838 545 1016 215 c 0,3,4
 1030 191 1030 191 1030 164 c 0,5,6
 1030 118 1030 118 998 68.5 c 128,-1,7
 966 19 966 19 911 -20 c 1,8,9
 843 85 843 85 759.5 273.5 c 128,-1,10
 676 462 676 462 596 697 c 128,-1,11
 516 932 516 932 487 1083 c 1,12,13
 438 797 438 797 333 485.5 c 128,-1,14
 228 174 228 174 123 -20 c 1,15,-1
 20 152 l 1,16,17
 180 472 180 472 266.5 710 c 128,-1,18
 353 948 353 948 430 1247 c 1,19,20
 500 1303 500 1303 559 1343 c 1,0,1
EndSplineSet
EndChar
StartChar: uni0669
Encoding: 1641 1641 74
Width: 1044
GlyphClass: 2
Flags: W
LayerCount: 2
Fore
SplineSet
750 -23 m 1,0,1
 663 197 663 197 622.5 370.5 c 128,-1,2
 582 544 582 544 580 729 c 1,3,4
 514 702 514 702 449 702 c 0,5,6
 281 702 281 702 191.5 779.5 c 128,-1,7
 102 857 102 857 102 1006 c 0,8,9
 102 1087 102 1087 151 1180 c 128,-1,10
 200 1273 200 1273 274.5 1332 c 128,-1,11
 349 1391 349 1391 418 1391 c 0,12,13
 559 1391 559 1391 629.5 1266 c 128,-1,14
 700 1141 700 1141 700 883 c 0,15,16
 700 515 700 515 891 129 c 1,17,-1
 750 -23 l 1,0,1
518 905 m 0,18,19
 541 905 541 905 569 911 c 1,20,21
 535 1180 535 1180 358 1180 c 0,22,23
 301 1180 301 1180 254 1141.5 c 128,-1,24
 207 1103 207 1103 207 1065 c 0,25,26
 207 1020 207 1020 250.5 983.5 c 128,-1,27
 294 947 294 947 368 926 c 128,-1,28
 442 905 442 905 518 905 c 0,18,19
EndSplineSet
EndChar
StartChar: uni066B
Encoding: 1643 1643 95
Width: 418
GlyphClass: 2
Flags: W
LayerCount: 2
Fore
SplineSet
377 57 m 0,0,1
 377 -92 377 -92 291 -193.5 c 128,-1,2
 205 -295 205 -295 41 -344 c 1,3,-1
 41 -258 l 1,4,5
 236 -196 236 -196 236 -74 c 0,6,7
 236 -52 236 -52 221.5 -36.5 c 128,-1,8
 207 -21 207 -21 161 4 c 0,9,10
 86 43 86 43 86 115 c 0,11,12
 86 174 86 174 124 205 c 128,-1,13
 162 236 162 236 219 236 c 0,14,15
 288 236 288 236 332.5 186 c 128,-1,16
 377 136 377 136 377 57 c 0,0,1
EndSplineSet
EndChar
StartChar: uni066D
Encoding: 1645 1645 97
Width: 965
GlyphClass: 2
Flags: W
LayerCount: 2
Fore
SplineSet
487 1098 m 1,0,-1
 580 774 l 1,1,-1
 915 786 l 1,2,-1
 920 776 l 1,3,-1
 639 588 l 1,4,-1
 752 272 l 1,5,-1
 743 266 l 1,6,-1
 479 473 l 1,7,-1
 217 266 l 1,8,-1
 209 272 l 1,9,-1
 322 588 l 1,10,-1
 45 774 l 1,11,-1
 49 786 l 1,12,-1
 383 774 l 1,13,-1
 475 1098 l 1,14,-1
 487 1098 l 1,0,-1
EndSplineSet
EndChar
